ISO-10303-21;
HEADER;
/*Generated by software containing ST-Developer
 * from STEP Tools, Inc. (www.steptools.com) 
 */
/*OPTION: using custom renumber hook */
/*description */
/*implementation_level */
FILE_DESCRIPTION(('STEP AP242 Edition 2','STEP AP242 Edition 2''CAx-IF Rec.Pracs.---Representation and Presentation of Product Manufa
cturing Information (PMI)---4.0---2014-10-13','STEP AP242 Edition 2''CAx-IF Rec.Pracs.---Representation and Presentation of Product Manufa
cturing Information (PMI)---4.0---2014-10-13''CAx-IF Rec.Pracs.---3D Tessellated Geometry---0.4---2014-09-14','STEP AP242 Edition 2''CAx-IF Rec.Pracs.---Representation and Presentation of Product Manufa
cturing Information (PMI)---4.0---2014-10-13''CAx-IF Rec.Pracs.---3D Tessellated Geometry---0.4---2014-09-14''2;1','STEP AP242 Edition 2''CAx-IF Rec.Pracs.---Representation and Presentation of Product Manufa
cturing Information (PMI)---4.0---2014-10-13''CAx-IF Rec.Pracs.---3D Tessellated Geometry---0.4---2014-09-14''2;1''CAx-IF Rec.Pracs.---User Defined Attributes---1.5---2016-08-15'),'2;1');
/*name */
/*time_stamp */
/*author */
/*organization */
/*preprocessor_version */
/*originating_system */
/*authorisation */
FILE_NAME('/vol/tmp/translate-16111538498610265472/Swerve Camera V2 - Cover.step','2026-03-05T02:01:15',(''),(''),'ST-DEVELOPER v20','ONSHAPE BY PTC INC, 1.211','  ');
FILE_SCHEMA(('AP242_MANAGED_MODEL_BASED_3D_ENGINEERING_MIM_LF { 1 0 10303 442 3 1 4 }'));
ENDSEC;
DATA;
#10=SHAPE_REPRESENTATION_RELATIONSHIP('','',#1207,#11);
#11=ADVANCED_BREP_SHAPE_REPRESENTATION('',(#1205),#2033);
#12=CONICAL_SURFACE('',#1278,0.00635,0.785398163397448);
#13=CONICAL_SURFACE('',#1279,0.00635,0.785398163397448);
#14=CONICAL_SURFACE('',#1282,0.00635,0.785398163397448);
#15=CONICAL_SURFACE('',#1283,0.00635,0.785398163397448);
#16=CONICAL_SURFACE('',#1286,0.002667,0.785398163397448);
#17=CONICAL_SURFACE('',#1287,0.002667,0.785398163397448);
#18=CONICAL_SURFACE('',#1290,0.002667,0.785398163397448);
#19=CONICAL_SURFACE('',#1291,0.002667,0.785398163397448);
#20=CONICAL_SURFACE('',#1331,0.0015875,0.785398163397448);
#21=CONICAL_SURFACE('',#1332,0.0015875,0.785398163397448);
#22=CONICAL_SURFACE('',#1333,0.0015875,0.785398163397448);
#23=CONICAL_SURFACE('',#1334,0.0015875,0.785398163397448);
#24=CYLINDRICAL_SURFACE('',#1229,0.0010287);
#25=CYLINDRICAL_SURFACE('',#1231,0.0010287);
#26=CYLINDRICAL_SURFACE('',#1233,0.0010287);
#27=CYLINDRICAL_SURFACE('',#1235,0.0010287);
#28=CYLINDRICAL_SURFACE('',#1241,0.003937);
#29=CYLINDRICAL_SURFACE('',#1244,0.003937);
#30=CYLINDRICAL_SURFACE('',#1247,0.003937);
#31=CYLINDRICAL_SURFACE('',#1250,0.003937);
#32=CYLINDRICAL_SURFACE('',#1265,0.00508);
#33=CYLINDRICAL_SURFACE('',#1268,0.00508);
#34=CYLINDRICAL_SURFACE('',#1271,0.00508);
#35=CYLINDRICAL_SURFACE('',#1274,0.00508);
#36=CYLINDRICAL_SURFACE('',#1293,0.0019685);
#37=CYLINDRICAL_SURFACE('',#1297,0.0019685);
#38=CYLINDRICAL_SURFACE('',#1301,0.0019685);
#39=CYLINDRICAL_SURFACE('',#1305,0.0019685);
#40=CYLINDRICAL_SURFACE('',#1322,0.0021082);
#41=CYLINDRICAL_SURFACE('',#1328,0.0021082);
#42=CIRCLE('',#1211,0.00508);
#43=CIRCLE('',#1212,0.00508);
#44=CIRCLE('',#1213,0.00508);
#45=CIRCLE('',#1214,0.00508);
#46=CIRCLE('',#1215,0.0021082);
#47=CIRCLE('',#1216,0.00508);
#48=CIRCLE('',#1217,0.00508);
#49=CIRCLE('',#1218,0.00508);
#50=CIRCLE('',#1219,0.00508);
#51=CIRCLE('',#1220,0.0021082);
#52=CIRCLE('',#1221,0.003937);
#53=CIRCLE('',#1222,0.003937);
#54=CIRCLE('',#1223,0.003937);
#55=CIRCLE('',#1224,0.003937);
#56=CIRCLE('',#1225,0.0010287);
#57=CIRCLE('',#1226,0.0010287);
#58=CIRCLE('',#1227,0.0010287);
#59=CIRCLE('',#1228,0.0010287);
#60=CIRCLE('',#1230,0.0010287);
#61=CIRCLE('',#1232,0.0010287);
#62=CIRCLE('',#1234,0.0010287);
#63=CIRCLE('',#1236,0.0010287);
#64=CIRCLE('',#1242,0.003937);
#65=CIRCLE('',#1245,0.003937);
#66=CIRCLE('',#1248,0.003937);
#67=CIRCLE('',#1251,0.003937);
#68=CIRCLE('',#1253,0.0019685);
#69=CIRCLE('',#1254,0.0019685);
#70=CIRCLE('',#1255,0.0019685);
#71=CIRCLE('',#1256,0.0019685);
#72=CIRCLE('',#1257,0.00635);
#73=CIRCLE('',#1258,0.00635);
#74=CIRCLE('',#1259,0.00635);
#75=CIRCLE('',#1260,0.00635);
#76=CIRCLE('',#1261,0.002667);
#77=CIRCLE('',#1262,0.002667);
#78=CIRCLE('',#1263,0.002667);
#79=CIRCLE('',#1264,0.002667);
#80=CIRCLE('',#1266,0.00508);
#81=CIRCLE('',#1267,0.00508);
#82=CIRCLE('',#1269,0.00508);
#83=CIRCLE('',#1270,0.00508);
#84=CIRCLE('',#1272,0.00508);
#85=CIRCLE('',#1273,0.00508);
#86=CIRCLE('',#1275,0.00508);
#87=CIRCLE('',#1276,0.00508);
#88=CIRCLE('',#1294,0.0019685);
#89=CIRCLE('',#1296,0.0015875);
#90=CIRCLE('',#1298,0.0019685);
#91=CIRCLE('',#1300,0.0015875);
#92=CIRCLE('',#1302,0.0019685);
#93=CIRCLE('',#1304,0.0015875);
#94=CIRCLE('',#1306,0.0019685);
#95=CIRCLE('',#1308,0.0015875);
#96=CIRCLE('',#1323,0.0021082);
#97=CIRCLE('',#1329,0.0021082);
#98=ORIENTED_EDGE('',*,*,#418,.F.);
#99=ORIENTED_EDGE('',*,*,#419,.T.);
#100=ORIENTED_EDGE('',*,*,#420,.F.);
#101=ORIENTED_EDGE('',*,*,#421,.T.);
#102=ORIENTED_EDGE('',*,*,#422,.T.);
#103=ORIENTED_EDGE('',*,*,#423,.T.);
#104=ORIENTED_EDGE('',*,*,#424,.F.);
#105=ORIENTED_EDGE('',*,*,#425,.F.);
#106=ORIENTED_EDGE('',*,*,#426,.F.);
#107=ORIENTED_EDGE('',*,*,#424,.T.);
#108=ORIENTED_EDGE('',*,*,#427,.T.);
#109=ORIENTED_EDGE('',*,*,#428,.F.);
#110=ORIENTED_EDGE('',*,*,#429,.F.);
#111=ORIENTED_EDGE('',*,*,#430,.T.);
#112=ORIENTED_EDGE('',*,*,#431,.F.);
#113=ORIENTED_EDGE('',*,*,#432,.T.);
#114=ORIENTED_EDGE('',*,*,#433,.F.);
#115=ORIENTED_EDGE('',*,*,#434,.T.);
#116=ORIENTED_EDGE('',*,*,#435,.T.);
#117=ORIENTED_EDGE('',*,*,#436,.F.);
#118=ORIENTED_EDGE('',*,*,#437,.T.);
#119=ORIENTED_EDGE('',*,*,#438,.F.);
#120=ORIENTED_EDGE('',*,*,#439,.T.);
#121=ORIENTED_EDGE('',*,*,#440,.F.);
#122=ORIENTED_EDGE('',*,*,#441,.T.);
#123=ORIENTED_EDGE('',*,*,#442,.T.);
#124=ORIENTED_EDGE('',*,*,#443,.T.);
#125=ORIENTED_EDGE('',*,*,#444,.T.);
#126=ORIENTED_EDGE('',*,*,#445,.T.);
#127=ORIENTED_EDGE('',*,*,#446,.T.);
#128=ORIENTED_EDGE('',*,*,#447,.T.);
#129=ORIENTED_EDGE('',*,*,#448,.F.);
#130=ORIENTED_EDGE('',*,*,#449,.T.);
#131=ORIENTED_EDGE('',*,*,#420,.T.);
#132=ORIENTED_EDGE('',*,*,#450,.F.);
#133=ORIENTED_EDGE('',*,*,#451,.T.);
#134=ORIENTED_EDGE('',*,*,#452,.F.);
#135=ORIENTED_EDGE('',*,*,#453,.F.);
#136=ORIENTED_EDGE('',*,*,#454,.F.);
#137=ORIENTED_EDGE('',*,*,#455,.F.);
#138=ORIENTED_EDGE('',*,*,#456,.F.);
#139=ORIENTED_EDGE('',*,*,#457,.F.);
#140=ORIENTED_EDGE('',*,*,#458,.F.);
#141=ORIENTED_EDGE('',*,*,#459,.F.);
#142=ORIENTED_EDGE('',*,*,#460,.T.);
#143=ORIENTED_EDGE('',*,*,#461,.T.);
#144=ORIENTED_EDGE('',*,*,#462,.T.);
#145=ORIENTED_EDGE('',*,*,#463,.T.);
#146=ORIENTED_EDGE('',*,*,#463,.F.);
#147=ORIENTED_EDGE('',*,*,#464,.T.);
#148=ORIENTED_EDGE('',*,*,#462,.F.);
#149=ORIENTED_EDGE('',*,*,#465,.T.);
#150=ORIENTED_EDGE('',*,*,#461,.F.);
#151=ORIENTED_EDGE('',*,*,#466,.T.);
#152=ORIENTED_EDGE('',*,*,#460,.F.);
#153=ORIENTED_EDGE('',*,*,#467,.T.);
#154=ORIENTED_EDGE('',*,*,#468,.T.);
#155=ORIENTED_EDGE('',*,*,#469,.T.);
#156=ORIENTED_EDGE('',*,*,#470,.T.);
#157=ORIENTED_EDGE('',*,*,#445,.F.);
#158=ORIENTED_EDGE('',*,*,#471,.T.);
#159=ORIENTED_EDGE('',*,*,#472,.T.);
#160=ORIENTED_EDGE('',*,*,#436,.T.);
#161=ORIENTED_EDGE('',*,*,#473,.T.);
#162=ORIENTED_EDGE('',*,*,#474,.T.);
#163=ORIENTED_EDGE('',*,*,#475,.T.);
#164=ORIENTED_EDGE('',*,*,#440,.T.);
#165=ORIENTED_EDGE('',*,*,#476,.F.);
#166=ORIENTED_EDGE('',*,*,#477,.T.);
#167=ORIENTED_EDGE('',*,*,#478,.T.);
#168=ORIENTED_EDGE('',*,*,#479,.T.);
#169=ORIENTED_EDGE('',*,*,#431,.T.);
#170=ORIENTED_EDGE('',*,*,#480,.F.);
#171=ORIENTED_EDGE('',*,*,#481,.T.);
#172=ORIENTED_EDGE('',*,*,#482,.T.);
#173=ORIENTED_EDGE('',*,*,#452,.T.);
#174=ORIENTED_EDGE('',*,*,#483,.F.);
#175=ORIENTED_EDGE('',*,*,#484,.T.);
#176=ORIENTED_EDGE('',*,*,#480,.T.);
#177=ORIENTED_EDGE('',*,*,#459,.T.);
#178=ORIENTED_EDGE('',*,*,#485,.F.);
#179=ORIENTED_EDGE('',*,*,#486,.T.);
#180=ORIENTED_EDGE('',*,*,#483,.T.);
#181=ORIENTED_EDGE('',*,*,#458,.T.);
#182=ORIENTED_EDGE('',*,*,#487,.F.);
#183=ORIENTED_EDGE('',*,*,#488,.T.);
#184=ORIENTED_EDGE('',*,*,#485,.T.);
#185=ORIENTED_EDGE('',*,*,#457,.T.);
#186=ORIENTED_EDGE('',*,*,#489,.F.);
#187=ORIENTED_EDGE('',*,*,#490,.T.);
#188=ORIENTED_EDGE('',*,*,#487,.T.);
#189=ORIENTED_EDGE('',*,*,#456,.T.);
#190=ORIENTED_EDGE('',*,*,#491,.F.);
#191=ORIENTED_EDGE('',*,*,#492,.T.);
#192=ORIENTED_EDGE('',*,*,#489,.T.);
#193=ORIENTED_EDGE('',*,*,#455,.T.);
#194=ORIENTED_EDGE('',*,*,#493,.F.);
#195=ORIENTED_EDGE('',*,*,#494,.T.);
#196=ORIENTED_EDGE('',*,*,#491,.T.);
#197=ORIENTED_EDGE('',*,*,#454,.T.);
#198=ORIENTED_EDGE('',*,*,#482,.F.);
#199=ORIENTED_EDGE('',*,*,#495,.T.);
#200=ORIENTED_EDGE('',*,*,#493,.T.);
#201=ORIENTED_EDGE('',*,*,#453,.T.);
#202=ORIENTED_EDGE('',*,*,#496,.F.);
#203=ORIENTED_EDGE('',*,*,#497,.F.);
#204=ORIENTED_EDGE('',*,*,#498,.F.);
#205=ORIENTED_EDGE('',*,*,#499,.F.);
#206=ORIENTED_EDGE('',*,*,#500,.T.);
#207=ORIENTED_EDGE('',*,*,#501,.T.);
#208=ORIENTED_EDGE('',*,*,#502,.T.);
#209=ORIENTED_EDGE('',*,*,#503,.T.);
#210=ORIENTED_EDGE('',*,*,#504,.T.);
#211=ORIENTED_EDGE('',*,*,#505,.T.);
#212=ORIENTED_EDGE('',*,*,#506,.T.);
#213=ORIENTED_EDGE('',*,*,#507,.T.);
#214=ORIENTED_EDGE('',*,*,#508,.T.);
#215=ORIENTED_EDGE('',*,*,#509,.T.);
#216=ORIENTED_EDGE('',*,*,#510,.T.);
#217=ORIENTED_EDGE('',*,*,#511,.T.);
#218=ORIENTED_EDGE('',*,*,#512,.T.);
#219=ORIENTED_EDGE('',*,*,#513,.T.);
#220=ORIENTED_EDGE('',*,*,#514,.T.);
#221=ORIENTED_EDGE('',*,*,#515,.T.);
#222=ORIENTED_EDGE('',*,*,#516,.F.);
#223=ORIENTED_EDGE('',*,*,#517,.T.);
#224=ORIENTED_EDGE('',*,*,#427,.F.);
#225=ORIENTED_EDGE('',*,*,#423,.F.);
#226=ORIENTED_EDGE('',*,*,#518,.T.);
#227=ORIENTED_EDGE('',*,*,#477,.F.);
#228=ORIENTED_EDGE('',*,*,#430,.F.);
#229=ORIENTED_EDGE('',*,*,#519,.F.);
#230=ORIENTED_EDGE('',*,*,#520,.F.);
#231=ORIENTED_EDGE('',*,*,#521,.T.);
#232=ORIENTED_EDGE('',*,*,#432,.F.);
#233=ORIENTED_EDGE('',*,*,#479,.F.);
#234=ORIENTED_EDGE('',*,*,#522,.T.);
#235=ORIENTED_EDGE('',*,*,#473,.F.);
#236=ORIENTED_EDGE('',*,*,#435,.F.);
#237=ORIENTED_EDGE('',*,*,#523,.F.);
#238=ORIENTED_EDGE('',*,*,#524,.F.);
#239=ORIENTED_EDGE('',*,*,#525,.T.);
#240=ORIENTED_EDGE('',*,*,#446,.F.);
#241=ORIENTED_EDGE('',*,*,#470,.F.);
#242=ORIENTED_EDGE('',*,*,#526,.T.);
#243=ORIENTED_EDGE('',*,*,#421,.F.);
#244=ORIENTED_EDGE('',*,*,#449,.F.);
#245=ORIENTED_EDGE('',*,*,#527,.F.);
#246=ORIENTED_EDGE('',*,*,#528,.F.);
#247=ORIENTED_EDGE('',*,*,#529,.T.);
#248=ORIENTED_EDGE('',*,*,#441,.F.);
#249=ORIENTED_EDGE('',*,*,#475,.F.);
#250=ORIENTED_EDGE('',*,*,#530,.T.);
#251=ORIENTED_EDGE('',*,*,#468,.F.);
#252=ORIENTED_EDGE('',*,*,#444,.F.);
#253=ORIENTED_EDGE('',*,*,#531,.F.);
#254=ORIENTED_EDGE('',*,*,#532,.F.);
#255=ORIENTED_EDGE('',*,*,#505,.F.);
#256=ORIENTED_EDGE('',*,*,#533,.F.);
#257=ORIENTED_EDGE('',*,*,#474,.F.);
#258=ORIENTED_EDGE('',*,*,#533,.T.);
#259=ORIENTED_EDGE('',*,*,#504,.F.);
#260=ORIENTED_EDGE('',*,*,#534,.F.);
#261=ORIENTED_EDGE('',*,*,#530,.F.);
#262=ORIENTED_EDGE('',*,*,#532,.T.);
#263=ORIENTED_EDGE('',*,*,#522,.F.);
#264=ORIENTED_EDGE('',*,*,#535,.F.);
#265=ORIENTED_EDGE('',*,*,#506,.F.);
#266=ORIENTED_EDGE('',*,*,#534,.T.);
#267=ORIENTED_EDGE('',*,*,#503,.F.);
#268=ORIENTED_EDGE('',*,*,#536,.F.);
#269=ORIENTED_EDGE('',*,*,#469,.F.);
#270=ORIENTED_EDGE('',*,*,#535,.T.);
#271=ORIENTED_EDGE('',*,*,#478,.F.);
#272=ORIENTED_EDGE('',*,*,#537,.F.);
#273=ORIENTED_EDGE('',*,*,#507,.F.);
#274=ORIENTED_EDGE('',*,*,#536,.T.);
#275=ORIENTED_EDGE('',*,*,#502,.F.);
#276=ORIENTED_EDGE('',*,*,#538,.F.);
#277=ORIENTED_EDGE('',*,*,#526,.F.);
#278=ORIENTED_EDGE('',*,*,#537,.T.);
#279=ORIENTED_EDGE('',*,*,#518,.F.);
#280=ORIENTED_EDGE('',*,*,#539,.F.);
#281=ORIENTED_EDGE('',*,*,#500,.F.);
#282=ORIENTED_EDGE('',*,*,#538,.T.);
#283=ORIENTED_EDGE('',*,*,#501,.F.);
#284=ORIENTED_EDGE('',*,*,#539,.T.);
#285=ORIENTED_EDGE('',*,*,#422,.F.);
#286=ORIENTED_EDGE('',*,*,#540,.F.);
#287=ORIENTED_EDGE('',*,*,#490,.F.);
#288=ORIENTED_EDGE('',*,*,#541,.F.);
#289=ORIENTED_EDGE('',*,*,#513,.F.);
#290=ORIENTED_EDGE('',*,*,#541,.T.);
#291=ORIENTED_EDGE('',*,*,#492,.F.);
#292=ORIENTED_EDGE('',*,*,#542,.F.);
#293=ORIENTED_EDGE('',*,*,#514,.F.);
#294=ORIENTED_EDGE('',*,*,#540,.T.);
#295=ORIENTED_EDGE('',*,*,#512,.F.);
#296=ORIENTED_EDGE('',*,*,#543,.F.);
#297=ORIENTED_EDGE('',*,*,#488,.F.);
#298=ORIENTED_EDGE('',*,*,#542,.T.);
#299=ORIENTED_EDGE('',*,*,#494,.F.);
#300=ORIENTED_EDGE('',*,*,#544,.F.);
#301=ORIENTED_EDGE('',*,*,#515,.F.);
#302=ORIENTED_EDGE('',*,*,#543,.T.);
#303=ORIENTED_EDGE('',*,*,#511,.F.);
#304=ORIENTED_EDGE('',*,*,#545,.F.);
#305=ORIENTED_EDGE('',*,*,#486,.F.);
#306=ORIENTED_EDGE('',*,*,#544,.T.);
#307=ORIENTED_EDGE('',*,*,#495,.F.);
#308=ORIENTED_EDGE('',*,*,#546,.F.);
#309=ORIENTED_EDGE('',*,*,#508,.F.);
#310=ORIENTED_EDGE('',*,*,#545,.T.);
#311=ORIENTED_EDGE('',*,*,#510,.F.);
#312=ORIENTED_EDGE('',*,*,#547,.F.);
#313=ORIENTED_EDGE('',*,*,#484,.F.);
#314=ORIENTED_EDGE('',*,*,#546,.T.);
#315=ORIENTED_EDGE('',*,*,#481,.F.);
#316=ORIENTED_EDGE('',*,*,#547,.T.);
#317=ORIENTED_EDGE('',*,*,#509,.F.);
#318=ORIENTED_EDGE('',*,*,#548,.T.);
#319=ORIENTED_EDGE('',*,*,#499,.T.);
#320=ORIENTED_EDGE('',*,*,#549,.T.);
#321=ORIENTED_EDGE('',*,*,#466,.F.);
#322=ORIENTED_EDGE('',*,*,#550,.T.);
#323=ORIENTED_EDGE('',*,*,#498,.T.);
#324=ORIENTED_EDGE('',*,*,#551,.T.);
#325=ORIENTED_EDGE('',*,*,#467,.F.);
#326=ORIENTED_EDGE('',*,*,#552,.T.);
#327=ORIENTED_EDGE('',*,*,#497,.T.);
#328=ORIENTED_EDGE('',*,*,#553,.T.);
#329=ORIENTED_EDGE('',*,*,#464,.F.);
#330=ORIENTED_EDGE('',*,*,#554,.T.);
#331=ORIENTED_EDGE('',*,*,#496,.T.);
#332=ORIENTED_EDGE('',*,*,#555,.T.);
#333=ORIENTED_EDGE('',*,*,#465,.F.);
#334=ORIENTED_EDGE('',*,*,#443,.F.);
#335=ORIENTED_EDGE('',*,*,#556,.F.);
#336=ORIENTED_EDGE('',*,*,#557,.T.);
#337=ORIENTED_EDGE('',*,*,#531,.T.);
#338=ORIENTED_EDGE('',*,*,#442,.F.);
#339=ORIENTED_EDGE('',*,*,#529,.F.);
#340=ORIENTED_EDGE('',*,*,#558,.T.);
#341=ORIENTED_EDGE('',*,*,#556,.T.);
#342=ORIENTED_EDGE('',*,*,#557,.F.);
#343=ORIENTED_EDGE('',*,*,#558,.F.);
#344=ORIENTED_EDGE('',*,*,#528,.T.);
#345=ORIENTED_EDGE('',*,*,#447,.F.);
#346=ORIENTED_EDGE('',*,*,#525,.F.);
#347=ORIENTED_EDGE('',*,*,#559,.T.);
#348=ORIENTED_EDGE('',*,*,#560,.T.);
#349=ORIENTED_EDGE('',*,*,#448,.T.);
#350=ORIENTED_EDGE('',*,*,#560,.F.);
#351=ORIENTED_EDGE('',*,*,#561,.F.);
#352=ORIENTED_EDGE('',*,*,#527,.T.);
#353=ORIENTED_EDGE('',*,*,#559,.F.);
#354=ORIENTED_EDGE('',*,*,#524,.T.);
#355=ORIENTED_EDGE('',*,*,#561,.T.);
#356=ORIENTED_EDGE('',*,*,#434,.F.);
#357=ORIENTED_EDGE('',*,*,#562,.F.);
#358=ORIENTED_EDGE('',*,*,#563,.T.);
#359=ORIENTED_EDGE('',*,*,#523,.T.);
#360=ORIENTED_EDGE('',*,*,#433,.T.);
#361=ORIENTED_EDGE('',*,*,#521,.F.);
#362=ORIENTED_EDGE('',*,*,#564,.F.);
#363=ORIENTED_EDGE('',*,*,#562,.T.);
#364=ORIENTED_EDGE('',*,*,#563,.F.);
#365=ORIENTED_EDGE('',*,*,#564,.T.);
#366=ORIENTED_EDGE('',*,*,#520,.T.);
#367=ORIENTED_EDGE('',*,*,#429,.T.);
#368=ORIENTED_EDGE('',*,*,#565,.F.);
#369=ORIENTED_EDGE('',*,*,#566,.F.);
#370=ORIENTED_EDGE('',*,*,#519,.T.);
#371=ORIENTED_EDGE('',*,*,#428,.T.);
#372=ORIENTED_EDGE('',*,*,#517,.F.);
#373=ORIENTED_EDGE('',*,*,#567,.F.);
#374=ORIENTED_EDGE('',*,*,#565,.T.);
#375=ORIENTED_EDGE('',*,*,#516,.T.);
#376=ORIENTED_EDGE('',*,*,#566,.T.);
#377=ORIENTED_EDGE('',*,*,#567,.T.);
#378=ORIENTED_EDGE('',*,*,#426,.T.);
#379=ORIENTED_EDGE('',*,*,#568,.F.);
#380=ORIENTED_EDGE('',*,*,#569,.F.);
#381=ORIENTED_EDGE('',*,*,#425,.T.);
#382=ORIENTED_EDGE('',*,*,#451,.F.);
#383=ORIENTED_EDGE('',*,*,#570,.F.);
#384=ORIENTED_EDGE('',*,*,#571,.T.);
#385=ORIENTED_EDGE('',*,*,#568,.T.);
#386=ORIENTED_EDGE('',*,*,#450,.T.);
#387=ORIENTED_EDGE('',*,*,#419,.F.);
#388=ORIENTED_EDGE('',*,*,#572,.F.);
#389=ORIENTED_EDGE('',*,*,#570,.T.);
#390=ORIENTED_EDGE('',*,*,#418,.T.);
#391=ORIENTED_EDGE('',*,*,#569,.T.);
#392=ORIENTED_EDGE('',*,*,#571,.F.);
#393=ORIENTED_EDGE('',*,*,#572,.T.);
#394=ORIENTED_EDGE('',*,*,#437,.F.);
#395=ORIENTED_EDGE('',*,*,#472,.F.);
#396=ORIENTED_EDGE('',*,*,#573,.T.);
#397=ORIENTED_EDGE('',*,*,#574,.T.);
#398=ORIENTED_EDGE('',*,*,#439,.F.);
#399=ORIENTED_EDGE('',*,*,#575,.F.);
#400=ORIENTED_EDGE('',*,*,#576,.T.);
#401=ORIENTED_EDGE('',*,*,#476,.T.);
#402=ORIENTED_EDGE('',*,*,#438,.T.);
#403=ORIENTED_EDGE('',*,*,#574,.F.);
#404=ORIENTED_EDGE('',*,*,#577,.F.);
#405=ORIENTED_EDGE('',*,*,#575,.T.);
#406=ORIENTED_EDGE('',*,*,#573,.F.);
#407=ORIENTED_EDGE('',*,*,#471,.F.);
#408=ORIENTED_EDGE('',*,*,#576,.F.);
#409=ORIENTED_EDGE('',*,*,#577,.T.);
#410=ORIENTED_EDGE('',*,*,#554,.F.);
#411=ORIENTED_EDGE('',*,*,#555,.F.);
#412=ORIENTED_EDGE('',*,*,#552,.F.);
#413=ORIENTED_EDGE('',*,*,#553,.F.);
#414=ORIENTED_EDGE('',*,*,#550,.F.);
#415=ORIENTED_EDGE('',*,*,#551,.F.);
#416=ORIENTED_EDGE('',*,*,#548,.F.);
#417=ORIENTED_EDGE('',*,*,#549,.F.);
#418=EDGE_CURVE('',#578,#579,#686,.T.);
#419=EDGE_CURVE('',#578,#580,#687,.T.);
#420=EDGE_CURVE('',#581,#580,#688,.T.);
#421=EDGE_CURVE('',#581,#582,#689,.F.);
#422=EDGE_CURVE('',#582,#583,#690,.T.);
#423=EDGE_CURVE('',#583,#584,#691,.T.);
#424=EDGE_CURVE('',#585,#584,#692,.T.);
#425=EDGE_CURVE('',#579,#585,#693,.T.);
#426=EDGE_CURVE('',#585,#586,#694,.T.);
#427=EDGE_CURVE('',#584,#587,#42,.T.);
#428=EDGE_CURVE('',#588,#587,#695,.T.);
#429=EDGE_CURVE('',#589,#588,#696,.T.);
#430=EDGE_CURVE('',#589,#590,#43,.T.);
#431=EDGE_CURVE('',#591,#590,#697,.T.);
#432=EDGE_CURVE('',#591,#592,#44,.T.);
#433=EDGE_CURVE('',#593,#592,#698,.T.);
#434=EDGE_CURVE('',#593,#594,#699,.T.);
#435=EDGE_CURVE('',#594,#595,#45,.T.);
#436=EDGE_CURVE('',#596,#595,#700,.T.);
#437=EDGE_CURVE('',#596,#597,#701,.T.);
#438=EDGE_CURVE('',#598,#597,#46,.T.);
#439=EDGE_CURVE('',#598,#599,#702,.T.);
#440=EDGE_CURVE('',#600,#599,#703,.T.);
#441=EDGE_CURVE('',#600,#601,#47,.T.);
#442=EDGE_CURVE('',#601,#602,#704,.T.);
#443=EDGE_CURVE('',#602,#603,#705,.T.);
#444=EDGE_CURVE('',#603,#604,#48,.T.);
#445=EDGE_CURVE('',#604,#605,#706,.T.);
#446=EDGE_CURVE('',#605,#606,#49,.T.);
#447=EDGE_CURVE('',#606,#607,#707,.T.);
#448=EDGE_CURVE('',#608,#607,#708,.T.);
#449=EDGE_CURVE('',#608,#581,#50,.T.);
#450=EDGE_CURVE('',#609,#580,#709,.T.);
#451=EDGE_CURVE('',#609,#586,#51,.T.);
#452=EDGE_CURVE('',#610,#611,#710,.T.);
#453=EDGE_CURVE('',#612,#610,#52,.T.);
#454=EDGE_CURVE('',#613,#612,#711,.T.);
#455=EDGE_CURVE('',#614,#613,#53,.T.);
#456=EDGE_CURVE('',#615,#614,#712,.T.);
#457=EDGE_CURVE('',#616,#615,#54,.T.);
#458=EDGE_CURVE('',#617,#616,#713,.T.);
#459=EDGE_CURVE('',#611,#617,#55,.T.);
#460=EDGE_CURVE('',#618,#618,#56,.T.);
#461=EDGE_CURVE('',#619,#619,#57,.T.);
#462=EDGE_CURVE('',#620,#620,#58,.T.);
#463=EDGE_CURVE('',#621,#621,#59,.T.);
#464=EDGE_CURVE('',#622,#622,#60,.T.);
#465=EDGE_CURVE('',#623,#623,#61,.T.);
#466=EDGE_CURVE('',#624,#624,#62,.T.);
#467=EDGE_CURVE('',#625,#625,#63,.T.);
#468=EDGE_CURVE('',#604,#626,#714,.F.);
#469=EDGE_CURVE('',#626,#627,#715,.T.);
#470=EDGE_CURVE('',#627,#605,#716,.T.);
#471=EDGE_CURVE('',#628,#629,#717,.T.);
#472=EDGE_CURVE('',#629,#596,#718,.T.);
#473=EDGE_CURVE('',#595,#630,#719,.F.);
#474=EDGE_CURVE('',#630,#631,#720,.T.);
#475=EDGE_CURVE('',#631,#600,#721,.T.);
#476=EDGE_CURVE('',#628,#599,#722,.T.);
#477=EDGE_CURVE('',#590,#632,#723,.F.);
#478=EDGE_CURVE('',#632,#633,#724,.T.);
#479=EDGE_CURVE('',#633,#591,#725,.T.);
#480=EDGE_CURVE('',#634,#611,#726,.T.);
#481=EDGE_CURVE('',#634,#635,#727,.T.);
#482=EDGE_CURVE('',#635,#610,#728,.T.);
#483=EDGE_CURVE('',#636,#617,#729,.T.);
#484=EDGE_CURVE('',#636,#634,#64,.F.);
#485=EDGE_CURVE('',#637,#616,#730,.T.);
#486=EDGE_CURVE('',#637,#636,#731,.T.);
#487=EDGE_CURVE('',#638,#615,#732,.T.);
#488=EDGE_CURVE('',#638,#637,#65,.F.);
#489=EDGE_CURVE('',#639,#614,#733,.T.);
#490=EDGE_CURVE('',#639,#638,#734,.T.);
#491=EDGE_CURVE('',#640,#613,#735,.T.);
#492=EDGE_CURVE('',#640,#639,#66,.F.);
#493=EDGE_CURVE('',#641,#612,#736,.T.);
#494=EDGE_CURVE('',#641,#640,#737,.T.);
#495=EDGE_CURVE('',#635,#641,#67,.F.);
#496=EDGE_CURVE('',#642,#642,#68,.T.);
#497=EDGE_CURVE('',#643,#643,#69,.T.);
#498=EDGE_CURVE('',#644,#644,#70,.T.);
#499=EDGE_CURVE('',#645,#645,#71,.T.);
#500=EDGE_CURVE('',#646,#647,#72,.F.);
#501=EDGE_CURVE('',#647,#648,#738,.T.);
#502=EDGE_CURVE('',#648,#649,#73,.F.);
#503=EDGE_CURVE('',#649,#650,#739,.T.);
#504=EDGE_CURVE('',#650,#651,#74,.F.);
#505=EDGE_CURVE('',#651,#652,#740,.T.);
#506=EDGE_CURVE('',#652,#653,#75,.F.);
#507=EDGE_CURVE('',#653,#646,#741,.T.);
#508=EDGE_CURVE('',#654,#655,#76,.T.);
#509=EDGE_CURVE('',#655,#656,#742,.T.);
#510=EDGE_CURVE('',#656,#657,#77,.T.);
#511=EDGE_CURVE('',#657,#658,#743,.T.);
#512=EDGE_CURVE('',#658,#659,#78,.T.);
#513=EDGE_CURVE('',#659,#660,#744,.T.);
#514=EDGE_CURVE('',#660,#661,#79,.T.);
#515=EDGE_CURVE('',#661,#654,#745,.T.);
#516=EDGE_CURVE('',#662,#663,#80,.T.);
#517=EDGE_CURVE('',#662,#587,#746,.T.);
#518=EDGE_CURVE('',#583,#632,#81,.T.);
#519=EDGE_CURVE('',#663,#589,#747,.T.);
#520=EDGE_CURVE('',#664,#665,#82,.T.);
#521=EDGE_CURVE('',#664,#592,#748,.T.);
#522=EDGE_CURVE('',#633,#630,#83,.T.);
#523=EDGE_CURVE('',#665,#594,#749,.T.);
#524=EDGE_CURVE('',#666,#667,#84,.T.);
#525=EDGE_CURVE('',#666,#606,#750,.T.);
#526=EDGE_CURVE('',#627,#582,#85,.T.);
#527=EDGE_CURVE('',#667,#608,#751,.T.);
#528=EDGE_CURVE('',#668,#669,#86,.T.);
#529=EDGE_CURVE('',#668,#601,#752,.T.);
#530=EDGE_CURVE('',#631,#626,#87,.T.);
#531=EDGE_CURVE('',#669,#603,#753,.T.);
#532=EDGE_CURVE('',#652,#630,#754,.T.);
#533=EDGE_CURVE('',#631,#651,#755,.T.);
#534=EDGE_CURVE('',#626,#650,#756,.T.);
#535=EDGE_CURVE('',#653,#633,#757,.T.);
#536=EDGE_CURVE('',#627,#649,#758,.T.);
#537=EDGE_CURVE('',#646,#632,#759,.T.);
#538=EDGE_CURVE('',#582,#648,#760,.T.);
#539=EDGE_CURVE('',#647,#583,#761,.T.);
#540=EDGE_CURVE('',#638,#659,#762,.T.);
#541=EDGE_CURVE('',#660,#639,#763,.T.);
#542=EDGE_CURVE('',#661,#640,#764,.T.);
#543=EDGE_CURVE('',#637,#658,#765,.T.);
#544=EDGE_CURVE('',#654,#641,#766,.T.);
#545=EDGE_CURVE('',#636,#657,#767,.T.);
#546=EDGE_CURVE('',#655,#635,#768,.T.);
#547=EDGE_CURVE('',#634,#656,#769,.T.);
#548=EDGE_CURVE('',#670,#670,#88,.F.);
#549=EDGE_CURVE('',#671,#671,#89,.T.);
#550=EDGE_CURVE('',#672,#672,#90,.F.);
#551=EDGE_CURVE('',#673,#673,#91,.T.);
#552=EDGE_CURVE('',#674,#674,#92,.F.);
#553=EDGE_CURVE('',#675,#675,#93,.T.);
#554=EDGE_CURVE('',#676,#676,#94,.F.);
#555=EDGE_CURVE('',#677,#677,#95,.T.);
#556=EDGE_CURVE('',#678,#602,#770,.T.);
#557=EDGE_CURVE('',#678,#669,#771,.T.);
#558=EDGE_CURVE('',#668,#678,#772,.T.);
#559=EDGE_CURVE('',#666,#679,#773,.T.);
#560=EDGE_CURVE('',#679,#607,#774,.T.);
#561=EDGE_CURVE('',#667,#679,#775,.T.);
#562=EDGE_CURVE('',#680,#593,#776,.T.);
#563=EDGE_CURVE('',#680,#665,#777,.T.);
#564=EDGE_CURVE('',#680,#664,#778,.T.);
#565=EDGE_CURVE('',#681,#588,#779,.T.);
#566=EDGE_CURVE('',#663,#681,#780,.T.);
#567=EDGE_CURVE('',#681,#662,#781,.T.);
#568=EDGE_CURVE('',#682,#586,#782,.T.);
#569=EDGE_CURVE('',#579,#682,#783,.T.);
#570=EDGE_CURVE('',#683,#609,#784,.T.);
#571=EDGE_CURVE('',#683,#682,#96,.T.);
#572=EDGE_CURVE('',#683,#578,#785,.T.);
#573=EDGE_CURVE('',#629,#684,#786,.T.);
#574=EDGE_CURVE('',#684,#597,#787,.T.);
#575=EDGE_CURVE('',#685,#598,#788,.T.);
#576=EDGE_CURVE('',#685,#628,#789,.T.);
#577=EDGE_CURVE('',#685,#684,#97,.T.);
#578=VERTEX_POINT('',#1696);
#579=VERTEX_POINT('',#1697);
#580=VERTEX_POINT('',#1699);
#581=VERTEX_POINT('',#1701);
#582=VERTEX_POINT('',#1703);
#583=VERTEX_POINT('',#1705);
#584=VERTEX_POINT('',#1707);
#585=VERTEX_POINT('',#1709);
#586=VERTEX_POINT('',#1713);
#587=VERTEX_POINT('',#1715);
#588=VERTEX_POINT('',#1717);
#589=VERTEX_POINT('',#1719);
#590=VERTEX_POINT('',#1721);
#591=VERTEX_POINT('',#1723);
#592=VERTEX_POINT('',#1725);
#593=VERTEX_POINT('',#1727);
#594=VERTEX_POINT('',#1729);
#595=VERTEX_POINT('',#1731);
#596=VERTEX_POINT('',#1733);
#597=VERTEX_POINT('',#1735);
#598=VERTEX_POINT('',#1737);
#599=VERTEX_POINT('',#1739);
#600=VERTEX_POINT('',#1741);
#601=VERTEX_POINT('',#1743);
#602=VERTEX_POINT('',#1745);
#603=VERTEX_POINT('',#1747);
#604=VERTEX_POINT('',#1749);
#605=VERTEX_POINT('',#1751);
#606=VERTEX_POINT('',#1753);
#607=VERTEX_POINT('',#1755);
#608=VERTEX_POINT('',#1757);
#609=VERTEX_POINT('',#1760);
#610=VERTEX_POINT('',#1763);
#611=VERTEX_POINT('',#1764);
#612=VERTEX_POINT('',#1766);
#613=VERTEX_POINT('',#1768);
#614=VERTEX_POINT('',#1770);
#615=VERTEX_POINT('',#1772);
#616=VERTEX_POINT('',#1774);
#617=VERTEX_POINT('',#1776);
#618=VERTEX_POINT('',#1779);
#619=VERTEX_POINT('',#1781);
#620=VERTEX_POINT('',#1783);
#621=VERTEX_POINT('',#1785);
#622=VERTEX_POINT('',#1788);
#623=VERTEX_POINT('',#1791);
#624=VERTEX_POINT('',#1794);
#625=VERTEX_POINT('',#1797);
#626=VERTEX_POINT('',#1800);
#627=VERTEX_POINT('',#1802);
#628=VERTEX_POINT('',#1806);
#629=VERTEX_POINT('',#1807);
#630=VERTEX_POINT('',#1810);
#631=VERTEX_POINT('',#1812);
#632=VERTEX_POINT('',#1817);
#633=VERTEX_POINT('',#1819);
#634=VERTEX_POINT('',#1823);
#635=VERTEX_POINT('',#1825);
#636=VERTEX_POINT('',#1829);
#637=VERTEX_POINT('',#1833);
#638=VERTEX_POINT('',#1837);
#639=VERTEX_POINT('',#1841);
#640=VERTEX_POINT('',#1845);
#641=VERTEX_POINT('',#1849);
#642=VERTEX_POINT('',#1855);
#643=VERTEX_POINT('',#1857);
#644=VERTEX_POINT('',#1859);
#645=VERTEX_POINT('',#1861);
#646=VERTEX_POINT('',#1863);
#647=VERTEX_POINT('',#1864);
#648=VERTEX_POINT('',#1866);
#649=VERTEX_POINT('',#1868);
#650=VERTEX_POINT('',#1870);
#651=VERTEX_POINT('',#1872);
#652=VERTEX_POINT('',#1874);
#653=VERTEX_POINT('',#1876);
#654=VERTEX_POINT('',#1879);
#655=VERTEX_POINT('',#1880);
#656=VERTEX_POINT('',#1882);
#657=VERTEX_POINT('',#1884);
#658=VERTEX_POINT('',#1886);
#659=VERTEX_POINT('',#1888);
#660=VERTEX_POINT('',#1890);
#661=VERTEX_POINT('',#1892);
#662=VERTEX_POINT('',#1896);
#663=VERTEX_POINT('',#1897);
#664=VERTEX_POINT('',#1903);
#665=VERTEX_POINT('',#1904);
#666=VERTEX_POINT('',#1910);
#667=VERTEX_POINT('',#1911);
#668=VERTEX_POINT('',#1917);
#669=VERTEX_POINT('',#1918);
#670=VERTEX_POINT('',#1956);
#671=VERTEX_POINT('',#1959);
#672=VERTEX_POINT('',#1962);
#673=VERTEX_POINT('',#1965);
#674=VERTEX_POINT('',#1968);
#675=VERTEX_POINT('',#1971);
#676=VERTEX_POINT('',#1974);
#677=VERTEX_POINT('',#1977);
#678=VERTEX_POINT('',#1980);
#679=VERTEX_POINT('',#1987);
#680=VERTEX_POINT('',#1994);
#681=VERTEX_POINT('',#2001);
#682=VERTEX_POINT('',#2008);
#683=VERTEX_POINT('',#2012);
#684=VERTEX_POINT('',#2019);
#685=VERTEX_POINT('',#2023);
#686=LINE('',#1695,#790);
#687=LINE('',#1698,#791);
#688=LINE('',#1700,#792);
#689=LINE('',#1702,#793);
#690=LINE('',#1704,#794);
#691=LINE('',#1706,#795);
#692=LINE('',#1708,#796);
#693=LINE('',#1710,#797);
#694=LINE('',#1712,#798);
#695=LINE('',#1716,#799);
#696=LINE('',#1718,#800);
#697=LINE('',#1722,#801);
#698=LINE('',#1726,#802);
#699=LINE('',#1728,#803);
#700=LINE('',#1732,#804);
#701=LINE('',#1734,#805);
#702=LINE('',#1738,#806);
#703=LINE('',#1740,#807);
#704=LINE('',#1744,#808);
#705=LINE('',#1746,#809);
#706=LINE('',#1750,#810);
#707=LINE('',#1754,#811);
#708=LINE('',#1756,#812);
#709=LINE('',#1759,#813);
#710=LINE('',#1762,#814);
#711=LINE('',#1767,#815);
#712=LINE('',#1771,#816);
#713=LINE('',#1775,#817);
#714=LINE('',#1799,#818);
#715=LINE('',#1801,#819);
#716=LINE('',#1803,#820);
#717=LINE('',#1805,#821);
#718=LINE('',#1808,#822);
#719=LINE('',#1809,#823);
#720=LINE('',#1811,#824);
#721=LINE('',#1813,#825);
#722=LINE('',#1814,#826);
#723=LINE('',#1816,#827);
#724=LINE('',#1818,#828);
#725=LINE('',#1820,#829);
#726=LINE('',#1822,#830);
#727=LINE('',#1824,#831);
#728=LINE('',#1826,#832);
#729=LINE('',#1828,#833);
#730=LINE('',#1832,#834);
#731=LINE('',#1834,#835);
#732=LINE('',#1836,#836);
#733=LINE('',#1840,#837);
#734=LINE('',#1842,#838);
#735=LINE('',#1844,#839);
#736=LINE('',#1848,#840);
#737=LINE('',#1850,#841);
#738=LINE('',#1865,#842);
#739=LINE('',#1869,#843);
#740=LINE('',#1873,#844);
#741=LINE('',#1877,#845);
#742=LINE('',#1881,#846);
#743=LINE('',#1885,#847);
#744=LINE('',#1889,#848);
#745=LINE('',#1893,#849);
#746=LINE('',#1898,#850);
#747=LINE('',#1900,#851);
#748=LINE('',#1905,#852);
#749=LINE('',#1907,#853);
#750=LINE('',#1912,#854);
#751=LINE('',#1914,#855);
#752=LINE('',#1919,#856);
#753=LINE('',#1921,#857);
#754=LINE('',#1923,#858);
#755=LINE('',#1924,#859);
#756=LINE('',#1926,#860);
#757=LINE('',#1928,#861);
#758=LINE('',#1930,#862);
#759=LINE('',#1932,#863);
#760=LINE('',#1934,#864);
#761=LINE('',#1936,#865);
#762=LINE('',#1939,#866);
#763=LINE('',#1940,#867);
#764=LINE('',#1942,#868);
#765=LINE('',#1944,#869);
#766=LINE('',#1946,#870);
#767=LINE('',#1948,#871);
#768=LINE('',#1950,#872);
#769=LINE('',#1952,#873);
#770=LINE('',#1979,#874);
#771=LINE('',#1981,#875);
#772=LINE('',#1983,#876);
#773=LINE('',#1986,#877);
#774=LINE('',#1988,#878);
#775=LINE('',#1990,#879);
#776=LINE('',#1993,#880);
#777=LINE('',#1995,#881);
#778=LINE('',#1997,#882);
#779=LINE('',#2000,#883);
#780=LINE('',#2002,#884);
#781=LINE('',#2004,#885);
#782=LINE('',#2007,#886);
#783=LINE('',#2009,#887);
#784=LINE('',#2011,#888);
#785=LINE('',#2015,#889);
#786=LINE('',#2018,#890);
#787=LINE('',#2020,#891);
#788=LINE('',#2022,#892);
#789=LINE('',#2024,#893);
#790=VECTOR('',#1339,1.);
#791=VECTOR('',#1340,1.);
#792=VECTOR('',#1341,1.);
#793=VECTOR('',#1342,1.);
#794=VECTOR('',#1343,1.);
#795=VECTOR('',#1344,1.);
#796=VECTOR('',#1345,1.);
#797=VECTOR('',#1346,1.);
#798=VECTOR('',#1349,1.);
#799=VECTOR('',#1352,1.);
#800=VECTOR('',#1353,1.);
#801=VECTOR('',#1356,1.);
#802=VECTOR('',#1359,1.);
#803=VECTOR('',#1360,1.);
#804=VECTOR('',#1363,1.);
#805=VECTOR('',#1364,1.);
#806=VECTOR('',#1367,1.);
#807=VECTOR('',#1368,1.);
#808=VECTOR('',#1371,1.);
#809=VECTOR('',#1372,1.);
#810=VECTOR('',#1375,1.);
#811=VECTOR('',#1378,1.);
#812=VECTOR('',#1379,1.);
#813=VECTOR('',#1382,1.);
#814=VECTOR('',#1385,1.);
#815=VECTOR('',#1388,1.);
#816=VECTOR('',#1391,1.);
#817=VECTOR('',#1394,1.);
#818=VECTOR('',#1423,1.);
#819=VECTOR('',#1424,1.);
#820=VECTOR('',#1425,1.);
#821=VECTOR('',#1428,1.);
#822=VECTOR('',#1429,1.);
#823=VECTOR('',#1430,1.);
#824=VECTOR('',#1431,1.);
#825=VECTOR('',#1432,1.);
#826=VECTOR('',#1433,1.);
#827=VECTOR('',#1436,1.);
#828=VECTOR('',#1437,1.);
#829=VECTOR('',#1438,1.);
#830=VECTOR('',#1441,1.);
#831=VECTOR('',#1442,1.);
#832=VECTOR('',#1443,1.);
#833=VECTOR('',#1446,1.);
#834=VECTOR('',#1451,1.);
#835=VECTOR('',#1452,1.);
#836=VECTOR('',#1455,1.);
#837=VECTOR('',#1460,1.);
#838=VECTOR('',#1461,1.);
#839=VECTOR('',#1464,1.);
#840=VECTOR('',#1469,1.);
#841=VECTOR('',#1470,1.);
#842=VECTOR('',#1487,1.);
#843=VECTOR('',#1490,1.);
#844=VECTOR('',#1493,1.);
#845=VECTOR('',#1496,1.);
#846=VECTOR('',#1499,1.);
#847=VECTOR('',#1502,1.);
#848=VECTOR('',#1505,1.);
#849=VECTOR('',#1508,1.);
#850=VECTOR('',#1513,1.);
#851=VECTOR('',#1516,1.);
#852=VECTOR('',#1521,1.);
#853=VECTOR('',#1524,1.);
#854=VECTOR('',#1529,1.);
#855=VECTOR('',#1532,1.);
#856=VECTOR('',#1537,1.);
#857=VECTOR('',#1540,1.);
#858=VECTOR('',#1543,1.);
#859=VECTOR('',#1544,1.);
#860=VECTOR('',#1547,1.);
#861=VECTOR('',#1550,1.);
#862=VECTOR('',#1553,1.);
#863=VECTOR('',#1556,1.);
#864=VECTOR('',#1559,1.);
#865=VECTOR('',#1562,1.);
#866=VECTOR('',#1567,1.);
#867=VECTOR('',#1568,1.);
#868=VECTOR('',#1571,1.);
#869=VECTOR('',#1574,1.);
#870=VECTOR('',#1577,1.);
#871=VECTOR('',#1580,1.);
#872=VECTOR('',#1583,1.);
#873=VECTOR('',#1586,1.);
#874=VECTOR('',#1623,1.);
#875=VECTOR('',#1624,1.);
#876=VECTOR('',#1627,1.);
#877=VECTOR('',#1632,1.);
#878=VECTOR('',#1633,1.);
#879=VECTOR('',#1636,1.);
#880=VECTOR('',#1641,1.);
#881=VECTOR('',#1642,1.);
#882=VECTOR('',#1645,1.);
#883=VECTOR('',#1650,1.);
#884=VECTOR('',#1651,1.);
#885=VECTOR('',#1654,1.);
#886=VECTOR('',#1659,1.);
#887=VECTOR('',#1660,1.);
#888=VECTOR('',#1663,1.);
#889=VECTOR('',#1668,1.);
#890=VECTOR('',#1673,1.);
#891=VECTOR('',#1674,1.);
#892=VECTOR('',#1677,1.);
#893=VECTOR('',#1678,1.);
#894=EDGE_LOOP('',(#98,#99,#100,#101,#102,#103,#104,#105));
#895=EDGE_LOOP('',(#106,#107,#108,#109,#110,#111,#112,#113,#114,#115,#116,#117,#118,#119,#120,#121,#122,#123,#124,#125,#126,#127,#128,#129,#130,#131,#132,#133));
#896=EDGE_LOOP('',(#134,#135,#136,#137,#138,#139,#140,#141));
#897=EDGE_LOOP('',(#142));
#898=EDGE_LOOP('',(#143));
#899=EDGE_LOOP('',(#144));
#900=EDGE_LOOP('',(#145));
#901=EDGE_LOOP('',(#146));
#902=EDGE_LOOP('',(#147));
#903=EDGE_LOOP('',(#148));
#904=EDGE_LOOP('',(#149));
#905=EDGE_LOOP('',(#150));
#906=EDGE_LOOP('',(#151));
#907=EDGE_LOOP('',(#152));
#908=EDGE_LOOP('',(#153));
#909=EDGE_LOOP('',(#154,#155,#156,#157));
#910=EDGE_LOOP('',(#158,#159,#160,#161,#162,#163,#164,#165));
#911=EDGE_LOOP('',(#166,#167,#168,#169));
#912=EDGE_LOOP('',(#170,#171,#172,#173));
#913=EDGE_LOOP('',(#174,#175,#176,#177));
#914=EDGE_LOOP('',(#178,#179,#180,#181));
#915=EDGE_LOOP('',(#182,#183,#184,#185));
#916=EDGE_LOOP('',(#186,#187,#188,#189));
#917=EDGE_LOOP('',(#190,#191,#192,#193));
#918=EDGE_LOOP('',(#194,#195,#196,#197));
#919=EDGE_LOOP('',(#198,#199,#200,#201));
#920=EDGE_LOOP('',(#202));
#921=EDGE_LOOP('',(#203));
#922=EDGE_LOOP('',(#204));
#923=EDGE_LOOP('',(#205));
#924=EDGE_LOOP('',(#206,#207,#208,#209,#210,#211,#212,#213));
#925=EDGE_LOOP('',(#214,#215,#216,#217,#218,#219,#220,#221));
#926=EDGE_LOOP('',(#222,#223,#224,#225,#226,#227,#228,#229));
#927=EDGE_LOOP('',(#230,#231,#232,#233,#234,#235,#236,#237));
#928=EDGE_LOOP('',(#238,#239,#240,#241,#242,#243,#244,#245));
#929=EDGE_LOOP('',(#246,#247,#248,#249,#250,#251,#252,#253));
#930=EDGE_LOOP('',(#254,#255,#256,#257));
#931=EDGE_LOOP('',(#258,#259,#260,#261));
#932=EDGE_LOOP('',(#262,#263,#264,#265));
#933=EDGE_LOOP('',(#266,#267,#268,#269));
#934=EDGE_LOOP('',(#270,#271,#272,#273));
#935=EDGE_LOOP('',(#274,#275,#276,#277));
#936=EDGE_LOOP('',(#278,#279,#280,#281));
#937=EDGE_LOOP('',(#282,#283,#284,#285));
#938=EDGE_LOOP('',(#286,#287,#288,#289));
#939=EDGE_LOOP('',(#290,#291,#292,#293));
#940=EDGE_LOOP('',(#294,#295,#296,#297));
#941=EDGE_LOOP('',(#298,#299,#300,#301));
#942=EDGE_LOOP('',(#302,#303,#304,#305));
#943=EDGE_LOOP('',(#306,#307,#308,#309));
#944=EDGE_LOOP('',(#310,#311,#312,#313));
#945=EDGE_LOOP('',(#314,#315,#316,#317));
#946=EDGE_LOOP('',(#318));
#947=EDGE_LOOP('',(#319));
#948=EDGE_LOOP('',(#320));
#949=EDGE_LOOP('',(#321));
#950=EDGE_LOOP('',(#322));
#951=EDGE_LOOP('',(#323));
#952=EDGE_LOOP('',(#324));
#953=EDGE_LOOP('',(#325));
#954=EDGE_LOOP('',(#326));
#955=EDGE_LOOP('',(#327));
#956=EDGE_LOOP('',(#328));
#957=EDGE_LOOP('',(#329));
#958=EDGE_LOOP('',(#330));
#959=EDGE_LOOP('',(#331));
#960=EDGE_LOOP('',(#332));
#961=EDGE_LOOP('',(#333));
#962=EDGE_LOOP('',(#334,#335,#336,#337));
#963=EDGE_LOOP('',(#338,#339,#340,#341));
#964=EDGE_LOOP('',(#342,#343,#344));
#965=EDGE_LOOP('',(#345,#346,#347,#348));
#966=EDGE_LOOP('',(#349,#350,#351,#352));
#967=EDGE_LOOP('',(#353,#354,#355));
#968=EDGE_LOOP('',(#356,#357,#358,#359));
#969=EDGE_LOOP('',(#360,#361,#362,#363));
#970=EDGE_LOOP('',(#364,#365,#366));
#971=EDGE_LOOP('',(#367,#368,#369,#370));
#972=EDGE_LOOP('',(#371,#372,#373,#374));
#973=EDGE_LOOP('',(#375,#376,#377));
#974=EDGE_LOOP('',(#378,#379,#380,#381));
#975=EDGE_LOOP('',(#382,#383,#384,#385));
#976=EDGE_LOOP('',(#386,#387,#388,#389));
#977=EDGE_LOOP('',(#390,#391,#392,#393));
#978=EDGE_LOOP('',(#394,#395,#396,#397));
#979=EDGE_LOOP('',(#398,#399,#400,#401));
#980=EDGE_LOOP('',(#402,#403,#404,#405));
#981=EDGE_LOOP('',(#406,#407,#408,#409));
#982=EDGE_LOOP('',(#410));
#983=EDGE_LOOP('',(#411));
#984=EDGE_LOOP('',(#412));
#985=EDGE_LOOP('',(#413));
#986=EDGE_LOOP('',(#414));
#987=EDGE_LOOP('',(#415));
#988=EDGE_LOOP('',(#416));
#989=EDGE_LOOP('',(#417));
#990=FACE_BOUND('',#894,.T.);
#991=FACE_BOUND('',#895,.T.);
#992=FACE_BOUND('',#896,.T.);
#993=FACE_BOUND('',#897,.T.);
#994=FACE_BOUND('',#898,.T.);
#995=FACE_BOUND('',#899,.T.);
#996=FACE_BOUND('',#900,.T.);
#997=FACE_BOUND('',#901,.T.);
#998=FACE_BOUND('',#902,.T.);
#999=FACE_BOUND('',#903,.T.);
#1000=FACE_BOUND('',#904,.T.);
#1001=FACE_BOUND('',#905,.T.);
#1002=FACE_BOUND('',#906,.T.);
#1003=FACE_BOUND('',#907,.T.);
#1004=FACE_BOUND('',#908,.T.);
#1005=FACE_BOUND('',#909,.T.);
#1006=FACE_BOUND('',#910,.T.);
#1007=FACE_BOUND('',#911,.T.);
#1008=FACE_BOUND('',#912,.T.);
#1009=FACE_BOUND('',#913,.T.);
#1010=FACE_BOUND('',#914,.T.);
#1011=FACE_BOUND('',#915,.T.);
#1012=FACE_BOUND('',#916,.T.);
#1013=FACE_BOUND('',#917,.T.);
#1014=FACE_BOUND('',#918,.T.);
#1015=FACE_BOUND('',#919,.T.);
#1016=FACE_BOUND('',#920,.T.);
#1017=FACE_BOUND('',#921,.T.);
#1018=FACE_BOUND('',#922,.T.);
#1019=FACE_BOUND('',#923,.T.);
#1020=FACE_BOUND('',#924,.T.);
#1021=FACE_BOUND('',#925,.T.);
#1022=FACE_BOUND('',#926,.T.);
#1023=FACE_BOUND('',#927,.T.);
#1024=FACE_BOUND('',#928,.T.);
#1025=FACE_BOUND('',#929,.T.);
#1026=FACE_BOUND('',#930,.T.);
#1027=FACE_BOUND('',#931,.T.);
#1028=FACE_BOUND('',#932,.T.);
#1029=FACE_BOUND('',#933,.T.);
#1030=FACE_BOUND('',#934,.T.);
#1031=FACE_BOUND('',#935,.T.);
#1032=FACE_BOUND('',#936,.T.);
#1033=FACE_BOUND('',#937,.T.);
#1034=FACE_BOUND('',#938,.T.);
#1035=FACE_BOUND('',#939,.T.);
#1036=FACE_BOUND('',#940,.T.);
#1037=FACE_BOUND('',#941,.T.);
#1038=FACE_BOUND('',#942,.T.);
#1039=FACE_BOUND('',#943,.T.);
#1040=FACE_BOUND('',#944,.T.);
#1041=FACE_BOUND('',#945,.T.);
#1042=FACE_BOUND('',#946,.T.);
#1043=FACE_BOUND('',#947,.T.);
#1044=FACE_BOUND('',#948,.T.);
#1045=FACE_BOUND('',#949,.T.);
#1046=FACE_BOUND('',#950,.T.);
#1047=FACE_BOUND('',#951,.T.);
#1048=FACE_BOUND('',#952,.T.);
#1049=FACE_BOUND('',#953,.T.);
#1050=FACE_BOUND('',#954,.T.);
#1051=FACE_BOUND('',#955,.T.);
#1052=FACE_BOUND('',#956,.T.);
#1053=FACE_BOUND('',#957,.T.);
#1054=FACE_BOUND('',#958,.T.);
#1055=FACE_BOUND('',#959,.T.);
#1056=FACE_BOUND('',#960,.T.);
#1057=FACE_BOUND('',#961,.T.);
#1058=FACE_BOUND('',#962,.T.);
#1059=FACE_BOUND('',#963,.T.);
#1060=FACE_BOUND('',#964,.T.);
#1061=FACE_BOUND('',#965,.T.);
#1062=FACE_BOUND('',#966,.T.);
#1063=FACE_BOUND('',#967,.T.);
#1064=FACE_BOUND('',#968,.T.);
#1065=FACE_BOUND('',#969,.T.);
#1066=FACE_BOUND('',#970,.T.);
#1067=FACE_BOUND('',#971,.T.);
#1068=FACE_BOUND('',#972,.T.);
#1069=FACE_BOUND('',#973,.T.);
#1070=FACE_BOUND('',#974,.T.);
#1071=FACE_BOUND('',#975,.T.);
#1072=FACE_BOUND('',#976,.T.);
#1073=FACE_BOUND('',#977,.T.);
#1074=FACE_BOUND('',#978,.T.);
#1075=FACE_BOUND('',#979,.T.);
#1076=FACE_BOUND('',#980,.T.);
#1077=FACE_BOUND('',#981,.T.);
#1078=FACE_BOUND('',#982,.T.);
#1079=FACE_BOUND('',#983,.T.);
#1080=FACE_BOUND('',#984,.T.);
#1081=FACE_BOUND('',#985,.T.);
#1082=FACE_BOUND('',#986,.T.);
#1083=FACE_BOUND('',#987,.T.);
#1084=FACE_BOUND('',#988,.T.);
#1085=FACE_BOUND('',#989,.T.);
#1086=PLANE('',#1209);
#1087=PLANE('',#1210);
#1088=PLANE('',#1237);
#1089=PLANE('',#1238);
#1090=PLANE('',#1239);
#1091=PLANE('',#1240);
#1092=PLANE('',#1243);
#1093=PLANE('',#1246);
#1094=PLANE('',#1249);
#1095=PLANE('',#1252);
#1096=PLANE('',#1277);
#1097=PLANE('',#1280);
#1098=PLANE('',#1281);
#1099=PLANE('',#1284);
#1100=PLANE('',#1285);
#1101=PLANE('',#1288);
#1102=PLANE('',#1289);
#1103=PLANE('',#1292);
#1104=PLANE('',#1295);
#1105=PLANE('',#1299);
#1106=PLANE('',#1303);
#1107=PLANE('',#1307);
#1108=PLANE('',#1309);
#1109=PLANE('',#1310);
#1110=PLANE('',#1311);
#1111=PLANE('',#1312);
#1112=PLANE('',#1313);
#1113=PLANE('',#1314);
#1114=PLANE('',#1315);
#1115=PLANE('',#1316);
#1116=PLANE('',#1317);
#1117=PLANE('',#1318);
#1118=PLANE('',#1319);
#1119=PLANE('',#1320);
#1120=PLANE('',#1321);
#1121=PLANE('',#1324);
#1122=PLANE('',#1325);
#1123=PLANE('',#1326);
#1124=PLANE('',#1327);
#1125=PLANE('',#1330);
#1126=ADVANCED_FACE('',(#990),#1086,.T.);
#1127=ADVANCED_FACE('',(#991,#992,#993,#994,#995,#996),#1087,.F.);
#1128=ADVANCED_FACE('',(#997,#998),#24,.F.);
#1129=ADVANCED_FACE('',(#999,#1000),#25,.F.);
#1130=ADVANCED_FACE('',(#1001,#1002),#26,.F.);
#1131=ADVANCED_FACE('',(#1003,#1004),#27,.F.);
#1132=ADVANCED_FACE('',(#1005),#1088,.T.);
#1133=ADVANCED_FACE('',(#1006),#1089,.F.);
#1134=ADVANCED_FACE('',(#1007),#1090,.F.);
#1135=ADVANCED_FACE('',(#1008),#1091,.F.);
#1136=ADVANCED_FACE('',(#1009),#28,.T.);
#1137=ADVANCED_FACE('',(#1010),#1092,.F.);
#1138=ADVANCED_FACE('',(#1011),#29,.T.);
#1139=ADVANCED_FACE('',(#1012),#1093,.F.);
#1140=ADVANCED_FACE('',(#1013),#30,.T.);
#1141=ADVANCED_FACE('',(#1014),#1094,.F.);
#1142=ADVANCED_FACE('',(#1015),#31,.T.);
#1143=ADVANCED_FACE('',(#1016,#1017,#1018,#1019,#1020,#1021),#1095,.T.);
#1144=ADVANCED_FACE('',(#1022),#32,.F.);
#1145=ADVANCED_FACE('',(#1023),#33,.F.);
#1146=ADVANCED_FACE('',(#1024),#34,.F.);
#1147=ADVANCED_FACE('',(#1025),#35,.F.);
#1148=ADVANCED_FACE('',(#1026),#1096,.T.);
#1149=ADVANCED_FACE('',(#1027),#12,.F.);
#1150=ADVANCED_FACE('',(#1028),#13,.F.);
#1151=ADVANCED_FACE('',(#1029),#1097,.F.);
#1152=ADVANCED_FACE('',(#1030),#1098,.T.);
#1153=ADVANCED_FACE('',(#1031),#14,.F.);
#1154=ADVANCED_FACE('',(#1032),#15,.F.);
#1155=ADVANCED_FACE('',(#1033),#1099,.F.);
#1156=ADVANCED_FACE('',(#1034),#1100,.T.);
#1157=ADVANCED_FACE('',(#1035),#16,.T.);
#1158=ADVANCED_FACE('',(#1036),#17,.T.);
#1159=ADVANCED_FACE('',(#1037),#1101,.T.);
#1160=ADVANCED_FACE('',(#1038),#1102,.T.);
#1161=ADVANCED_FACE('',(#1039),#18,.T.);
#1162=ADVANCED_FACE('',(#1040),#19,.T.);
#1163=ADVANCED_FACE('',(#1041),#1103,.T.);
#1164=ADVANCED_FACE('',(#1042,#1043),#36,.F.);
#1165=ADVANCED_FACE('',(#1044,#1045),#1104,.T.);
#1166=ADVANCED_FACE('',(#1046,#1047),#37,.F.);
#1167=ADVANCED_FACE('',(#1048,#1049),#1105,.T.);
#1168=ADVANCED_FACE('',(#1050,#1051),#38,.F.);
#1169=ADVANCED_FACE('',(#1052,#1053),#1106,.T.);
#1170=ADVANCED_FACE('',(#1054,#1055),#39,.F.);
#1171=ADVANCED_FACE('',(#1056,#1057),#1107,.T.);
#1172=ADVANCED_FACE('',(#1058),#1108,.T.);
#1173=ADVANCED_FACE('',(#1059),#1109,.T.);
#1174=ADVANCED_FACE('',(#1060),#1110,.T.);
#1175=ADVANCED_FACE('',(#1061),#1111,.T.);
#1176=ADVANCED_FACE('',(#1062),#1112,.F.);
#1177=ADVANCED_FACE('',(#1063),#1113,.T.);
#1178=ADVANCED_FACE('',(#1064),#1114,.T.);
#1179=ADVANCED_FACE('',(#1065),#1115,.F.);
#1180=ADVANCED_FACE('',(#1066),#1116,.T.);
#1181=ADVANCED_FACE('',(#1067),#1117,.F.);
#1182=ADVANCED_FACE('',(#1068),#1118,.F.);
#1183=ADVANCED_FACE('',(#1069),#1119,.T.);
#1184=ADVANCED_FACE('',(#1070),#1120,.F.);
#1185=ADVANCED_FACE('',(#1071),#40,.F.);
#1186=ADVANCED_FACE('',(#1072),#1121,.F.);
#1187=ADVANCED_FACE('',(#1073),#1122,.T.);
#1188=ADVANCED_FACE('',(#1074),#1123,.T.);
#1189=ADVANCED_FACE('',(#1075),#1124,.T.);
#1190=ADVANCED_FACE('',(#1076),#41,.F.);
#1191=ADVANCED_FACE('',(#1077),#1125,.T.);
#1192=ADVANCED_FACE('',(#1078,#1079),#20,.F.);
#1193=ADVANCED_FACE('',(#1080,#1081),#21,.F.);
#1194=ADVANCED_FACE('',(#1082,#1083),#22,.F.);
#1195=ADVANCED_FACE('',(#1084,#1085),#23,.F.);
#1196=CLOSED_SHELL('',(#1126,#1127,#1128,#1129,#1130,#1131,#1132,#1133,#1134,#1135,#1136,#1137,#1138,#1139,#1140,#1141,#1142,#1143,#1144,#1145,#1146,#1147,#1148,#1149,#1150,#1151,#1152,#1153,#1154,#1155,#1156,#1157,#1158,#1159,#1160,#1161,#1162,#1163,#1164,#1165,#1166,#1167,#1168,#1169,#1170,#1171,#1172,#1173,#1174,#1175,#1176,#1177,#1178,#1179,#1180,#1181,#1182,#1183,#1184,#1185,#1186,#1187,#1188,#1189,#1190,#1191,#1192,#1193,#1194,#1195));
#1197=STYLED_ITEM('',(#1198),#1205);
#1198=PRESENTATION_STYLE_ASSIGNMENT((#1199));
#1199=SURFACE_STYLE_USAGE(.BOTH.,#1200);
#1200=SURFACE_SIDE_STYLE('',(#1201));
#1201=SURFACE_STYLE_FILL_AREA(#1202);
#1202=FILL_AREA_STYLE('',(#1203));
#1203=FILL_AREA_STYLE_COLOUR('',#1204);
#1204=COLOUR_RGB('',0.647058823529412,0.647058823529412,0.647058823529412);
#1205=MANIFOLD_SOLID_BREP('Cover',#1196);
#1206=SHAPE_DEFINITION_REPRESENTATION(#2038,#1207);
#1207=SHAPE_REPRESENTATION('Cover',(#1208),#2033);
#1208=AXIS2_PLACEMENT_3D('',#1693,#1335,#1336);
#1209=AXIS2_PLACEMENT_3D('',#1694,#1337,#1338);
#1210=AXIS2_PLACEMENT_3D('',#1711,#1347,#1348);
#1211=AXIS2_PLACEMENT_3D('',#1714,#1350,#1351);
#1212=AXIS2_PLACEMENT_3D('',#1720,#1354,#1355);
#1213=AXIS2_PLACEMENT_3D('',#1724,#1357,#1358);
#1214=AXIS2_PLACEMENT_3D('',#1730,#1361,#1362);
#1215=AXIS2_PLACEMENT_3D('',#1736,#1365,#1366);
#1216=AXIS2_PLACEMENT_3D('',#1742,#1369,#1370);
#1217=AXIS2_PLACEMENT_3D('',#1748,#1373,#1374);
#1218=AXIS2_PLACEMENT_3D('',#1752,#1376,#1377);
#1219=AXIS2_PLACEMENT_3D('',#1758,#1380,#1381);
#1220=AXIS2_PLACEMENT_3D('',#1761,#1383,#1384);
#1221=AXIS2_PLACEMENT_3D('',#1765,#1386,#1387);
#1222=AXIS2_PLACEMENT_3D('',#1769,#1389,#1390);
#1223=AXIS2_PLACEMENT_3D('',#1773,#1392,#1393);
#1224=AXIS2_PLACEMENT_3D('',#1777,#1395,#1396);
#1225=AXIS2_PLACEMENT_3D('',#1778,#1397,#1398);
#1226=AXIS2_PLACEMENT_3D('',#1780,#1399,#1400);
#1227=AXIS2_PLACEMENT_3D('',#1782,#1401,#1402);
#1228=AXIS2_PLACEMENT_3D('',#1784,#1403,#1404);
#1229=AXIS2_PLACEMENT_3D('',#1786,#1405,#1406);
#1230=AXIS2_PLACEMENT_3D('',#1787,#1407,#1408);
#1231=AXIS2_PLACEMENT_3D('',#1789,#1409,#1410);
#1232=AXIS2_PLACEMENT_3D('',#1790,#1411,#1412);
#1233=AXIS2_PLACEMENT_3D('',#1792,#1413,#1414);
#1234=AXIS2_PLACEMENT_3D('',#1793,#1415,#1416);
#1235=AXIS2_PLACEMENT_3D('',#1795,#1417,#1418);
#1236=AXIS2_PLACEMENT_3D('',#1796,#1419,#1420);
#1237=AXIS2_PLACEMENT_3D('',#1798,#1421,#1422);
#1238=AXIS2_PLACEMENT_3D('',#1804,#1426,#1427);
#1239=AXIS2_PLACEMENT_3D('',#1815,#1434,#1435);
#1240=AXIS2_PLACEMENT_3D('',#1821,#1439,#1440);
#1241=AXIS2_PLACEMENT_3D('',#1827,#1444,#1445);
#1242=AXIS2_PLACEMENT_3D('',#1830,#1447,#1448);
#1243=AXIS2_PLACEMENT_3D('',#1831,#1449,#1450);
#1244=AXIS2_PLACEMENT_3D('',#1835,#1453,#1454);
#1245=AXIS2_PLACEMENT_3D('',#1838,#1456,#1457);
#1246=AXIS2_PLACEMENT_3D('',#1839,#1458,#1459);
#1247=AXIS2_PLACEMENT_3D('',#1843,#1462,#1463);
#1248=AXIS2_PLACEMENT_3D('',#1846,#1465,#1466);
#1249=AXIS2_PLACEMENT_3D('',#1847,#1467,#1468);
#1250=AXIS2_PLACEMENT_3D('',#1851,#1471,#1472);
#1251=AXIS2_PLACEMENT_3D('',#1852,#1473,#1474);
#1252=AXIS2_PLACEMENT_3D('',#1853,#1475,#1476);
#1253=AXIS2_PLACEMENT_3D('',#1854,#1477,#1478);
#1254=AXIS2_PLACEMENT_3D('',#1856,#1479,#1480);
#1255=AXIS2_PLACEMENT_3D('',#1858,#1481,#1482);
#1256=AXIS2_PLACEMENT_3D('',#1860,#1483,#1484);
#1257=AXIS2_PLACEMENT_3D('',#1862,#1485,#1486);
#1258=AXIS2_PLACEMENT_3D('',#1867,#1488,#1489);
#1259=AXIS2_PLACEMENT_3D('',#1871,#1491,#1492);
#1260=AXIS2_PLACEMENT_3D('',#1875,#1494,#1495);
#1261=AXIS2_PLACEMENT_3D('',#1878,#1497,#1498);
#1262=AXIS2_PLACEMENT_3D('',#1883,#1500,#1501);
#1263=AXIS2_PLACEMENT_3D('',#1887,#1503,#1504);
#1264=AXIS2_PLACEMENT_3D('',#1891,#1506,#1507);
#1265=AXIS2_PLACEMENT_3D('',#1894,#1509,#1510);
#1266=AXIS2_PLACEMENT_3D('',#1895,#1511,#1512);
#1267=AXIS2_PLACEMENT_3D('',#1899,#1514,#1515);
#1268=AXIS2_PLACEMENT_3D('',#1901,#1517,#1518);
#1269=AXIS2_PLACEMENT_3D('',#1902,#1519,#1520);
#1270=AXIS2_PLACEMENT_3D('',#1906,#1522,#1523);
#1271=AXIS2_PLACEMENT_3D('',#1908,#1525,#1526);
#1272=AXIS2_PLACEMENT_3D('',#1909,#1527,#1528);
#1273=AXIS2_PLACEMENT_3D('',#1913,#1530,#1531);
#1274=AXIS2_PLACEMENT_3D('',#1915,#1533,#1534);
#1275=AXIS2_PLACEMENT_3D('',#1916,#1535,#1536);
#1276=AXIS2_PLACEMENT_3D('',#1920,#1538,#1539);
#1277=AXIS2_PLACEMENT_3D('',#1922,#1541,#1542);
#1278=AXIS2_PLACEMENT_3D('',#1925,#1545,#1546);
#1279=AXIS2_PLACEMENT_3D('',#1927,#1548,#1549);
#1280=AXIS2_PLACEMENT_3D('',#1929,#1551,#1552);
#1281=AXIS2_PLACEMENT_3D('',#1931,#1554,#1555);
#1282=AXIS2_PLACEMENT_3D('',#1933,#1557,#1558);
#1283=AXIS2_PLACEMENT_3D('',#1935,#1560,#1561);
#1284=AXIS2_PLACEMENT_3D('',#1937,#1563,#1564);
#1285=AXIS2_PLACEMENT_3D('',#1938,#1565,#1566);
#1286=AXIS2_PLACEMENT_3D('',#1941,#1569,#1570);
#1287=AXIS2_PLACEMENT_3D('',#1943,#1572,#1573);
#1288=AXIS2_PLACEMENT_3D('',#1945,#1575,#1576);
#1289=AXIS2_PLACEMENT_3D('',#1947,#1578,#1579);
#1290=AXIS2_PLACEMENT_3D('',#1949,#1581,#1582);
#1291=AXIS2_PLACEMENT_3D('',#1951,#1584,#1585);
#1292=AXIS2_PLACEMENT_3D('',#1953,#1587,#1588);
#1293=AXIS2_PLACEMENT_3D('',#1954,#1589,#1590);
#1294=AXIS2_PLACEMENT_3D('',#1955,#1591,#1592);
#1295=AXIS2_PLACEMENT_3D('',#1957,#1593,#1594);
#1296=AXIS2_PLACEMENT_3D('',#1958,#1595,#1596);
#1297=AXIS2_PLACEMENT_3D('',#1960,#1597,#1598);
#1298=AXIS2_PLACEMENT_3D('',#1961,#1599,#1600);
#1299=AXIS2_PLACEMENT_3D('',#1963,#1601,#1602);
#1300=AXIS2_PLACEMENT_3D('',#1964,#1603,#1604);
#1301=AXIS2_PLACEMENT_3D('',#1966,#1605,#1606);
#1302=AXIS2_PLACEMENT_3D('',#1967,#1607,#1608);
#1303=AXIS2_PLACEMENT_3D('',#1969,#1609,#1610);
#1304=AXIS2_PLACEMENT_3D('',#1970,#1611,#1612);
#1305=AXIS2_PLACEMENT_3D('',#1972,#1613,#1614);
#1306=AXIS2_PLACEMENT_3D('',#1973,#1615,#1616);
#1307=AXIS2_PLACEMENT_3D('',#1975,#1617,#1618);
#1308=AXIS2_PLACEMENT_3D('',#1976,#1619,#1620);
#1309=AXIS2_PLACEMENT_3D('',#1978,#1621,#1622);
#1310=AXIS2_PLACEMENT_3D('',#1982,#1625,#1626);
#1311=AXIS2_PLACEMENT_3D('',#1984,#1628,#1629);
#1312=AXIS2_PLACEMENT_3D('',#1985,#1630,#1631);
#1313=AXIS2_PLACEMENT_3D('',#1989,#1634,#1635);
#1314=AXIS2_PLACEMENT_3D('',#1991,#1637,#1638);
#1315=AXIS2_PLACEMENT_3D('',#1992,#1639,#1640);
#1316=AXIS2_PLACEMENT_3D('',#1996,#1643,#1644);
#1317=AXIS2_PLACEMENT_3D('',#1998,#1646,#1647);
#1318=AXIS2_PLACEMENT_3D('',#1999,#1648,#1649);
#1319=AXIS2_PLACEMENT_3D('',#2003,#1652,#1653);
#1320=AXIS2_PLACEMENT_3D('',#2005,#1655,#1656);
#1321=AXIS2_PLACEMENT_3D('',#2006,#1657,#1658);
#1322=AXIS2_PLACEMENT_3D('',#2010,#1661,#1662);
#1323=AXIS2_PLACEMENT_3D('',#2013,#1664,#1665);
#1324=AXIS2_PLACEMENT_3D('',#2014,#1666,#1667);
#1325=AXIS2_PLACEMENT_3D('',#2016,#1669,#1670);
#1326=AXIS2_PLACEMENT_3D('',#2017,#1671,#1672);
#1327=AXIS2_PLACEMENT_3D('',#2021,#1675,#1676);
#1328=AXIS2_PLACEMENT_3D('',#2025,#1679,#1680);
#1329=AXIS2_PLACEMENT_3D('',#2026,#1681,#1682);
#1330=AXIS2_PLACEMENT_3D('',#2027,#1683,#1684);
#1331=AXIS2_PLACEMENT_3D('',#2028,#1685,#1686);
#1332=AXIS2_PLACEMENT_3D('',#2029,#1687,#1688);
#1333=AXIS2_PLACEMENT_3D('',#2030,#1689,#1690);
#1334=AXIS2_PLACEMENT_3D('',#2031,#1691,#1692);
#1335=DIRECTION('',(0.,0.,1.));
#1336=DIRECTION('',(1.,0.,0.));
#1337=DIRECTION('',(1.,-5.99089472294795E-17,0.));
#1338=DIRECTION('',(5.99089472294795E-17,1.,0.));
#1339=DIRECTION('',(-5.99089472294795E-17,-1.,0.));
#1340=DIRECTION('',(0.,0.,-1.));
#1341=DIRECTION('',(-5.99089472294795E-17,-1.,0.));
#1342=DIRECTION('',(0.,0.,-1.));
#1343=DIRECTION('',(-5.99089472294795E-17,-1.,0.));
#1344=DIRECTION('',(0.,0.,-1.));
#1345=DIRECTION('',(-5.99089472294795E-17,-1.,0.));
#1346=DIRECTION('',(0.,0.,-1.));
#1347=DIRECTION('',(0.,0.,1.));
#1348=DIRECTION('',(1.,0.,0.));
#1349=DIRECTION('',(-1.,1.81638829365975E-16,0.));
#1350=DIRECTION('',(0.,0.,1.));
#1351=DIRECTION('',(1.,0.,0.));
#1352=DIRECTION('',(-1.92927118196628E-16,1.,0.));
#1353=DIRECTION('',(-1.,0.,0.));
#1354=DIRECTION('',(0.,0.,1.));
#1355=DIRECTION('',(1.,0.,0.));
#1356=DIRECTION('',(-1.,0.,0.));
#1357=DIRECTION('',(0.,0.,1.));
#1358=DIRECTION('',(1.,0.,0.));
#1359=DIRECTION('',(-1.,0.,0.));
#1360=DIRECTION('',(-1.92927118196629E-16,1.,0.));
#1361=DIRECTION('',(0.,0.,1.));
#1362=DIRECTION('',(1.,0.,0.));
#1363=DIRECTION('',(-5.99089472294795E-17,-1.,0.));
#1364=DIRECTION('',(1.,-1.81638829365975E-16,0.));
#1365=DIRECTION('',(0.,0.,-1.));
#1366=DIRECTION('',(-1.,0.,0.));
#1367=DIRECTION('',(-1.,0.,0.));
#1368=DIRECTION('',(-5.99089472294795E-17,-1.,0.));
#1369=DIRECTION('',(0.,0.,1.));
#1370=DIRECTION('',(1.,0.,0.));
#1371=DIRECTION('',(0.,1.,0.));
#1372=DIRECTION('',(-1.,0.,0.));
#1373=DIRECTION('',(0.,0.,1.));
#1374=DIRECTION('',(1.,0.,0.));
#1375=DIRECTION('',(-1.,0.,0.));
#1376=DIRECTION('',(0.,0.,1.));
#1377=DIRECTION('',(1.,0.,0.));
#1378=DIRECTION('',(-1.,0.,0.));
#1379=DIRECTION('',(0.,1.,0.));
#1380=DIRECTION('',(0.,0.,1.));
#1381=DIRECTION('',(1.,0.,0.));
#1382=DIRECTION('',(1.,-3.6327765873195E-16,0.));
#1383=DIRECTION('',(0.,0.,1.));
#1384=DIRECTION('',(-1.,0.,0.));
#1385=DIRECTION('',(0.,-1.,0.));
#1386=DIRECTION('',(0.,0.,1.));
#1387=DIRECTION('',(1.,0.,0.));
#1388=DIRECTION('',(-1.,0.,0.));
#1389=DIRECTION('',(0.,0.,1.));
#1390=DIRECTION('',(1.,0.,0.));
#1391=DIRECTION('',(0.,1.,0.));
#1392=DIRECTION('',(0.,0.,1.));
#1393=DIRECTION('',(1.,0.,0.));
#1394=DIRECTION('',(1.,0.,0.));
#1395=DIRECTION('',(0.,0.,1.));
#1396=DIRECTION('',(1.,0.,0.));
#1397=DIRECTION('',(0.,0.,1.));
#1398=DIRECTION('',(1.,0.,0.));
#1399=DIRECTION('',(0.,0.,1.));
#1400=DIRECTION('',(1.,0.,0.));
#1401=DIRECTION('',(0.,0.,1.));
#1402=DIRECTION('',(1.,0.,0.));
#1403=DIRECTION('',(0.,0.,1.));
#1404=DIRECTION('',(1.,0.,0.));
#1405=DIRECTION('',(0.,0.,-1.));
#1406=DIRECTION('',(-1.,0.,0.));
#1407=DIRECTION('',(0.,0.,1.));
#1408=DIRECTION('',(1.,0.,0.));
#1409=DIRECTION('',(0.,0.,-1.));
#1410=DIRECTION('',(-1.,0.,0.));
#1411=DIRECTION('',(0.,0.,1.));
#1412=DIRECTION('',(1.,0.,0.));
#1413=DIRECTION('',(0.,0.,-1.));
#1414=DIRECTION('',(-1.,0.,0.));
#1415=DIRECTION('',(0.,0.,1.));
#1416=DIRECTION('',(1.,0.,0.));
#1417=DIRECTION('',(0.,0.,-1.));
#1418=DIRECTION('',(-1.,0.,0.));
#1419=DIRECTION('',(0.,0.,1.));
#1420=DIRECTION('',(1.,0.,0.));
#1421=DIRECTION('',(0.,-1.,0.));
#1422=DIRECTION('',(0.,0.,-1.));
#1423=DIRECTION('',(0.,0.,-1.));
#1424=DIRECTION('',(-1.,0.,0.));
#1425=DIRECTION('',(0.,0.,-1.));
#1426=DIRECTION('',(1.,-5.99089472294795E-17,0.));
#1427=DIRECTION('',(5.99089472294795E-17,1.,0.));
#1428=DIRECTION('',(-5.99089472294795E-17,-1.,0.));
#1429=DIRECTION('',(0.,0.,-1.));
#1430=DIRECTION('',(0.,0.,-1.));
#1431=DIRECTION('',(5.99089472294795E-17,1.,0.));
#1432=DIRECTION('',(0.,0.,-1.));
#1433=DIRECTION('',(0.,0.,-1.));
#1434=DIRECTION('',(0.,-1.,0.));
#1435=DIRECTION('',(0.,0.,-1.));
#1436=DIRECTION('',(0.,0.,-1.));
#1437=DIRECTION('',(1.,0.,0.));
#1438=DIRECTION('',(0.,0.,-1.));
#1439=DIRECTION('',(1.,0.,0.));
#1440=DIRECTION('',(0.,0.,-1.));
#1441=DIRECTION('',(0.,0.,-1.));
#1442=DIRECTION('',(0.,1.,0.));
#1443=DIRECTION('',(0.,0.,-1.));
#1444=DIRECTION('',(0.,0.,-1.));
#1445=DIRECTION('',(-1.,0.,0.));
#1446=DIRECTION('',(0.,0.,-1.));
#1447=DIRECTION('',(0.,0.,1.));
#1448=DIRECTION('',(1.,0.,0.));
#1449=DIRECTION('',(0.,1.,0.));
#1450=DIRECTION('',(0.,0.,1.));
#1451=DIRECTION('',(0.,0.,-1.));
#1452=DIRECTION('',(-1.,0.,0.));
#1453=DIRECTION('',(0.,0.,-1.));
#1454=DIRECTION('',(-1.,0.,0.));
#1455=DIRECTION('',(0.,0.,-1.));
#1456=DIRECTION('',(0.,0.,1.));
#1457=DIRECTION('',(1.,0.,0.));
#1458=DIRECTION('',(-1.,0.,0.));
#1459=DIRECTION('',(0.,0.,1.));
#1460=DIRECTION('',(0.,0.,-1.));
#1461=DIRECTION('',(0.,-1.,0.));
#1462=DIRECTION('',(0.,0.,-1.));
#1463=DIRECTION('',(-1.,0.,0.));
#1464=DIRECTION('',(0.,0.,-1.));
#1465=DIRECTION('',(0.,0.,1.));
#1466=DIRECTION('',(1.,0.,0.));
#1467=DIRECTION('',(0.,-1.,0.));
#1468=DIRECTION('',(0.,0.,-1.));
#1469=DIRECTION('',(0.,0.,-1.));
#1470=DIRECTION('',(1.,0.,0.));
#1471=DIRECTION('',(0.,0.,-1.));
#1472=DIRECTION('',(-1.,0.,0.));
#1473=DIRECTION('',(0.,0.,1.));
#1474=DIRECTION('',(1.,0.,0.));
#1475=DIRECTION('',(0.,0.,1.));
#1476=DIRECTION('',(1.,0.,0.));
#1477=DIRECTION('',(0.,0.,1.));
#1478=DIRECTION('',(1.,0.,0.));
#1479=DIRECTION('',(0.,0.,1.));
#1480=DIRECTION('',(1.,0.,0.));
#1481=DIRECTION('',(0.,0.,1.));
#1482=DIRECTION('',(1.,0.,0.));
#1483=DIRECTION('',(0.,0.,1.));
#1484=DIRECTION('',(1.,0.,0.));
#1485=DIRECTION('',(0.,0.,1.));
#1486=DIRECTION('',(1.,0.,0.));
#1487=DIRECTION('',(5.99089472294795E-17,1.,0.));
#1488=DIRECTION('',(0.,0.,1.));
#1489=DIRECTION('',(1.,0.,0.));
#1490=DIRECTION('',(1.,0.,0.));
#1491=DIRECTION('',(0.,0.,1.));
#1492=DIRECTION('',(1.,0.,0.));
#1493=DIRECTION('',(-5.99089472294795E-17,-1.,0.));
#1494=DIRECTION('',(0.,0.,1.));
#1495=DIRECTION('',(1.,0.,0.));
#1496=DIRECTION('',(-1.,0.,0.));
#1497=DIRECTION('',(0.,0.,1.));
#1498=DIRECTION('',(1.,0.,0.));
#1499=DIRECTION('',(0.,-1.,0.));
#1500=DIRECTION('',(0.,0.,1.));
#1501=DIRECTION('',(1.,0.,0.));
#1502=DIRECTION('',(1.,0.,0.));
#1503=DIRECTION('',(0.,0.,1.));
#1504=DIRECTION('',(1.,0.,0.));
#1505=DIRECTION('',(0.,1.,0.));
#1506=DIRECTION('',(0.,0.,1.));
#1507=DIRECTION('',(1.,0.,0.));
#1508=DIRECTION('',(-1.,0.,0.));
#1509=DIRECTION('',(0.,0.,-1.));
#1510=DIRECTION('',(-1.,0.,0.));
#1511=DIRECTION('',(0.,0.,1.));
#1512=DIRECTION('',(1.,0.,0.));
#1513=DIRECTION('',(0.,0.,-1.));
#1514=DIRECTION('',(0.,0.,1.));
#1515=DIRECTION('',(1.,0.,0.));
#1516=DIRECTION('',(0.,0.,-1.));
#1517=DIRECTION('',(0.,0.,1.));
#1518=DIRECTION('',(1.,0.,0.));
#1519=DIRECTION('',(0.,0.,1.));
#1520=DIRECTION('',(1.,0.,0.));
#1521=DIRECTION('',(0.,0.,-1.));
#1522=DIRECTION('',(0.,0.,1.));
#1523=DIRECTION('',(1.,0.,0.));
#1524=DIRECTION('',(0.,0.,-1.));
#1525=DIRECTION('',(0.,0.,1.));
#1526=DIRECTION('',(1.,0.,0.));
#1527=DIRECTION('',(0.,0.,1.));
#1528=DIRECTION('',(1.,0.,0.));
#1529=DIRECTION('',(0.,0.,-1.));
#1530=DIRECTION('',(0.,0.,1.));
#1531=DIRECTION('',(1.,0.,0.));
#1532=DIRECTION('',(0.,0.,-1.));
#1533=DIRECTION('',(0.,0.,-1.));
#1534=DIRECTION('',(-1.,0.,0.));
#1535=DIRECTION('',(0.,0.,1.));
#1536=DIRECTION('',(1.,0.,0.));
#1537=DIRECTION('',(0.,0.,-1.));
#1538=DIRECTION('',(0.,0.,1.));
#1539=DIRECTION('',(1.,0.,0.));
#1540=DIRECTION('',(0.,0.,-1.));
#1541=DIRECTION('',(-0.707106781186548,4.2362022839712E-17,0.707106781186547));
#1542=DIRECTION('',(5.99089472294795E-17,1.,0.));
#1543=DIRECTION('',(-0.707106781186547,0.,-0.707106781186548));
#1544=DIRECTION('',(0.707106781186547,0.,0.707106781186548));
#1545=DIRECTION('',(0.,0.,1.));
#1546=DIRECTION('',(1.,0.,0.));
#1547=DIRECTION('',(0.,0.707106781186547,0.707106781186548));
#1548=DIRECTION('',(0.,0.,1.));
#1549=DIRECTION('',(1.,0.,0.));
#1550=DIRECTION('',(0.,0.707106781186547,-0.707106781186548));
#1551=DIRECTION('',(0.,0.707106781186548,-0.707106781186547));
#1552=DIRECTION('',(-1.,0.,0.));
#1553=DIRECTION('',(0.,0.707106781186547,0.707106781186548));
#1554=DIRECTION('',(0.,0.707106781186548,0.707106781186547));
#1555=DIRECTION('',(1.,0.,0.));
#1556=DIRECTION('',(0.,0.707106781186547,-0.707106781186548));
#1557=DIRECTION('',(0.,0.,1.));
#1558=DIRECTION('',(1.,0.,0.));
#1559=DIRECTION('',(-0.707106781186547,0.,0.707106781186548));
#1560=DIRECTION('',(0.,0.,1.));
#1561=DIRECTION('',(1.,0.,0.));
#1562=DIRECTION('',(0.707106781186547,0.,-0.707106781186548));
#1563=DIRECTION('',(-0.707106781186548,4.2362022839712E-17,-0.707106781186547));
#1564=DIRECTION('',(-5.99089472294795E-17,-1.,0.));
#1565=DIRECTION('',(0.707106781186548,0.,0.707106781186548));
#1566=DIRECTION('',(0.,-1.,0.));
#1567=DIRECTION('',(-0.707106781186548,0.,0.707106781186548));
#1568=DIRECTION('',(0.707106781186548,0.,-0.707106781186548));
#1569=DIRECTION('',(0.,0.,-1.));
#1570=DIRECTION('',(-1.,0.,0.));
#1571=DIRECTION('',(0.,0.707106781186548,-0.707106781186548));
#1572=DIRECTION('',(0.,0.,-1.));
#1573=DIRECTION('',(-1.,0.,0.));
#1574=DIRECTION('',(0.,0.707106781186548,0.707106781186548));
#1575=DIRECTION('',(0.,0.707106781186548,0.707106781186548));
#1576=DIRECTION('',(1.,0.,0.));
#1577=DIRECTION('',(0.,0.707106781186548,-0.707106781186548));
#1578=DIRECTION('',(0.,-0.707106781186548,0.707106781186548));
#1579=DIRECTION('',(-1.,0.,0.));
#1580=DIRECTION('',(0.,0.707106781186548,0.707106781186548));
#1581=DIRECTION('',(0.,0.,-1.));
#1582=DIRECTION('',(-1.,0.,0.));
#1583=DIRECTION('',(-0.707106781186548,0.,-0.707106781186548));
#1584=DIRECTION('',(0.,0.,-1.));
#1585=DIRECTION('',(-1.,0.,0.));
#1586=DIRECTION('',(0.707106781186548,0.,0.707106781186548));
#1587=DIRECTION('',(-0.707106781186548,0.,0.707106781186548));
#1588=DIRECTION('',(0.,1.,0.));
#1589=DIRECTION('',(0.,0.,1.));
#1590=DIRECTION('',(1.,0.,0.));
#1591=DIRECTION('',(0.,0.,1.));
#1592=DIRECTION('',(1.,0.,0.));
#1593=DIRECTION('',(0.,0.,1.));
#1594=DIRECTION('',(1.,0.,0.));
#1595=DIRECTION('',(0.,0.,1.));
#1596=DIRECTION('',(1.,0.,0.));
#1597=DIRECTION('',(0.,0.,1.));
#1598=DIRECTION('',(1.,0.,0.));
#1599=DIRECTION('',(0.,0.,1.));
#1600=DIRECTION('',(1.,0.,0.));
#1601=DIRECTION('',(0.,0.,1.));
#1602=DIRECTION('',(1.,0.,0.));
#1603=DIRECTION('',(0.,0.,1.));
#1604=DIRECTION('',(1.,0.,0.));
#1605=DIRECTION('',(0.,0.,1.));
#1606=DIRECTION('',(1.,0.,0.));
#1607=DIRECTION('',(0.,0.,1.));
#1608=DIRECTION('',(1.,0.,0.));
#1609=DIRECTION('',(0.,0.,1.));
#1610=DIRECTION('',(1.,0.,0.));
#1611=DIRECTION('',(0.,0.,1.));
#1612=DIRECTION('',(1.,0.,0.));
#1613=DIRECTION('',(0.,0.,1.));
#1614=DIRECTION('',(1.,0.,0.));
#1615=DIRECTION('',(0.,0.,1.));
#1616=DIRECTION('',(1.,0.,0.));
#1617=DIRECTION('',(0.,0.,1.));
#1618=DIRECTION('',(1.,0.,0.));
#1619=DIRECTION('',(0.,0.,1.));
#1620=DIRECTION('',(1.,0.,0.));
#1621=DIRECTION('',(0.,-1.,0.));
#1622=DIRECTION('',(0.,0.,-1.));
#1623=DIRECTION('',(0.,0.,-1.));
#1624=DIRECTION('',(-1.,0.,0.));
#1625=DIRECTION('',(-1.,0.,0.));
#1626=DIRECTION('',(0.,0.,1.));
#1627=DIRECTION('',(0.,1.,0.));
#1628=DIRECTION('',(0.,0.,-1.));
#1629=DIRECTION('',(1.,0.,0.));
#1630=DIRECTION('',(0.,-1.,0.));
#1631=DIRECTION('',(0.,0.,-1.));
#1632=DIRECTION('',(-1.,0.,0.));
#1633=DIRECTION('',(0.,0.,-1.));
#1634=DIRECTION('',(-1.,0.,0.));
#1635=DIRECTION('',(0.,0.,1.));
#1636=DIRECTION('',(0.,1.,0.));
#1637=DIRECTION('',(0.,0.,-1.));
#1638=DIRECTION('',(1.,0.,0.));
#1639=DIRECTION('',(-1.,-1.92927118196629E-16,0.));
#1640=DIRECTION('',(1.92927118196629E-16,-1.,0.));
#1641=DIRECTION('',(0.,0.,-1.));
#1642=DIRECTION('',(-1.92927118196629E-16,1.,0.));
#1643=DIRECTION('',(0.,-1.,0.));
#1644=DIRECTION('',(0.,0.,-1.));
#1645=DIRECTION('',(-1.,0.,0.));
#1646=DIRECTION('',(0.,0.,-1.));
#1647=DIRECTION('',(1.,0.,0.));
#1648=DIRECTION('',(0.,-1.,0.));
#1649=DIRECTION('',(0.,0.,-1.));
#1650=DIRECTION('',(0.,0.,-1.));
#1651=DIRECTION('',(-1.,0.,0.));
#1652=DIRECTION('',(-1.,-1.92927118196628E-16,0.));
#1653=DIRECTION('',(1.92927118196628E-16,-1.,0.));
#1654=DIRECTION('',(-1.92927118196628E-16,1.,0.));
#1655=DIRECTION('',(0.,0.,-1.));
#1656=DIRECTION('',(1.,0.,0.));
#1657=DIRECTION('',(-1.81638829365975E-16,-1.,0.));
#1658=DIRECTION('',(1.,-1.81638829365975E-16,0.));
#1659=DIRECTION('',(0.,0.,-1.));
#1660=DIRECTION('',(-1.,1.81638829365975E-16,0.));
#1661=DIRECTION('',(0.,0.,-1.));
#1662=DIRECTION('',(-1.,0.,0.));
#1663=DIRECTION('',(0.,0.,-1.));
#1664=DIRECTION('',(0.,0.,1.));
#1665=DIRECTION('',(-1.,0.,0.));
#1666=DIRECTION('',(3.6327765873195E-16,1.,0.));
#1667=DIRECTION('',(-1.,3.6327765873195E-16,0.));
#1668=DIRECTION('',(1.,-3.6327765873195E-16,0.));
#1669=DIRECTION('',(0.,0.,-1.));
#1670=DIRECTION('',(1.,0.,0.));
#1671=DIRECTION('',(1.81638829365975E-16,1.,0.));
#1672=DIRECTION('',(-1.,1.81638829365975E-16,0.));
#1673=DIRECTION('',(1.,-1.81638829365975E-16,0.));
#1674=DIRECTION('',(0.,0.,-1.));
#1675=DIRECTION('',(0.,-1.,0.));
#1676=DIRECTION('',(0.,0.,-1.));
#1677=DIRECTION('',(0.,0.,-1.));
#1678=DIRECTION('',(-1.,0.,0.));
#1679=DIRECTION('',(0.,0.,-1.));
#1680=DIRECTION('',(-1.,0.,0.));
#1681=DIRECTION('',(0.,0.,-1.));
#1682=DIRECTION('',(-1.,0.,0.));
#1683=DIRECTION('',(0.,0.,-1.));
#1684=DIRECTION('',(1.,0.,0.));
#1685=DIRECTION('',(0.,0.,1.));
#1686=DIRECTION('',(1.,0.,0.));
#1687=DIRECTION('',(0.,0.,1.));
#1688=DIRECTION('',(1.,0.,0.));
#1689=DIRECTION('',(0.,0.,1.));
#1690=DIRECTION('',(1.,0.,0.));
#1691=DIRECTION('',(0.,0.,1.));
#1692=DIRECTION('',(1.,0.,0.));
#1693=CARTESIAN_POINT('',(0.,0.,0.));
#1694=CARTESIAN_POINT('',(-0.007239,0.,0.009525));
#1695=CARTESIAN_POINT('',(-0.007239,0.,0.00762));
#1696=CARTESIAN_POINT('',(-0.007239,0.0021082,0.00762));
#1697=CARTESIAN_POINT('',(-0.007239,-0.0021082,0.00762));
#1698=CARTESIAN_POINT('',(-0.007239,0.0021082,0.00762));
#1699=CARTESIAN_POINT('',(-0.007239,0.0021082,0.00635));
#1700=CARTESIAN_POINT('',(-0.007239,0.,0.00635));
#1701=CARTESIAN_POINT('',(-0.007239,0.002159,0.00635));
#1702=CARTESIAN_POINT('',(-0.007239,0.002159,0.009525));
#1703=CARTESIAN_POINT('',(-0.007239,0.002159,0.008255));
#1704=CARTESIAN_POINT('',(-0.007239,0.,0.008255));
#1705=CARTESIAN_POINT('',(-0.007239,-0.002159,0.008255));
#1706=CARTESIAN_POINT('',(-0.007239,-0.002159,0.009525));
#1707=CARTESIAN_POINT('',(-0.007239,-0.002159,0.00635));
#1708=CARTESIAN_POINT('',(-0.007239,0.,0.00635));
#1709=CARTESIAN_POINT('',(-0.007239,-0.0021082,0.00635));
#1710=CARTESIAN_POINT('',(-0.007239,-0.0021082,0.00762));
#1711=CARTESIAN_POINT('',(0.,0.,0.00635));
#1712=CARTESIAN_POINT('',(-0.0077978,-0.0021082,0.00635));
#1713=CARTESIAN_POINT('',(-0.0089916,-0.0021082,0.00635));
#1714=CARTESIAN_POINT('',(-0.002159,-0.002159,0.00635));
#1715=CARTESIAN_POINT('',(-0.006604,-0.00461834442484171,0.00635));
#1716=CARTESIAN_POINT('',(-0.006604,-0.0043561,0.00635));
#1717=CARTESIAN_POINT('',(-0.006604,-0.006604,0.00635));
#1718=CARTESIAN_POINT('',(0.,-0.006604,0.00635));
#1719=CARTESIAN_POINT('',(-0.00461834442484171,-0.006604,0.00635));
#1720=CARTESIAN_POINT('',(-0.002159,-0.002159,0.00635));
#1721=CARTESIAN_POINT('',(-0.002159,-0.007239,0.00635));
#1722=CARTESIAN_POINT('',(0.,-0.007239,0.00635));
#1723=CARTESIAN_POINT('',(0.002159,-0.007239,0.00635));
#1724=CARTESIAN_POINT('',(0.002159,-0.002159,0.00635));
#1725=CARTESIAN_POINT('',(0.00461834442484171,-0.006604,0.00635));
#1726=CARTESIAN_POINT('',(0.,-0.006604,0.00635));
#1727=CARTESIAN_POINT('',(0.006604,-0.006604,0.00635));
#1728=CARTESIAN_POINT('',(0.006604,-0.0043561,0.00635));
#1729=CARTESIAN_POINT('',(0.006604,-0.00461834442484171,0.00635));
#1730=CARTESIAN_POINT('',(0.002159,-0.002159,0.00635));
#1731=CARTESIAN_POINT('',(0.007239,-0.002159,0.00635));
#1732=CARTESIAN_POINT('',(0.007239,0.,0.00635));
#1733=CARTESIAN_POINT('',(0.007239,-0.0021082,0.00635));
#1734=CARTESIAN_POINT('',(0.0077978,-0.0021082,0.00635));
#1735=CARTESIAN_POINT('',(0.0089916,-0.0021082,0.00635));
#1736=CARTESIAN_POINT('',(0.0089916,0.,0.00635));
#1737=CARTESIAN_POINT('',(0.0089916,0.0021082,0.00635));
#1738=CARTESIAN_POINT('',(0.0077978,0.0021082,0.00635));
#1739=CARTESIAN_POINT('',(0.007239,0.0021082,0.00635));
#1740=CARTESIAN_POINT('',(0.007239,0.,0.00635));
#1741=CARTESIAN_POINT('',(0.007239,0.002159,0.00635));
#1742=CARTESIAN_POINT('',(0.002159,0.002159,0.00635));
#1743=CARTESIAN_POINT('',(0.006604,0.00461834442484171,0.00635));
#1744=CARTESIAN_POINT('',(0.006604,0.0043561,0.00635));
#1745=CARTESIAN_POINT('',(0.006604,0.006604,0.00635));
#1746=CARTESIAN_POINT('',(0.,0.006604,0.00635));
#1747=CARTESIAN_POINT('',(0.00461834442484171,0.006604,0.00635));
#1748=CARTESIAN_POINT('',(0.002159,0.002159,0.00635));
#1749=CARTESIAN_POINT('',(0.002159,0.007239,0.00635));
#1750=CARTESIAN_POINT('',(0.,0.007239,0.00635));
#1751=CARTESIAN_POINT('',(-0.002159,0.007239,0.00635));
#1752=CARTESIAN_POINT('',(-0.002159,0.002159,0.00635));
#1753=CARTESIAN_POINT('',(-0.00461834442484171,0.006604,0.00635));
#1754=CARTESIAN_POINT('',(0.,0.006604,0.00635));
#1755=CARTESIAN_POINT('',(-0.006604,0.006604,0.00635));
#1756=CARTESIAN_POINT('',(-0.006604,0.0043561,0.00635));
#1757=CARTESIAN_POINT('',(-0.006604,0.00461834442484171,0.00635));
#1758=CARTESIAN_POINT('',(-0.002159,0.002159,0.00635));
#1759=CARTESIAN_POINT('',(-0.0077978,0.0021082,0.00635));
#1760=CARTESIAN_POINT('',(-0.0089916,0.0021082,0.00635));
#1761=CARTESIAN_POINT('',(-0.0089916,4.33680868994202E-19,0.00635));
#1762=CARTESIAN_POINT('',(-0.021717,0.,0.00635));
#1763=CARTESIAN_POINT('',(-0.021717,0.01778,0.00635));
#1764=CARTESIAN_POINT('',(-0.021717,-0.01778,0.00635));
#1765=CARTESIAN_POINT('',(-0.01778,0.01778,0.00635));
#1766=CARTESIAN_POINT('',(-0.01778,0.021717,0.00635));
#1767=CARTESIAN_POINT('',(0.,0.021717,0.00635));
#1768=CARTESIAN_POINT('',(0.01778,0.021717,0.00635));
#1769=CARTESIAN_POINT('',(0.01778,0.01778,0.00635));
#1770=CARTESIAN_POINT('',(0.021717,0.01778,0.00635));
#1771=CARTESIAN_POINT('',(0.021717,0.,0.00635));
#1772=CARTESIAN_POINT('',(0.021717,-0.01778,0.00635));
#1773=CARTESIAN_POINT('',(0.01778,-0.01778,0.00635));
#1774=CARTESIAN_POINT('',(0.01778,-0.021717,0.00635));
#1775=CARTESIAN_POINT('',(-0.00889,-0.021717,0.00635));
#1776=CARTESIAN_POINT('',(-0.01778,-0.021717,0.00635));
#1777=CARTESIAN_POINT('',(-0.01778,-0.01778,0.00635));
#1778=CARTESIAN_POINT('',(0.01397,0.01397,0.00635));
#1779=CARTESIAN_POINT('',(0.0149987,0.01397,0.00635));
#1780=CARTESIAN_POINT('',(-0.01397,0.01397,0.00635));
#1781=CARTESIAN_POINT('',(-0.0129413,0.01397,0.00635));
#1782=CARTESIAN_POINT('',(-0.01397,-0.01397,0.00635));
#1783=CARTESIAN_POINT('',(-0.0129413,-0.01397,0.00635));
#1784=CARTESIAN_POINT('',(0.01397,-0.01397,0.00635));
#1785=CARTESIAN_POINT('',(0.0149987,-0.01397,0.00635));
#1786=CARTESIAN_POINT('',(0.01397,-0.01397,0.009525));
#1787=CARTESIAN_POINT('',(0.01397,-0.01397,0.007493));
#1788=CARTESIAN_POINT('',(0.0149987,-0.01397,0.007493));
#1789=CARTESIAN_POINT('',(-0.01397,-0.01397,0.009525));
#1790=CARTESIAN_POINT('',(-0.01397,-0.01397,0.007493));
#1791=CARTESIAN_POINT('',(-0.0129413,-0.01397,0.007493));
#1792=CARTESIAN_POINT('',(-0.01397,0.01397,0.009525));
#1793=CARTESIAN_POINT('',(-0.01397,0.01397,0.007493));
#1794=CARTESIAN_POINT('',(-0.0129413,0.01397,0.007493));
#1795=CARTESIAN_POINT('',(0.01397,0.01397,0.009525));
#1796=CARTESIAN_POINT('',(0.01397,0.01397,0.007493));
#1797=CARTESIAN_POINT('',(0.0149987,0.01397,0.007493));
#1798=CARTESIAN_POINT('',(0.,0.007239,0.009525));
#1799=CARTESIAN_POINT('',(0.002159,0.007239,0.009525));
#1800=CARTESIAN_POINT('',(0.002159,0.007239,0.008255));
#1801=CARTESIAN_POINT('',(0.,0.007239,0.008255));
#1802=CARTESIAN_POINT('',(-0.002159,0.007239,0.008255));
#1803=CARTESIAN_POINT('',(-0.002159,0.007239,0.00635));
#1804=CARTESIAN_POINT('',(0.007239,0.,0.009525));
#1805=CARTESIAN_POINT('',(0.007239,0.,0.00762));
#1806=CARTESIAN_POINT('',(0.007239,0.0021082,0.00762));
#1807=CARTESIAN_POINT('',(0.007239,-0.0021082,0.00762));
#1808=CARTESIAN_POINT('',(0.007239,-0.0021082,0.00762));
#1809=CARTESIAN_POINT('',(0.007239,-0.002159,0.009525));
#1810=CARTESIAN_POINT('',(0.007239,-0.002159,0.008255));
#1811=CARTESIAN_POINT('',(0.007239,0.002159,0.008255));
#1812=CARTESIAN_POINT('',(0.007239,0.002159,0.008255));
#1813=CARTESIAN_POINT('',(0.007239,0.002159,0.009525));
#1814=CARTESIAN_POINT('',(0.007239,0.0021082,0.00762));
#1815=CARTESIAN_POINT('',(0.,-0.007239,0.009525));
#1816=CARTESIAN_POINT('',(-0.002159,-0.007239,0.009525));
#1817=CARTESIAN_POINT('',(-0.002159,-0.007239,0.008255));
#1818=CARTESIAN_POINT('',(0.002159,-0.007239,0.008255));
#1819=CARTESIAN_POINT('',(0.002159,-0.007239,0.008255));
#1820=CARTESIAN_POINT('',(0.002159,-0.007239,0.00635));
#1821=CARTESIAN_POINT('',(-0.021717,0.,0.009525));
#1822=CARTESIAN_POINT('',(-0.021717,-0.01778,0.009525));
#1823=CARTESIAN_POINT('',(-0.021717,-0.01778,0.008255));
#1824=CARTESIAN_POINT('',(-0.021717,0.01778,0.008255));
#1825=CARTESIAN_POINT('',(-0.021717,0.01778,0.008255));
#1826=CARTESIAN_POINT('',(-0.021717,0.01778,0.009525));
#1827=CARTESIAN_POINT('',(-0.01778,-0.01778,0.009525));
#1828=CARTESIAN_POINT('',(-0.01778,-0.021717,0.009525));
#1829=CARTESIAN_POINT('',(-0.01778,-0.021717,0.008255));
#1830=CARTESIAN_POINT('',(-0.01778,-0.01778,0.008255));
#1831=CARTESIAN_POINT('',(-0.00889,-0.021717,0.009525));
#1832=CARTESIAN_POINT('',(0.01778,-0.021717,0.009525));
#1833=CARTESIAN_POINT('',(0.01778,-0.021717,0.008255));
#1834=CARTESIAN_POINT('',(-0.01778,-0.021717,0.008255));
#1835=CARTESIAN_POINT('',(0.01778,-0.01778,0.009525));
#1836=CARTESIAN_POINT('',(0.021717,-0.01778,0.009525));
#1837=CARTESIAN_POINT('',(0.021717,-0.01778,0.008255));
#1838=CARTESIAN_POINT('',(0.01778,-0.01778,0.008255));
#1839=CARTESIAN_POINT('',(0.021717,0.,0.009525));
#1840=CARTESIAN_POINT('',(0.021717,0.01778,0.009525));
#1841=CARTESIAN_POINT('',(0.021717,0.01778,0.008255));
#1842=CARTESIAN_POINT('',(0.021717,-0.01778,0.008255));
#1843=CARTESIAN_POINT('',(0.01778,0.01778,0.009525));
#1844=CARTESIAN_POINT('',(0.01778,0.021717,0.009525));
#1845=CARTESIAN_POINT('',(0.01778,0.021717,0.008255));
#1846=CARTESIAN_POINT('',(0.01778,0.01778,0.008255));
#1847=CARTESIAN_POINT('',(0.,0.021717,0.009525));
#1848=CARTESIAN_POINT('',(-0.01778,0.021717,0.009525));
#1849=CARTESIAN_POINT('',(-0.01778,0.021717,0.008255));
#1850=CARTESIAN_POINT('',(0.01778,0.021717,0.008255));
#1851=CARTESIAN_POINT('',(-0.01778,0.01778,0.009525));
#1852=CARTESIAN_POINT('',(-0.01778,0.01778,0.008255));
#1853=CARTESIAN_POINT('',(0.,0.,0.009525));
#1854=CARTESIAN_POINT('',(-0.01397,-0.01397,0.009525));
#1855=CARTESIAN_POINT('',(-0.0120015,-0.01397,0.009525));
#1856=CARTESIAN_POINT('',(0.01397,-0.01397,0.009525));
#1857=CARTESIAN_POINT('',(0.0159385,-0.01397,0.009525));
#1858=CARTESIAN_POINT('',(0.01397,0.01397,0.009525));
#1859=CARTESIAN_POINT('',(0.0159385,0.01397,0.009525));
#1860=CARTESIAN_POINT('',(-0.01397,0.01397,0.009525));
#1861=CARTESIAN_POINT('',(-0.0120015,0.01397,0.009525));
#1862=CARTESIAN_POINT('',(-0.002159,-0.002159,0.009525));
#1863=CARTESIAN_POINT('',(-0.002159,-0.008509,0.009525));
#1864=CARTESIAN_POINT('',(-0.008509,-0.002159,0.009525));
#1865=CARTESIAN_POINT('',(-0.008509,5.09765231975641E-19,0.009525));
#1866=CARTESIAN_POINT('',(-0.008509,0.002159,0.009525));
#1867=CARTESIAN_POINT('',(-0.002159,0.002159,0.009525));
#1868=CARTESIAN_POINT('',(-0.002159,0.008509,0.009525));
#1869=CARTESIAN_POINT('',(0.,0.008509,0.009525));
#1870=CARTESIAN_POINT('',(0.002159,0.008509,0.009525));
#1871=CARTESIAN_POINT('',(0.002159,0.002159,0.009525));
#1872=CARTESIAN_POINT('',(0.008509,0.002159,0.009525));
#1873=CARTESIAN_POINT('',(0.008509,-0.002159,0.009525));
#1874=CARTESIAN_POINT('',(0.008509,-0.002159,0.009525));
#1875=CARTESIAN_POINT('',(0.002159,-0.002159,0.009525));
#1876=CARTESIAN_POINT('',(0.002159,-0.008509,0.009525));
#1877=CARTESIAN_POINT('',(-0.002159,-0.008509,0.009525));
#1878=CARTESIAN_POINT('',(-0.01778,0.01778,0.009525));
#1879=CARTESIAN_POINT('',(-0.01778,0.020447,0.009525));
#1880=CARTESIAN_POINT('',(-0.020447,0.01778,0.009525));
#1881=CARTESIAN_POINT('',(-0.020447,-0.01778,0.009525));
#1882=CARTESIAN_POINT('',(-0.020447,-0.01778,0.009525));
#1883=CARTESIAN_POINT('',(-0.01778,-0.01778,0.009525));
#1884=CARTESIAN_POINT('',(-0.01778,-0.020447,0.009525));
#1885=CARTESIAN_POINT('',(0.01778,-0.020447,0.009525));
#1886=CARTESIAN_POINT('',(0.01778,-0.020447,0.009525));
#1887=CARTESIAN_POINT('',(0.01778,-0.01778,0.009525));
#1888=CARTESIAN_POINT('',(0.020447,-0.01778,0.009525));
#1889=CARTESIAN_POINT('',(0.020447,0.01778,0.009525));
#1890=CARTESIAN_POINT('',(0.020447,0.01778,0.009525));
#1891=CARTESIAN_POINT('',(0.01778,0.01778,0.009525));
#1892=CARTESIAN_POINT('',(0.01778,0.020447,0.009525));
#1893=CARTESIAN_POINT('',(-0.01778,0.020447,0.009525));
#1894=CARTESIAN_POINT('',(-0.002159,-0.002159,0.009525));
#1895=CARTESIAN_POINT('',(-0.002159,-0.002159,0.00762));
#1896=CARTESIAN_POINT('',(-0.006604,-0.00461834442484171,0.00762));
#1897=CARTESIAN_POINT('',(-0.00461834442484171,-0.006604,0.00762));
#1898=CARTESIAN_POINT('',(-0.006604,-0.00461834442484171,0.00762));
#1899=CARTESIAN_POINT('',(-0.002159,-0.002159,0.008255));
#1900=CARTESIAN_POINT('',(-0.00461834442484171,-0.006604,0.00762));
#1901=CARTESIAN_POINT('',(0.002159,-0.002159,0.009525));
#1902=CARTESIAN_POINT('',(0.002159,-0.002159,0.00762));
#1903=CARTESIAN_POINT('',(0.00461834442484171,-0.006604,0.00762));
#1904=CARTESIAN_POINT('',(0.006604,-0.00461834442484171,0.00762));
#1905=CARTESIAN_POINT('',(0.00461834442484171,-0.006604,0.00762));
#1906=CARTESIAN_POINT('',(0.002159,-0.002159,0.008255));
#1907=CARTESIAN_POINT('',(0.006604,-0.00461834442484171,0.00762));
#1908=CARTESIAN_POINT('',(-0.002159,0.002159,0.009525));
#1909=CARTESIAN_POINT('',(-0.002159,0.002159,0.00762));
#1910=CARTESIAN_POINT('',(-0.00461834442484171,0.006604,0.00762));
#1911=CARTESIAN_POINT('',(-0.006604,0.00461834442484171,0.00762));
#1912=CARTESIAN_POINT('',(-0.00461834442484171,0.006604,0.00762));
#1913=CARTESIAN_POINT('',(-0.002159,0.002159,0.008255));
#1914=CARTESIAN_POINT('',(-0.006604,0.00461834442484171,0.00762));
#1915=CARTESIAN_POINT('',(0.002159,0.002159,0.009525));
#1916=CARTESIAN_POINT('',(0.002159,0.002159,0.00762));
#1917=CARTESIAN_POINT('',(0.006604,0.00461834442484171,0.00762));
#1918=CARTESIAN_POINT('',(0.00461834442484171,0.006604,0.00762));
#1919=CARTESIAN_POINT('',(0.006604,0.00461834442484171,0.00762));
#1920=CARTESIAN_POINT('',(0.002159,0.002159,0.008255));
#1921=CARTESIAN_POINT('',(0.00461834442484171,0.006604,0.00762));
#1922=CARTESIAN_POINT('',(0.008509,-5.09765231975641E-19,0.009525));
#1923=CARTESIAN_POINT('',(0.008509,-0.002159,0.009525));
#1924=CARTESIAN_POINT('',(0.007239,0.002159,0.008255));
#1925=CARTESIAN_POINT('',(0.002159,0.002159,0.009525));
#1926=CARTESIAN_POINT('',(0.002159,0.007239,0.008255));
#1927=CARTESIAN_POINT('',(0.002159,-0.002159,0.009525));
#1928=CARTESIAN_POINT('',(0.002159,-0.008509,0.009525));
#1929=CARTESIAN_POINT('',(0.,0.007239,0.008255));
#1930=CARTESIAN_POINT('',(-0.002159,0.007239,0.008255));
#1931=CARTESIAN_POINT('',(0.,-0.008509,0.009525));
#1932=CARTESIAN_POINT('',(-0.002159,-0.008509,0.009525));
#1933=CARTESIAN_POINT('',(-0.002159,0.002159,0.009525));
#1934=CARTESIAN_POINT('',(-0.007239,0.002159,0.008255));
#1935=CARTESIAN_POINT('',(-0.002159,-0.002159,0.009525));
#1936=CARTESIAN_POINT('',(-0.008509,-0.002159,0.009525));
#1937=CARTESIAN_POINT('',(-0.007239,0.,0.008255));
#1938=CARTESIAN_POINT('',(0.020447,0.,0.009525));
#1939=CARTESIAN_POINT('',(0.021717,-0.01778,0.008255));
#1940=CARTESIAN_POINT('',(0.020447,0.01778,0.009525));
#1941=CARTESIAN_POINT('',(0.01778,0.01778,0.009525));
#1942=CARTESIAN_POINT('',(0.01778,0.020447,0.009525));
#1943=CARTESIAN_POINT('',(0.01778,-0.01778,0.009525));
#1944=CARTESIAN_POINT('',(0.01778,-0.021717,0.008255));
#1945=CARTESIAN_POINT('',(0.,0.020447,0.009525));
#1946=CARTESIAN_POINT('',(-0.01778,0.020447,0.009525));
#1947=CARTESIAN_POINT('',(0.,-0.020447,0.009525));
#1948=CARTESIAN_POINT('',(-0.01778,-0.021717,0.008255));
#1949=CARTESIAN_POINT('',(-0.01778,0.01778,0.009525));
#1950=CARTESIAN_POINT('',(-0.020447,0.01778,0.009525));
#1951=CARTESIAN_POINT('',(-0.01778,-0.01778,0.009525));
#1952=CARTESIAN_POINT('',(-0.021717,-0.01778,0.008255));
#1953=CARTESIAN_POINT('',(-0.020447,0.,0.009525));
#1954=CARTESIAN_POINT('',(-0.01397,0.01397,0.007493));
#1955=CARTESIAN_POINT('',(-0.01397,0.01397,0.007874));
#1956=CARTESIAN_POINT('',(-0.0120015,0.01397,0.007874));
#1957=CARTESIAN_POINT('',(0.,0.,0.007493));
#1958=CARTESIAN_POINT('',(-0.01397,0.01397,0.007493));
#1959=CARTESIAN_POINT('',(-0.0123825,0.01397,0.007493));
#1960=CARTESIAN_POINT('',(0.01397,0.01397,0.007493));
#1961=CARTESIAN_POINT('',(0.01397,0.01397,0.007874));
#1962=CARTESIAN_POINT('',(0.0159385,0.01397,0.007874));
#1963=CARTESIAN_POINT('',(0.,0.,0.007493));
#1964=CARTESIAN_POINT('',(0.01397,0.01397,0.007493));
#1965=CARTESIAN_POINT('',(0.0155575,0.01397,0.007493));
#1966=CARTESIAN_POINT('',(0.01397,-0.01397,0.007493));
#1967=CARTESIAN_POINT('',(0.01397,-0.01397,0.007874));
#1968=CARTESIAN_POINT('',(0.0159385,-0.01397,0.007874));
#1969=CARTESIAN_POINT('',(0.,0.,0.007493));
#1970=CARTESIAN_POINT('',(0.01397,-0.01397,0.007493));
#1971=CARTESIAN_POINT('',(0.0155575,-0.01397,0.007493));
#1972=CARTESIAN_POINT('',(-0.01397,-0.01397,0.007493));
#1973=CARTESIAN_POINT('',(-0.01397,-0.01397,0.007874));
#1974=CARTESIAN_POINT('',(-0.0120015,-0.01397,0.007874));
#1975=CARTESIAN_POINT('',(0.,0.,0.007493));
#1976=CARTESIAN_POINT('',(-0.01397,-0.01397,0.007493));
#1977=CARTESIAN_POINT('',(-0.0123825,-0.01397,0.007493));
#1978=CARTESIAN_POINT('',(0.,0.006604,0.00762));
#1979=CARTESIAN_POINT('',(0.006604,0.006604,0.00762));
#1980=CARTESIAN_POINT('',(0.006604,0.006604,0.00762));
#1981=CARTESIAN_POINT('',(0.,0.006604,0.00762));
#1982=CARTESIAN_POINT('',(0.006604,0.0043561,0.00762));
#1983=CARTESIAN_POINT('',(0.006604,0.0043561,0.00762));
#1984=CARTESIAN_POINT('',(0.,0.,0.00762));
#1985=CARTESIAN_POINT('',(0.,0.006604,0.00762));
#1986=CARTESIAN_POINT('',(0.,0.006604,0.00762));
#1987=CARTESIAN_POINT('',(-0.006604,0.006604,0.00762));
#1988=CARTESIAN_POINT('',(-0.006604,0.006604,0.00762));
#1989=CARTESIAN_POINT('',(-0.006604,0.0043561,0.00762));
#1990=CARTESIAN_POINT('',(-0.006604,0.0043561,0.00762));
#1991=CARTESIAN_POINT('',(0.,0.,0.00762));
#1992=CARTESIAN_POINT('',(0.006604,-0.0043561,0.00762));
#1993=CARTESIAN_POINT('',(0.006604,-0.006604,0.00762));
#1994=CARTESIAN_POINT('',(0.006604,-0.006604,0.00762));
#1995=CARTESIAN_POINT('',(0.006604,-0.0043561,0.00762));
#1996=CARTESIAN_POINT('',(0.,-0.006604,0.00762));
#1997=CARTESIAN_POINT('',(0.,-0.006604,0.00762));
#1998=CARTESIAN_POINT('',(0.,0.,0.00762));
#1999=CARTESIAN_POINT('',(0.,-0.006604,0.00762));
#2000=CARTESIAN_POINT('',(-0.006604,-0.006604,0.00762));
#2001=CARTESIAN_POINT('',(-0.006604,-0.006604,0.00762));
#2002=CARTESIAN_POINT('',(0.,-0.006604,0.00762));
#2003=CARTESIAN_POINT('',(-0.006604,-0.0043561,0.00762));
#2004=CARTESIAN_POINT('',(-0.006604,-0.0043561,0.00762));
#2005=CARTESIAN_POINT('',(0.,0.,0.00762));
#2006=CARTESIAN_POINT('',(-0.0077978,-0.0021082,0.00762));
#2007=CARTESIAN_POINT('',(-0.0089916,-0.0021082,0.00762));
#2008=CARTESIAN_POINT('',(-0.0089916,-0.0021082,0.00762));
#2009=CARTESIAN_POINT('',(-0.0077978,-0.0021082,0.00762));
#2010=CARTESIAN_POINT('',(-0.0089916,4.33680868994202E-19,0.00762));
#2011=CARTESIAN_POINT('',(-0.0089916,0.0021082,0.00762));
#2012=CARTESIAN_POINT('',(-0.0089916,0.0021082,0.00762));
#2013=CARTESIAN_POINT('',(-0.0089916,4.33680868994202E-19,0.00762));
#2014=CARTESIAN_POINT('',(-0.0077978,0.0021082,0.00762));
#2015=CARTESIAN_POINT('',(-0.0077978,0.0021082,0.00762));
#2016=CARTESIAN_POINT('',(0.,0.,0.00762));
#2017=CARTESIAN_POINT('',(0.0077978,-0.0021082,0.00762));
#2018=CARTESIAN_POINT('',(0.0077978,-0.0021082,0.00762));
#2019=CARTESIAN_POINT('',(0.0089916,-0.0021082,0.00762));
#2020=CARTESIAN_POINT('',(0.0089916,-0.0021082,0.00762));
#2021=CARTESIAN_POINT('',(0.0077978,0.0021082,0.00762));
#2022=CARTESIAN_POINT('',(0.0089916,0.0021082,0.00762));
#2023=CARTESIAN_POINT('',(0.0089916,0.0021082,0.00762));
#2024=CARTESIAN_POINT('',(0.0077978,0.0021082,0.00762));
#2025=CARTESIAN_POINT('',(0.0089916,0.,0.00762));
#2026=CARTESIAN_POINT('',(0.0089916,0.,0.00762));
#2027=CARTESIAN_POINT('',(0.,0.,0.00762));
#2028=CARTESIAN_POINT('',(-0.01397,-0.01397,0.007493));
#2029=CARTESIAN_POINT('',(0.01397,-0.01397,0.007493));
#2030=CARTESIAN_POINT('',(0.01397,0.01397,0.007493));
#2031=CARTESIAN_POINT('',(-0.01397,0.01397,0.007493));
#2032=MECHANICAL_DESIGN_GEOMETRIC_PRESENTATION_REPRESENTATION('',(#1197),#2033);
#2033=(
GEOMETRIC_REPRESENTATION_CONTEXT(3)
GLOBAL_UNCERTAINTY_ASSIGNED_CONTEXT((#2034))
GLOBAL_UNIT_ASSIGNED_CONTEXT((#2037,#2036,#2035))
REPRESENTATION_CONTEXT('Cover','TOP_LEVEL_ASSEMBLY_PART')
);
#2034=UNCERTAINTY_MEASURE_WITH_UNIT(LENGTH_MEASURE(1.E-08),#2037,'DISTANCE_ACCURACY_VALUE','Maximum Tolerance applied to model');
#2035=(
NAMED_UNIT(*)
SI_UNIT($,.STERADIAN.)
SOLID_ANGLE_UNIT()
);
#2036=(
NAMED_UNIT(*)
PLANE_ANGLE_UNIT()
SI_UNIT($,.RADIAN.)
);
#2037=(
LENGTH_UNIT()
NAMED_UNIT(*)
SI_UNIT($,.METRE.)
);
#2038=PRODUCT_DEFINITION_SHAPE('','',#2039);
#2039=PRODUCT_DEFINITION('','',#2041,#2040);
#2040=PRODUCT_DEFINITION_CONTEXT('',#2047,'design');
#2041=PRODUCT_DEFINITION_FORMATION_WITH_SPECIFIED_SOURCE('','',#2043,.NOT_KNOWN.);
#2042=PRODUCT_RELATED_PRODUCT_CATEGORY('','',(#2043));
#2043=PRODUCT('Cover','Cover','Cover',(#2045));
#2044=PRODUCT_CATEGORY('','');
#2045=PRODUCT_CONTEXT('',#2047,'mechanical');
#2046=APPLICATION_PROTOCOL_DEFINITION('international standard','ap242_managed_model_based_3d_engineering',2020,#2047);
#2047=APPLICATION_CONTEXT('managed model based 3d engineering');
ENDSEC;
END-ISO-10303-21;
