ISO-10303-21;
HEADER;
/*Generated by software containing ST-Developer
 * from STEP Tools, Inc. (www.steptools.com) 
 */
/*OPTION: using custom renumber hook */
/*description */
/*implementation_level */
FILE_DESCRIPTION(('STEP AP242 Edition 2','STEP AP242 Edition 2''CAx-IF Rec.Pracs.---Representation and Presentation of Product Manufa
cturing Information (PMI)---4.0---2014-10-13','STEP AP242 Edition 2''CAx-IF Rec.Pracs.---Representation and Presentation of Product Manufa
cturing Information (PMI)---4.0---2014-10-13''CAx-IF Rec.Pracs.---3D Tessellated Geometry---0.4---2014-09-14','STEP AP242 Edition 2''CAx-IF Rec.Pracs.---Representation and Presentation of Product Manufa
cturing Information (PMI)---4.0---2014-10-13''CAx-IF Rec.Pracs.---3D Tessellated Geometry---0.4---2014-09-14''2;1','STEP AP242 Edition 2''CAx-IF Rec.Pracs.---Representation and Presentation of Product Manufa
cturing Information (PMI)---4.0---2014-10-13''CAx-IF Rec.Pracs.---3D Tessellated Geometry---0.4---2014-09-14''2;1''CAx-IF Rec.Pracs.---User Defined Attributes---1.5---2016-08-15'),'2;1');
/*name */
/*time_stamp */
/*author */
/*organization */
/*preprocessor_version */
/*originating_system */
/*authorisation */
FILE_NAME('/vol/tmp/translate-2907431933573783068/Swerve Camera Mount Base - Swerve Camera Mount Base A.step','2026-03-05T02:00:02',(''),(''),'ST-DEVELOPER v20','ONSHAPE BY PTC INC, 1.211','  ');
FILE_SCHEMA(('AP242_MANAGED_MODEL_BASED_3D_ENGINEERING_MIM_LF { 1 0 10303 442 3 1 4 }'));
ENDSEC;
DATA;
#10=SHAPE_REPRESENTATION_RELATIONSHIP('','',#821,#11);
#11=ADVANCED_BREP_SHAPE_REPRESENTATION('',(#819),#1403);
#12=ELLIPSE('',#846,0.00197576926011272,0.00127);
#13=ELLIPSE('',#847,0.00165786725745199,0.00127);
#14=ELLIPSE('',#854,0.00197576926011272,0.00127);
#15=ELLIPSE('',#855,0.00165786725745199,0.00127);
#16=ELLIPSE('',#893,0.00179605122421383,0.00127);
#17=ELLIPSE('',#894,0.00179605122421383,0.00127);
#18=ELLIPSE('',#896,0.00179605122421383,0.00127);
#19=ELLIPSE('',#898,0.00179605122421383,0.00127);
#20=ELLIPSE('',#901,0.00179605122421383,0.00127);
#21=ELLIPSE('',#902,0.00179605122421383,0.00127);
#22=ELLIPSE('',#904,0.00179605122421383,0.00127);
#23=ELLIPSE('',#906,0.00179605122421383,0.00127);
#24=B_SPLINE_CURVE_WITH_KNOTS('',3,(#1226,#1227,#1228,#1229),.UNSPECIFIED.,.F.,.F.,(4,4),(0.,0.00118758526047826),.UNSPECIFIED.);
#25=B_SPLINE_CURVE_WITH_KNOTS('',3,(#1231,#1232,#1233,#1234),.UNSPECIFIED.,.F.,.F.,(4,4),(0.,0.000245031445207681),.UNSPECIFIED.);
#26=CYLINDRICAL_SURFACE('',#837,0.0290195);
#27=CYLINDRICAL_SURFACE('',#840,0.005715);
#28=CYLINDRICAL_SURFACE('',#843,0.0092075);
#29=CYLINDRICAL_SURFACE('',#848,0.0092075);
#30=CYLINDRICAL_SURFACE('',#851,0.005715);
#31=CYLINDRICAL_SURFACE('',#856,0.005715);
#32=CYLINDRICAL_SURFACE('',#858,0.003175);
#33=CYLINDRICAL_SURFACE('',#860,0.003175);
#34=CYLINDRICAL_SURFACE('',#863,0.003175);
#35=CYLINDRICAL_SURFACE('',#890,0.0025527);
#36=CYLINDRICAL_SURFACE('',#891,0.0025527);
#37=CYLINDRICAL_SURFACE('',#892,0.00127);
#38=CYLINDRICAL_SURFACE('',#895,0.00127);
#39=CYLINDRICAL_SURFACE('',#897,0.00127);
#40=CYLINDRICAL_SURFACE('',#899,0.00127);
#41=CYLINDRICAL_SURFACE('',#900,0.00127);
#42=CYLINDRICAL_SURFACE('',#903,0.00127);
#43=CYLINDRICAL_SURFACE('',#905,0.00127);
#44=CYLINDRICAL_SURFACE('',#907,0.00127);
#45=CYLINDRICAL_SURFACE('',#908,0.00127);
#46=CYLINDRICAL_SURFACE('',#909,0.00127);
#47=CYLINDRICAL_SURFACE('',#910,0.00127);
#48=CYLINDRICAL_SURFACE('',#911,0.00127);
#49=CYLINDRICAL_SURFACE('',#912,0.00127);
#50=CYLINDRICAL_SURFACE('',#913,0.00127);
#51=LINE('',#1166,#115);
#52=LINE('',#1173,#116);
#53=LINE('',#1175,#117);
#54=LINE('',#1177,#118);
#55=LINE('',#1181,#119);
#56=LINE('',#1190,#120);
#57=LINE('',#1194,#121);
#58=LINE('',#1196,#122);
#59=LINE('',#1198,#123);
#60=LINE('',#1200,#124);
#61=LINE('',#1202,#125);
#62=LINE('',#1204,#126);
#63=LINE('',#1208,#127);
#64=LINE('',#1212,#128);
#65=LINE('',#1214,#129);
#66=LINE('',#1216,#130);
#67=LINE('',#1225,#131);
#68=LINE('',#1235,#132);
#69=LINE('',#1237,#133);
#70=LINE('',#1239,#134);
#71=LINE('',#1243,#135);
#72=LINE('',#1245,#136);
#73=LINE('',#1247,#137);
#74=LINE('',#1249,#138);
#75=LINE('',#1253,#139);
#76=LINE('',#1255,#140);
#77=LINE('',#1257,#141);
#78=LINE('',#1264,#142);
#79=LINE('',#1266,#143);
#80=LINE('',#1268,#144);
#81=LINE('',#1270,#145);
#82=LINE('',#1274,#146);
#83=LINE('',#1276,#147);
#84=LINE('',#1278,#148);
#85=LINE('',#1285,#149);
#86=LINE('',#1293,#150);
#87=LINE('',#1303,#151);
#88=LINE('',#1306,#152);
#89=LINE('',#1308,#153);
#90=LINE('',#1312,#154);
#91=LINE('',#1316,#155);
#92=LINE('',#1319,#156);
#93=LINE('',#1320,#157);
#94=LINE('',#1324,#158);
#95=LINE('',#1326,#159);
#96=LINE('',#1330,#160);
#97=LINE('',#1334,#161);
#98=LINE('',#1335,#162);
#99=LINE('',#1337,#163);
#100=LINE('',#1338,#164);
#101=LINE('',#1340,#165);
#102=LINE('',#1343,#166);
#103=LINE('',#1345,#167);
#104=LINE('',#1347,#168);
#105=LINE('',#1351,#169);
#106=LINE('',#1353,#170);
#107=LINE('',#1357,#171);
#108=LINE('',#1361,#172);
#109=LINE('',#1364,#173);
#110=LINE('',#1365,#174);
#111=LINE('',#1369,#175);
#112=LINE('',#1372,#176);
#113=LINE('',#1376,#177);
#114=LINE('',#1377,#178);
#115=VECTOR('',#920,1.);
#116=VECTOR('',#925,1.);
#117=VECTOR('',#926,1.);
#118=VECTOR('',#927,1.);
#119=VECTOR('',#930,1.);
#120=VECTOR('',#939,1.);
#121=VECTOR('',#942,1.);
#122=VECTOR('',#943,1.);
#123=VECTOR('',#944,1.);
#124=VECTOR('',#945,1.);
#125=VECTOR('',#946,1.);
#126=VECTOR('',#947,1.);
#127=VECTOR('',#950,1.);
#128=VECTOR('',#953,1.);
#129=VECTOR('',#954,1.);
#130=VECTOR('',#955,1.);
#131=VECTOR('',#964,1.);
#132=VECTOR('',#965,1.);
#133=VECTOR('',#968,1.);
#134=VECTOR('',#969,1.);
#135=VECTOR('',#974,1.);
#136=VECTOR('',#977,1.);
#137=VECTOR('',#978,1.);
#138=VECTOR('',#981,1.);
#139=VECTOR('',#984,1.);
#140=VECTOR('',#987,1.);
#141=VECTOR('',#988,1.);
#142=VECTOR('',#997,1.);
#143=VECTOR('',#1000,1.);
#144=VECTOR('',#1001,1.);
#145=VECTOR('',#1002,1.);
#146=VECTOR('',#1007,1.);
#147=VECTOR('',#1010,1.);
#148=VECTOR('',#1011,1.);
#149=VECTOR('',#1020,1.);
#150=VECTOR('',#1031,1.);
#151=VECTOR('',#1046,1.);
#152=VECTOR('',#1047,1.);
#153=VECTOR('',#1048,1.);
#154=VECTOR('',#1051,1.);
#155=VECTOR('',#1056,1.);
#156=VECTOR('',#1057,1.);
#157=VECTOR('',#1058,1.);
#158=VECTOR('',#1063,1.);
#159=VECTOR('',#1064,1.);
#160=VECTOR('',#1067,1.);
#161=VECTOR('',#1072,1.);
#162=VECTOR('',#1073,1.);
#163=VECTOR('',#1076,1.);
#164=VECTOR('',#1077,1.);
#165=VECTOR('',#1080,1.);
#166=VECTOR('',#1081,1.);
#167=VECTOR('',#1082,1.);
#168=VECTOR('',#1083,1.);
#169=VECTOR('',#1088,1.);
#170=VECTOR('',#1089,1.);
#171=VECTOR('',#1092,1.);
#172=VECTOR('',#1097,1.);
#173=VECTOR('',#1098,1.);
#174=VECTOR('',#1099,1.);
#175=VECTOR('',#1104,1.);
#176=VECTOR('',#1107,1.);
#177=VECTOR('',#1112,1.);
#178=VECTOR('',#1113,1.);
#179=ORIENTED_EDGE('',*,*,#405,.T.);
#180=ORIENTED_EDGE('',*,*,#406,.T.);
#181=ORIENTED_EDGE('',*,*,#407,.T.);
#182=ORIENTED_EDGE('',*,*,#408,.F.);
#183=ORIENTED_EDGE('',*,*,#409,.T.);
#184=ORIENTED_EDGE('',*,*,#410,.T.);
#185=ORIENTED_EDGE('',*,*,#411,.T.);
#186=ORIENTED_EDGE('',*,*,#412,.F.);
#187=ORIENTED_EDGE('',*,*,#413,.T.);
#188=ORIENTED_EDGE('',*,*,#414,.T.);
#189=ORIENTED_EDGE('',*,*,#415,.F.);
#190=ORIENTED_EDGE('',*,*,#416,.T.);
#191=ORIENTED_EDGE('',*,*,#417,.F.);
#192=ORIENTED_EDGE('',*,*,#418,.T.);
#193=ORIENTED_EDGE('',*,*,#419,.T.);
#194=ORIENTED_EDGE('',*,*,#420,.T.);
#195=ORIENTED_EDGE('',*,*,#421,.T.);
#196=ORIENTED_EDGE('',*,*,#422,.T.);
#197=ORIENTED_EDGE('',*,*,#423,.T.);
#198=ORIENTED_EDGE('',*,*,#424,.T.);
#199=ORIENTED_EDGE('',*,*,#425,.T.);
#200=ORIENTED_EDGE('',*,*,#426,.F.);
#201=ORIENTED_EDGE('',*,*,#427,.F.);
#202=ORIENTED_EDGE('',*,*,#428,.T.);
#203=ORIENTED_EDGE('',*,*,#429,.T.);
#204=ORIENTED_EDGE('',*,*,#430,.T.);
#205=ORIENTED_EDGE('',*,*,#431,.T.);
#206=ORIENTED_EDGE('',*,*,#432,.T.);
#207=ORIENTED_EDGE('',*,*,#433,.F.);
#208=ORIENTED_EDGE('',*,*,#434,.F.);
#209=ORIENTED_EDGE('',*,*,#412,.T.);
#210=ORIENTED_EDGE('',*,*,#435,.T.);
#211=ORIENTED_EDGE('',*,*,#436,.T.);
#212=ORIENTED_EDGE('',*,*,#427,.T.);
#213=ORIENTED_EDGE('',*,*,#437,.T.);
#214=ORIENTED_EDGE('',*,*,#438,.T.);
#215=ORIENTED_EDGE('',*,*,#439,.F.);
#216=ORIENTED_EDGE('',*,*,#413,.F.);
#217=ORIENTED_EDGE('',*,*,#434,.T.);
#218=ORIENTED_EDGE('',*,*,#440,.T.);
#219=ORIENTED_EDGE('',*,*,#441,.F.);
#220=ORIENTED_EDGE('',*,*,#414,.F.);
#221=ORIENTED_EDGE('',*,*,#439,.T.);
#222=ORIENTED_EDGE('',*,*,#442,.T.);
#223=ORIENTED_EDGE('',*,*,#443,.T.);
#224=ORIENTED_EDGE('',*,*,#406,.F.);
#225=ORIENTED_EDGE('',*,*,#441,.T.);
#226=ORIENTED_EDGE('',*,*,#408,.T.);
#227=ORIENTED_EDGE('',*,*,#444,.T.);
#228=ORIENTED_EDGE('',*,*,#445,.F.);
#229=ORIENTED_EDGE('',*,*,#446,.F.);
#230=ORIENTED_EDGE('',*,*,#447,.T.);
#231=ORIENTED_EDGE('',*,*,#448,.F.);
#232=ORIENTED_EDGE('',*,*,#430,.F.);
#233=ORIENTED_EDGE('',*,*,#449,.T.);
#234=ORIENTED_EDGE('',*,*,#450,.T.);
#235=ORIENTED_EDGE('',*,*,#409,.F.);
#236=ORIENTED_EDGE('',*,*,#446,.T.);
#237=ORIENTED_EDGE('',*,*,#451,.F.);
#238=ORIENTED_EDGE('',*,*,#452,.T.);
#239=ORIENTED_EDGE('',*,*,#415,.T.);
#240=ORIENTED_EDGE('',*,*,#448,.T.);
#241=ORIENTED_EDGE('',*,*,#417,.T.);
#242=ORIENTED_EDGE('',*,*,#453,.T.);
#243=ORIENTED_EDGE('',*,*,#454,.F.);
#244=ORIENTED_EDGE('',*,*,#455,.F.);
#245=ORIENTED_EDGE('',*,*,#456,.T.);
#246=ORIENTED_EDGE('',*,*,#457,.F.);
#247=ORIENTED_EDGE('',*,*,#418,.F.);
#248=ORIENTED_EDGE('',*,*,#455,.T.);
#249=ORIENTED_EDGE('',*,*,#458,.T.);
#250=ORIENTED_EDGE('',*,*,#459,.F.);
#251=ORIENTED_EDGE('',*,*,#424,.F.);
#252=ORIENTED_EDGE('',*,*,#460,.T.);
#253=ORIENTED_EDGE('',*,*,#461,.T.);
#254=ORIENTED_EDGE('',*,*,#419,.F.);
#255=ORIENTED_EDGE('',*,*,#457,.T.);
#256=ORIENTED_EDGE('',*,*,#462,.T.);
#257=ORIENTED_EDGE('',*,*,#463,.F.);
#258=ORIENTED_EDGE('',*,*,#425,.F.);
#259=ORIENTED_EDGE('',*,*,#459,.T.);
#260=ORIENTED_EDGE('',*,*,#432,.F.);
#261=ORIENTED_EDGE('',*,*,#464,.T.);
#262=ORIENTED_EDGE('',*,*,#431,.F.);
#263=ORIENTED_EDGE('',*,*,#465,.T.);
#264=ORIENTED_EDGE('',*,*,#466,.F.);
#265=ORIENTED_EDGE('',*,*,#437,.F.);
#266=ORIENTED_EDGE('',*,*,#426,.T.);
#267=ORIENTED_EDGE('',*,*,#463,.T.);
#268=ORIENTED_EDGE('',*,*,#405,.F.);
#269=ORIENTED_EDGE('',*,*,#467,.T.);
#270=ORIENTED_EDGE('',*,*,#454,.T.);
#271=ORIENTED_EDGE('',*,*,#468,.T.);
#272=ORIENTED_EDGE('',*,*,#451,.T.);
#273=ORIENTED_EDGE('',*,*,#447,.F.);
#274=ORIENTED_EDGE('',*,*,#445,.T.);
#275=ORIENTED_EDGE('',*,*,#469,.T.);
#276=ORIENTED_EDGE('',*,*,#442,.F.);
#277=ORIENTED_EDGE('',*,*,#440,.F.);
#278=ORIENTED_EDGE('',*,*,#438,.F.);
#279=ORIENTED_EDGE('',*,*,#433,.T.);
#280=ORIENTED_EDGE('',*,*,#466,.T.);
#281=ORIENTED_EDGE('',*,*,#462,.F.);
#282=ORIENTED_EDGE('',*,*,#458,.F.);
#283=ORIENTED_EDGE('',*,*,#456,.F.);
#284=ORIENTED_EDGE('',*,*,#465,.F.);
#285=ORIENTED_EDGE('',*,*,#464,.F.);
#286=ORIENTED_EDGE('',*,*,#467,.F.);
#287=ORIENTED_EDGE('',*,*,#470,.F.);
#288=ORIENTED_EDGE('',*,*,#471,.T.);
#289=ORIENTED_EDGE('',*,*,#472,.T.);
#290=ORIENTED_EDGE('',*,*,#473,.F.);
#291=ORIENTED_EDGE('',*,*,#474,.T.);
#292=ORIENTED_EDGE('',*,*,#475,.T.);
#293=ORIENTED_EDGE('',*,*,#476,.T.);
#294=ORIENTED_EDGE('',*,*,#477,.F.);
#295=ORIENTED_EDGE('',*,*,#478,.T.);
#296=ORIENTED_EDGE('',*,*,#473,.T.);
#297=ORIENTED_EDGE('',*,*,#479,.T.);
#298=ORIENTED_EDGE('',*,*,#480,.F.);
#299=ORIENTED_EDGE('',*,*,#477,.T.);
#300=ORIENTED_EDGE('',*,*,#481,.T.);
#301=ORIENTED_EDGE('',*,*,#482,.F.);
#302=ORIENTED_EDGE('',*,*,#483,.T.);
#303=ORIENTED_EDGE('',*,*,#484,.F.);
#304=ORIENTED_EDGE('',*,*,#485,.T.);
#305=ORIENTED_EDGE('',*,*,#471,.F.);
#306=ORIENTED_EDGE('',*,*,#486,.T.);
#307=ORIENTED_EDGE('',*,*,#482,.T.);
#308=ORIENTED_EDGE('',*,*,#487,.T.);
#309=ORIENTED_EDGE('',*,*,#475,.F.);
#310=ORIENTED_EDGE('',*,*,#488,.T.);
#311=ORIENTED_EDGE('',*,*,#484,.T.);
#312=ORIENTED_EDGE('',*,*,#489,.T.);
#313=ORIENTED_EDGE('',*,*,#490,.F.);
#314=ORIENTED_EDGE('',*,*,#491,.T.);
#315=ORIENTED_EDGE('',*,*,#492,.T.);
#316=ORIENTED_EDGE('',*,*,#493,.T.);
#317=ORIENTED_EDGE('',*,*,#494,.T.);
#318=ORIENTED_EDGE('',*,*,#490,.T.);
#319=ORIENTED_EDGE('',*,*,#495,.T.);
#320=ORIENTED_EDGE('',*,*,#496,.F.);
#321=ORIENTED_EDGE('',*,*,#497,.T.);
#322=ORIENTED_EDGE('',*,*,#498,.F.);
#323=ORIENTED_EDGE('',*,*,#499,.T.);
#324=ORIENTED_EDGE('',*,*,#500,.F.);
#325=ORIENTED_EDGE('',*,*,#501,.T.);
#326=ORIENTED_EDGE('',*,*,#496,.T.);
#327=ORIENTED_EDGE('',*,*,#502,.T.);
#328=ORIENTED_EDGE('',*,*,#503,.F.);
#329=ORIENTED_EDGE('',*,*,#500,.T.);
#330=ORIENTED_EDGE('',*,*,#504,.T.);
#331=ORIENTED_EDGE('',*,*,#492,.F.);
#332=ORIENTED_EDGE('',*,*,#505,.T.);
#333=ORIENTED_EDGE('',*,*,#506,.T.);
#334=ORIENTED_EDGE('',*,*,#507,.T.);
#335=ORIENTED_EDGE('',*,*,#506,.F.);
#336=ORIENTED_EDGE('',*,*,#508,.T.);
#337=ORIENTED_EDGE('',*,*,#498,.T.);
#338=ORIENTED_EDGE('',*,*,#509,.T.);
#339=ORIENTED_EDGE('',*,*,#503,.T.);
#340=ORIENTED_EDGE('',*,*,#494,.F.);
#341=ORIENTED_EDGE('',*,*,#470,.T.);
#342=ORIENTED_EDGE('',*,*,#480,.T.);
#343=ORIENTED_EDGE('',*,*,#510,.F.);
#344=ORIENTED_EDGE('',*,*,#495,.F.);
#345=ORIENTED_EDGE('',*,*,#511,.F.);
#346=ORIENTED_EDGE('',*,*,#421,.F.);
#347=ORIENTED_EDGE('',*,*,#511,.T.);
#348=ORIENTED_EDGE('',*,*,#493,.F.);
#349=ORIENTED_EDGE('',*,*,#512,.F.);
#350=ORIENTED_EDGE('',*,*,#422,.F.);
#351=ORIENTED_EDGE('',*,*,#420,.F.);
#352=ORIENTED_EDGE('',*,*,#461,.F.);
#353=ORIENTED_EDGE('',*,*,#513,.F.);
#354=ORIENTED_EDGE('',*,*,#502,.F.);
#355=ORIENTED_EDGE('',*,*,#510,.T.);
#356=ORIENTED_EDGE('',*,*,#512,.T.);
#357=ORIENTED_EDGE('',*,*,#504,.F.);
#358=ORIENTED_EDGE('',*,*,#513,.T.);
#359=ORIENTED_EDGE('',*,*,#460,.F.);
#360=ORIENTED_EDGE('',*,*,#423,.F.);
#361=ORIENTED_EDGE('',*,*,#514,.F.);
#362=ORIENTED_EDGE('',*,*,#481,.F.);
#363=ORIENTED_EDGE('',*,*,#515,.F.);
#364=ORIENTED_EDGE('',*,*,#410,.F.);
#365=ORIENTED_EDGE('',*,*,#450,.F.);
#366=ORIENTED_EDGE('',*,*,#515,.T.);
#367=ORIENTED_EDGE('',*,*,#479,.F.);
#368=ORIENTED_EDGE('',*,*,#516,.F.);
#369=ORIENTED_EDGE('',*,*,#435,.F.);
#370=ORIENTED_EDGE('',*,*,#411,.F.);
#371=ORIENTED_EDGE('',*,*,#449,.F.);
#372=ORIENTED_EDGE('',*,*,#429,.F.);
#373=ORIENTED_EDGE('',*,*,#517,.F.);
#374=ORIENTED_EDGE('',*,*,#487,.F.);
#375=ORIENTED_EDGE('',*,*,#514,.T.);
#376=ORIENTED_EDGE('',*,*,#516,.T.);
#377=ORIENTED_EDGE('',*,*,#472,.F.);
#378=ORIENTED_EDGE('',*,*,#517,.T.);
#379=ORIENTED_EDGE('',*,*,#428,.F.);
#380=ORIENTED_EDGE('',*,*,#436,.F.);
#381=ORIENTED_EDGE('',*,*,#499,.F.);
#382=ORIENTED_EDGE('',*,*,#508,.F.);
#383=ORIENTED_EDGE('',*,*,#505,.F.);
#384=ORIENTED_EDGE('',*,*,#491,.F.);
#385=ORIENTED_EDGE('',*,*,#497,.F.);
#386=ORIENTED_EDGE('',*,*,#501,.F.);
#387=ORIENTED_EDGE('',*,*,#507,.F.);
#388=ORIENTED_EDGE('',*,*,#509,.F.);
#389=ORIENTED_EDGE('',*,*,#474,.F.);
#390=ORIENTED_EDGE('',*,*,#478,.F.);
#391=ORIENTED_EDGE('',*,*,#485,.F.);
#392=ORIENTED_EDGE('',*,*,#488,.F.);
#393=ORIENTED_EDGE('',*,*,#476,.F.);
#394=ORIENTED_EDGE('',*,*,#489,.F.);
#395=ORIENTED_EDGE('',*,*,#483,.F.);
#396=ORIENTED_EDGE('',*,*,#486,.F.);
#397=ORIENTED_EDGE('',*,*,#416,.F.);
#398=ORIENTED_EDGE('',*,*,#452,.F.);
#399=ORIENTED_EDGE('',*,*,#468,.F.);
#400=ORIENTED_EDGE('',*,*,#453,.F.);
#401=ORIENTED_EDGE('',*,*,#407,.F.);
#402=ORIENTED_EDGE('',*,*,#443,.F.);
#403=ORIENTED_EDGE('',*,*,#469,.F.);
#404=ORIENTED_EDGE('',*,*,#444,.F.);
#405=EDGE_CURVE('',#518,#518,#594,.F.);
#406=EDGE_CURVE('',#519,#520,#51,.T.);
#407=EDGE_CURVE('',#520,#521,#595,.T.);
#408=EDGE_CURVE('',#522,#521,#596,.T.);
#409=EDGE_CURVE('',#522,#523,#52,.T.);
#410=EDGE_CURVE('',#523,#524,#53,.F.);
#411=EDGE_CURVE('',#524,#525,#54,.F.);
#412=EDGE_CURVE('',#526,#525,#597,.T.);
#413=EDGE_CURVE('',#526,#527,#55,.T.);
#414=EDGE_CURVE('',#527,#519,#598,.T.);
#415=EDGE_CURVE('',#528,#529,#599,.T.);
#416=EDGE_CURVE('',#528,#530,#600,.T.);
#417=EDGE_CURVE('',#531,#530,#56,.T.);
#418=EDGE_CURVE('',#531,#532,#601,.T.);
#419=EDGE_CURVE('',#532,#533,#57,.T.);
#420=EDGE_CURVE('',#533,#534,#58,.F.);
#421=EDGE_CURVE('',#534,#535,#59,.F.);
#422=EDGE_CURVE('',#535,#536,#60,.T.);
#423=EDGE_CURVE('',#536,#537,#61,.T.);
#424=EDGE_CURVE('',#537,#538,#62,.T.);
#425=EDGE_CURVE('',#538,#539,#602,.T.);
#426=EDGE_CURVE('',#540,#539,#63,.T.);
#427=EDGE_CURVE('',#541,#540,#603,.T.);
#428=EDGE_CURVE('',#541,#542,#64,.T.);
#429=EDGE_CURVE('',#542,#543,#65,.T.);
#430=EDGE_CURVE('',#543,#529,#66,.T.);
#431=EDGE_CURVE('',#544,#544,#604,.F.);
#432=EDGE_CURVE('',#545,#545,#605,.F.);
#433=EDGE_CURVE('',#546,#547,#606,.T.);
#434=EDGE_CURVE('',#526,#546,#67,.T.);
#435=EDGE_CURVE('',#525,#548,#24,.T.);
#436=EDGE_CURVE('',#548,#541,#25,.T.);
#437=EDGE_CURVE('',#540,#547,#68,.T.);
#438=EDGE_CURVE('',#546,#549,#69,.T.);
#439=EDGE_CURVE('',#527,#549,#70,.T.);
#440=EDGE_CURVE('',#549,#550,#607,.T.);
#441=EDGE_CURVE('',#519,#550,#71,.T.);
#442=EDGE_CURVE('',#550,#551,#72,.T.);
#443=EDGE_CURVE('',#551,#520,#73,.T.);
#444=EDGE_CURVE('',#521,#552,#74,.T.);
#445=EDGE_CURVE('',#553,#552,#608,.T.);
#446=EDGE_CURVE('',#522,#553,#75,.T.);
#447=EDGE_CURVE('',#553,#554,#76,.T.);
#448=EDGE_CURVE('',#529,#554,#77,.T.);
#449=EDGE_CURVE('',#543,#555,#12,.T.);
#450=EDGE_CURVE('',#555,#523,#13,.T.);
#451=EDGE_CURVE('',#556,#554,#609,.T.);
#452=EDGE_CURVE('',#556,#528,#78,.F.);
#453=EDGE_CURVE('',#530,#557,#79,.T.);
#454=EDGE_CURVE('',#558,#557,#80,.T.);
#455=EDGE_CURVE('',#531,#558,#81,.T.);
#456=EDGE_CURVE('',#558,#559,#610,.T.);
#457=EDGE_CURVE('',#532,#559,#82,.T.);
#458=EDGE_CURVE('',#559,#560,#83,.T.);
#459=EDGE_CURVE('',#538,#560,#84,.T.);
#460=EDGE_CURVE('',#537,#561,#14,.T.);
#461=EDGE_CURVE('',#561,#533,#15,.T.);
#462=EDGE_CURVE('',#560,#562,#611,.T.);
#463=EDGE_CURVE('',#539,#562,#85,.T.);
#464=EDGE_CURVE('',#563,#563,#612,.F.);
#465=EDGE_CURVE('',#564,#564,#613,.F.);
#466=EDGE_CURVE('',#547,#562,#86,.T.);
#467=EDGE_CURVE('',#565,#565,#614,.F.);
#468=EDGE_CURVE('',#557,#556,#615,.F.);
#469=EDGE_CURVE('',#552,#551,#616,.F.);
#470=EDGE_CURVE('',#566,#566,#617,.T.);
#471=EDGE_CURVE('',#567,#568,#87,.T.);
#472=EDGE_CURVE('',#568,#569,#88,.F.);
#473=EDGE_CURVE('',#570,#569,#89,.T.);
#474=EDGE_CURVE('',#570,#571,#618,.T.);
#475=EDGE_CURVE('',#571,#572,#90,.T.);
#476=EDGE_CURVE('',#572,#567,#619,.T.);
#477=EDGE_CURVE('',#573,#574,#91,.T.);
#478=EDGE_CURVE('',#573,#570,#92,.F.);
#479=EDGE_CURVE('',#569,#574,#93,.T.);
#480=EDGE_CURVE('',#575,#575,#620,.F.);
#481=EDGE_CURVE('',#574,#576,#94,.T.);
#482=EDGE_CURVE('',#577,#576,#95,.T.);
#483=EDGE_CURVE('',#577,#578,#621,.F.);
#484=EDGE_CURVE('',#579,#578,#96,.T.);
#485=EDGE_CURVE('',#579,#573,#622,.F.);
#486=EDGE_CURVE('',#567,#577,#97,.T.);
#487=EDGE_CURVE('',#576,#568,#98,.F.);
#488=EDGE_CURVE('',#571,#579,#99,.T.);
#489=EDGE_CURVE('',#578,#572,#100,.F.);
#490=EDGE_CURVE('',#580,#581,#101,.T.);
#491=EDGE_CURVE('',#580,#582,#102,.T.);
#492=EDGE_CURVE('',#582,#583,#103,.T.);
#493=EDGE_CURVE('',#583,#581,#104,.F.);
#494=EDGE_CURVE('',#584,#584,#623,.T.);
#495=EDGE_CURVE('',#581,#585,#105,.T.);
#496=EDGE_CURVE('',#586,#585,#106,.T.);
#497=EDGE_CURVE('',#586,#587,#624,.F.);
#498=EDGE_CURVE('',#588,#587,#107,.T.);
#499=EDGE_CURVE('',#588,#580,#625,.F.);
#500=EDGE_CURVE('',#589,#590,#108,.T.);
#501=EDGE_CURVE('',#589,#586,#109,.F.);
#502=EDGE_CURVE('',#585,#590,#110,.T.);
#503=EDGE_CURVE('',#591,#591,#626,.T.);
#504=EDGE_CURVE('',#590,#583,#111,.F.);
#505=EDGE_CURVE('',#582,#592,#627,.T.);
#506=EDGE_CURVE('',#592,#593,#112,.T.);
#507=EDGE_CURVE('',#593,#589,#628,.T.);
#508=EDGE_CURVE('',#592,#588,#113,.F.);
#509=EDGE_CURVE('',#587,#593,#114,.T.);
#510=EDGE_CURVE('',#585,#534,#16,.F.);
#511=EDGE_CURVE('',#535,#581,#17,.T.);
#512=EDGE_CURVE('',#536,#583,#18,.T.);
#513=EDGE_CURVE('',#590,#561,#19,.F.);
#514=EDGE_CURVE('',#576,#555,#20,.F.);
#515=EDGE_CURVE('',#524,#574,#21,.T.);
#516=EDGE_CURVE('',#548,#569,#22,.T.);
#517=EDGE_CURVE('',#568,#542,#23,.F.);
#518=VERTEX_POINT('',#1165);
#519=VERTEX_POINT('',#1167);
#520=VERTEX_POINT('',#1168);
#521=VERTEX_POINT('',#1170);
#522=VERTEX_POINT('',#1172);
#523=VERTEX_POINT('',#1174);
#524=VERTEX_POINT('',#1176);
#525=VERTEX_POINT('',#1178);
#526=VERTEX_POINT('',#1180);
#527=VERTEX_POINT('',#1182);
#528=VERTEX_POINT('',#1186);
#529=VERTEX_POINT('',#1187);
#530=VERTEX_POINT('',#1189);
#531=VERTEX_POINT('',#1191);
#532=VERTEX_POINT('',#1193);
#533=VERTEX_POINT('',#1195);
#534=VERTEX_POINT('',#1197);
#535=VERTEX_POINT('',#1199);
#536=VERTEX_POINT('',#1201);
#537=VERTEX_POINT('',#1203);
#538=VERTEX_POINT('',#1205);
#539=VERTEX_POINT('',#1207);
#540=VERTEX_POINT('',#1209);
#541=VERTEX_POINT('',#1211);
#542=VERTEX_POINT('',#1213);
#543=VERTEX_POINT('',#1215);
#544=VERTEX_POINT('',#1218);
#545=VERTEX_POINT('',#1220);
#546=VERTEX_POINT('',#1223);
#547=VERTEX_POINT('',#1224);
#548=VERTEX_POINT('',#1230);
#549=VERTEX_POINT('',#1238);
#550=VERTEX_POINT('',#1242);
#551=VERTEX_POINT('',#1246);
#552=VERTEX_POINT('',#1250);
#553=VERTEX_POINT('',#1252);
#554=VERTEX_POINT('',#1256);
#555=VERTEX_POINT('',#1259);
#556=VERTEX_POINT('',#1263);
#557=VERTEX_POINT('',#1267);
#558=VERTEX_POINT('',#1269);
#559=VERTEX_POINT('',#1273);
#560=VERTEX_POINT('',#1277);
#561=VERTEX_POINT('',#1280);
#562=VERTEX_POINT('',#1284);
#563=VERTEX_POINT('',#1288);
#564=VERTEX_POINT('',#1291);
#565=VERTEX_POINT('',#1296);
#566=VERTEX_POINT('',#1302);
#567=VERTEX_POINT('',#1304);
#568=VERTEX_POINT('',#1305);
#569=VERTEX_POINT('',#1307);
#570=VERTEX_POINT('',#1309);
#571=VERTEX_POINT('',#1311);
#572=VERTEX_POINT('',#1313);
#573=VERTEX_POINT('',#1317);
#574=VERTEX_POINT('',#1318);
#575=VERTEX_POINT('',#1323);
#576=VERTEX_POINT('',#1325);
#577=VERTEX_POINT('',#1327);
#578=VERTEX_POINT('',#1329);
#579=VERTEX_POINT('',#1331);
#580=VERTEX_POINT('',#1341);
#581=VERTEX_POINT('',#1342);
#582=VERTEX_POINT('',#1344);
#583=VERTEX_POINT('',#1346);
#584=VERTEX_POINT('',#1350);
#585=VERTEX_POINT('',#1352);
#586=VERTEX_POINT('',#1354);
#587=VERTEX_POINT('',#1356);
#588=VERTEX_POINT('',#1358);
#589=VERTEX_POINT('',#1362);
#590=VERTEX_POINT('',#1363);
#591=VERTEX_POINT('',#1368);
#592=VERTEX_POINT('',#1371);
#593=VERTEX_POINT('',#1373);
#594=CIRCLE('',#824,0.003175);
#595=CIRCLE('',#825,0.00127);
#596=CIRCLE('',#826,0.0092075);
#597=CIRCLE('',#827,0.0290195);
#598=CIRCLE('',#828,0.005715);
#599=CIRCLE('',#830,0.0092075);
#600=CIRCLE('',#831,0.00127);
#601=CIRCLE('',#832,0.005715);
#602=CIRCLE('',#833,0.005715);
#603=CIRCLE('',#834,0.0290195);
#604=CIRCLE('',#835,0.003175);
#605=CIRCLE('',#836,0.003175);
#606=CIRCLE('',#838,0.0290195);
#607=CIRCLE('',#841,0.005715);
#608=CIRCLE('',#844,0.0092075);
#609=CIRCLE('',#849,0.0092075);
#610=CIRCLE('',#852,0.005715);
#611=CIRCLE('',#857,0.005715);
#612=CIRCLE('',#859,0.003175);
#613=CIRCLE('',#861,0.003175);
#614=CIRCLE('',#864,0.003175);
#615=CIRCLE('',#866,0.00127);
#616=CIRCLE('',#867,0.00127);
#617=CIRCLE('',#869,0.0025527);
#618=CIRCLE('',#870,0.00127);
#619=CIRCLE('',#871,0.00127);
#620=CIRCLE('',#874,0.0025527);
#621=CIRCLE('',#875,0.00127);
#622=CIRCLE('',#876,0.00127);
#623=CIRCLE('',#881,0.0025527);
#624=CIRCLE('',#882,0.00127);
#625=CIRCLE('',#883,0.00127);
#626=CIRCLE('',#886,0.0025527);
#627=CIRCLE('',#887,0.00127);
#628=CIRCLE('',#888,0.00127);
#629=EDGE_LOOP('',(#179));
#630=EDGE_LOOP('',(#180,#181,#182,#183,#184,#185,#186,#187,#188));
#631=EDGE_LOOP('',(#189,#190,#191,#192,#193,#194,#195,#196,#197,#198,#199,#200,#201,#202,#203,#204));
#632=EDGE_LOOP('',(#205));
#633=EDGE_LOOP('',(#206));
#634=EDGE_LOOP('',(#207,#208,#209,#210,#211,#212,#213));
#635=EDGE_LOOP('',(#214,#215,#216,#217));
#636=EDGE_LOOP('',(#218,#219,#220,#221));
#637=EDGE_LOOP('',(#222,#223,#224,#225));
#638=EDGE_LOOP('',(#226,#227,#228,#229));
#639=EDGE_LOOP('',(#230,#231,#232,#233,#234,#235,#236));
#640=EDGE_LOOP('',(#237,#238,#239,#240));
#641=EDGE_LOOP('',(#241,#242,#243,#244));
#642=EDGE_LOOP('',(#245,#246,#247,#248));
#643=EDGE_LOOP('',(#249,#250,#251,#252,#253,#254,#255));
#644=EDGE_LOOP('',(#256,#257,#258,#259));
#645=EDGE_LOOP('',(#260));
#646=EDGE_LOOP('',(#261));
#647=EDGE_LOOP('',(#262));
#648=EDGE_LOOP('',(#263));
#649=EDGE_LOOP('',(#264,#265,#266,#267));
#650=EDGE_LOOP('',(#268));
#651=EDGE_LOOP('',(#269));
#652=EDGE_LOOP('',(#270,#271,#272,#273,#274,#275,#276,#277,#278,#279,#280,#281,#282,#283));
#653=EDGE_LOOP('',(#284));
#654=EDGE_LOOP('',(#285));
#655=EDGE_LOOP('',(#286));
#656=EDGE_LOOP('',(#287));
#657=EDGE_LOOP('',(#288,#289,#290,#291,#292,#293));
#658=EDGE_LOOP('',(#294,#295,#296,#297));
#659=EDGE_LOOP('',(#298));
#660=EDGE_LOOP('',(#299,#300,#301,#302,#303,#304));
#661=EDGE_LOOP('',(#305,#306,#307,#308));
#662=EDGE_LOOP('',(#309,#310,#311,#312));
#663=EDGE_LOOP('',(#313,#314,#315,#316));
#664=EDGE_LOOP('',(#317));
#665=EDGE_LOOP('',(#318,#319,#320,#321,#322,#323));
#666=EDGE_LOOP('',(#324,#325,#326,#327));
#667=EDGE_LOOP('',(#328));
#668=EDGE_LOOP('',(#329,#330,#331,#332,#333,#334));
#669=EDGE_LOOP('',(#335,#336,#337,#338));
#670=EDGE_LOOP('',(#339));
#671=EDGE_LOOP('',(#340));
#672=EDGE_LOOP('',(#341));
#673=EDGE_LOOP('',(#342));
#674=EDGE_LOOP('',(#343,#344,#345,#346));
#675=EDGE_LOOP('',(#347,#348,#349,#350));
#676=EDGE_LOOP('',(#351,#352,#353,#354,#355));
#677=EDGE_LOOP('',(#356,#357,#358,#359,#360));
#678=EDGE_LOOP('',(#361,#362,#363,#364,#365));
#679=EDGE_LOOP('',(#366,#367,#368,#369,#370));
#680=EDGE_LOOP('',(#371,#372,#373,#374,#375));
#681=EDGE_LOOP('',(#376,#377,#378,#379,#380));
#682=EDGE_LOOP('',(#381,#382,#383,#384));
#683=EDGE_LOOP('',(#385,#386,#387,#388));
#684=EDGE_LOOP('',(#389,#390,#391,#392));
#685=EDGE_LOOP('',(#393,#394,#395,#396));
#686=EDGE_LOOP('',(#397,#398,#399,#400));
#687=EDGE_LOOP('',(#401,#402,#403,#404));
#688=FACE_BOUND('',#629,.T.);
#689=FACE_BOUND('',#630,.T.);
#690=FACE_BOUND('',#631,.T.);
#691=FACE_BOUND('',#632,.T.);
#692=FACE_BOUND('',#633,.T.);
#693=FACE_BOUND('',#634,.T.);
#694=FACE_BOUND('',#635,.T.);
#695=FACE_BOUND('',#636,.T.);
#696=FACE_BOUND('',#637,.T.);
#697=FACE_BOUND('',#638,.T.);
#698=FACE_BOUND('',#639,.T.);
#699=FACE_BOUND('',#640,.T.);
#700=FACE_BOUND('',#641,.T.);
#701=FACE_BOUND('',#642,.T.);
#702=FACE_BOUND('',#643,.T.);
#703=FACE_BOUND('',#644,.T.);
#704=FACE_BOUND('',#645,.T.);
#705=FACE_BOUND('',#646,.T.);
#706=FACE_BOUND('',#647,.T.);
#707=FACE_BOUND('',#648,.T.);
#708=FACE_BOUND('',#649,.T.);
#709=FACE_BOUND('',#650,.T.);
#710=FACE_BOUND('',#651,.T.);
#711=FACE_BOUND('',#652,.T.);
#712=FACE_BOUND('',#653,.T.);
#713=FACE_BOUND('',#654,.T.);
#714=FACE_BOUND('',#655,.T.);
#715=FACE_BOUND('',#656,.T.);
#716=FACE_BOUND('',#657,.T.);
#717=FACE_BOUND('',#658,.T.);
#718=FACE_BOUND('',#659,.T.);
#719=FACE_BOUND('',#660,.T.);
#720=FACE_BOUND('',#661,.T.);
#721=FACE_BOUND('',#662,.T.);
#722=FACE_BOUND('',#663,.T.);
#723=FACE_BOUND('',#664,.T.);
#724=FACE_BOUND('',#665,.T.);
#725=FACE_BOUND('',#666,.T.);
#726=FACE_BOUND('',#667,.T.);
#727=FACE_BOUND('',#668,.T.);
#728=FACE_BOUND('',#669,.T.);
#729=FACE_BOUND('',#670,.T.);
#730=FACE_BOUND('',#671,.T.);
#731=FACE_BOUND('',#672,.T.);
#732=FACE_BOUND('',#673,.T.);
#733=FACE_BOUND('',#674,.T.);
#734=FACE_BOUND('',#675,.T.);
#735=FACE_BOUND('',#676,.T.);
#736=FACE_BOUND('',#677,.T.);
#737=FACE_BOUND('',#678,.T.);
#738=FACE_BOUND('',#679,.T.);
#739=FACE_BOUND('',#680,.T.);
#740=FACE_BOUND('',#681,.T.);
#741=FACE_BOUND('',#682,.T.);
#742=FACE_BOUND('',#683,.T.);
#743=FACE_BOUND('',#684,.T.);
#744=FACE_BOUND('',#685,.T.);
#745=FACE_BOUND('',#686,.T.);
#746=FACE_BOUND('',#687,.T.);
#747=PLANE('',#823);
#748=PLANE('',#829);
#749=PLANE('',#839);
#750=PLANE('',#842);
#751=PLANE('',#845);
#752=PLANE('',#850);
#753=PLANE('',#853);
#754=PLANE('',#862);
#755=PLANE('',#865);
#756=PLANE('',#868);
#757=PLANE('',#872);
#758=PLANE('',#873);
#759=PLANE('',#877);
#760=PLANE('',#878);
#761=PLANE('',#879);
#762=PLANE('',#880);
#763=PLANE('',#884);
#764=PLANE('',#885);
#765=PLANE('',#889);
#766=ADVANCED_FACE('',(#688,#689),#747,.T.);
#767=ADVANCED_FACE('',(#690,#691,#692),#748,.T.);
#768=ADVANCED_FACE('',(#693),#26,.F.);
#769=ADVANCED_FACE('',(#694),#749,.F.);
#770=ADVANCED_FACE('',(#695),#27,.T.);
#771=ADVANCED_FACE('',(#696),#750,.F.);
#772=ADVANCED_FACE('',(#697),#28,.F.);
#773=ADVANCED_FACE('',(#698),#751,.F.);
#774=ADVANCED_FACE('',(#699),#29,.F.);
#775=ADVANCED_FACE('',(#700),#752,.T.);
#776=ADVANCED_FACE('',(#701),#30,.T.);
#777=ADVANCED_FACE('',(#702),#753,.F.);
#778=ADVANCED_FACE('',(#703),#31,.T.);
#779=ADVANCED_FACE('',(#704,#705),#32,.F.);
#780=ADVANCED_FACE('',(#706,#707),#33,.F.);
#781=ADVANCED_FACE('',(#708),#754,.T.);
#782=ADVANCED_FACE('',(#709,#710),#34,.F.);
#783=ADVANCED_FACE('',(#711,#712,#713,#714),#755,.F.);
#784=ADVANCED_FACE('',(#715,#716),#756,.T.);
#785=ADVANCED_FACE('',(#717),#757,.F.);
#786=ADVANCED_FACE('',(#718,#719),#758,.F.);
#787=ADVANCED_FACE('',(#720),#759,.T.);
#788=ADVANCED_FACE('',(#721),#760,.T.);
#789=ADVANCED_FACE('',(#722),#761,.T.);
#790=ADVANCED_FACE('',(#723,#724),#762,.F.);
#791=ADVANCED_FACE('',(#725),#763,.F.);
#792=ADVANCED_FACE('',(#726,#727),#764,.T.);
#793=ADVANCED_FACE('',(#728),#765,.T.);
#794=ADVANCED_FACE('',(#729,#730),#35,.F.);
#795=ADVANCED_FACE('',(#731,#732),#36,.F.);
#796=ADVANCED_FACE('',(#733),#37,.F.);
#797=ADVANCED_FACE('',(#734),#38,.F.);
#798=ADVANCED_FACE('',(#735),#39,.F.);
#799=ADVANCED_FACE('',(#736),#40,.F.);
#800=ADVANCED_FACE('',(#737),#41,.F.);
#801=ADVANCED_FACE('',(#738),#42,.F.);
#802=ADVANCED_FACE('',(#739),#43,.F.);
#803=ADVANCED_FACE('',(#740),#44,.F.);
#804=ADVANCED_FACE('',(#741),#45,.T.);
#805=ADVANCED_FACE('',(#742),#46,.T.);
#806=ADVANCED_FACE('',(#743),#47,.T.);
#807=ADVANCED_FACE('',(#744),#48,.T.);
#808=ADVANCED_FACE('',(#745),#49,.T.);
#809=ADVANCED_FACE('',(#746),#50,.T.);
#810=CLOSED_SHELL('',(#766,#767,#768,#769,#770,#771,#772,#773,#774,#775,#776,#777,#778,#779,#780,#781,#782,#783,#784,#785,#786,#787,#788,#789,#790,#791,#792,#793,#794,#795,#796,#797,#798,#799,#800,#801,#802,#803,#804,#805,#806,#807,#808,#809));
#811=STYLED_ITEM('',(#812),#819);
#812=PRESENTATION_STYLE_ASSIGNMENT((#813));
#813=SURFACE_STYLE_USAGE(.BOTH.,#814);
#814=SURFACE_SIDE_STYLE('',(#815));
#815=SURFACE_STYLE_FILL_AREA(#816);
#816=FILL_AREA_STYLE('',(#817));
#817=FILL_AREA_STYLE_COLOUR('',#818);
#818=COLOUR_RGB('',0.615686274509804,0.811764705882353,0.929411764705882);
#819=MANIFOLD_SOLID_BREP('Swerve Camera Mount Base A',#810);
#820=SHAPE_DEFINITION_REPRESENTATION(#1408,#821);
#821=SHAPE_REPRESENTATION('Swerve Camera Mount Base A',(#822),#1403);
#822=AXIS2_PLACEMENT_3D('',#1162,#914,#915);
#823=AXIS2_PLACEMENT_3D('',#1163,#916,#917);
#824=AXIS2_PLACEMENT_3D('',#1164,#918,#919);
#825=AXIS2_PLACEMENT_3D('',#1169,#921,#922);
#826=AXIS2_PLACEMENT_3D('',#1171,#923,#924);
#827=AXIS2_PLACEMENT_3D('',#1179,#928,#929);
#828=AXIS2_PLACEMENT_3D('',#1183,#931,#932);
#829=AXIS2_PLACEMENT_3D('',#1184,#933,#934);
#830=AXIS2_PLACEMENT_3D('',#1185,#935,#936);
#831=AXIS2_PLACEMENT_3D('',#1188,#937,#938);
#832=AXIS2_PLACEMENT_3D('',#1192,#940,#941);
#833=AXIS2_PLACEMENT_3D('',#1206,#948,#949);
#834=AXIS2_PLACEMENT_3D('',#1210,#951,#952);
#835=AXIS2_PLACEMENT_3D('',#1217,#956,#957);
#836=AXIS2_PLACEMENT_3D('',#1219,#958,#959);
#837=AXIS2_PLACEMENT_3D('',#1221,#960,#961);
#838=AXIS2_PLACEMENT_3D('',#1222,#962,#963);
#839=AXIS2_PLACEMENT_3D('',#1236,#966,#967);
#840=AXIS2_PLACEMENT_3D('',#1240,#970,#971);
#841=AXIS2_PLACEMENT_3D('',#1241,#972,#973);
#842=AXIS2_PLACEMENT_3D('',#1244,#975,#976);
#843=AXIS2_PLACEMENT_3D('',#1248,#979,#980);
#844=AXIS2_PLACEMENT_3D('',#1251,#982,#983);
#845=AXIS2_PLACEMENT_3D('',#1254,#985,#986);
#846=AXIS2_PLACEMENT_3D('',#1258,#989,#990);
#847=AXIS2_PLACEMENT_3D('',#1260,#991,#992);
#848=AXIS2_PLACEMENT_3D('',#1261,#993,#994);
#849=AXIS2_PLACEMENT_3D('',#1262,#995,#996);
#850=AXIS2_PLACEMENT_3D('',#1265,#998,#999);
#851=AXIS2_PLACEMENT_3D('',#1271,#1003,#1004);
#852=AXIS2_PLACEMENT_3D('',#1272,#1005,#1006);
#853=AXIS2_PLACEMENT_3D('',#1275,#1008,#1009);
#854=AXIS2_PLACEMENT_3D('',#1279,#1012,#1013);
#855=AXIS2_PLACEMENT_3D('',#1281,#1014,#1015);
#856=AXIS2_PLACEMENT_3D('',#1282,#1016,#1017);
#857=AXIS2_PLACEMENT_3D('',#1283,#1018,#1019);
#858=AXIS2_PLACEMENT_3D('',#1286,#1021,#1022);
#859=AXIS2_PLACEMENT_3D('',#1287,#1023,#1024);
#860=AXIS2_PLACEMENT_3D('',#1289,#1025,#1026);
#861=AXIS2_PLACEMENT_3D('',#1290,#1027,#1028);
#862=AXIS2_PLACEMENT_3D('',#1292,#1029,#1030);
#863=AXIS2_PLACEMENT_3D('',#1294,#1032,#1033);
#864=AXIS2_PLACEMENT_3D('',#1295,#1034,#1035);
#865=AXIS2_PLACEMENT_3D('',#1297,#1036,#1037);
#866=AXIS2_PLACEMENT_3D('',#1298,#1038,#1039);
#867=AXIS2_PLACEMENT_3D('',#1299,#1040,#1041);
#868=AXIS2_PLACEMENT_3D('',#1300,#1042,#1043);
#869=AXIS2_PLACEMENT_3D('',#1301,#1044,#1045);
#870=AXIS2_PLACEMENT_3D('',#1310,#1049,#1050);
#871=AXIS2_PLACEMENT_3D('',#1314,#1052,#1053);
#872=AXIS2_PLACEMENT_3D('',#1315,#1054,#1055);
#873=AXIS2_PLACEMENT_3D('',#1321,#1059,#1060);
#874=AXIS2_PLACEMENT_3D('',#1322,#1061,#1062);
#875=AXIS2_PLACEMENT_3D('',#1328,#1065,#1066);
#876=AXIS2_PLACEMENT_3D('',#1332,#1068,#1069);
#877=AXIS2_PLACEMENT_3D('',#1333,#1070,#1071);
#878=AXIS2_PLACEMENT_3D('',#1336,#1074,#1075);
#879=AXIS2_PLACEMENT_3D('',#1339,#1078,#1079);
#880=AXIS2_PLACEMENT_3D('',#1348,#1084,#1085);
#881=AXIS2_PLACEMENT_3D('',#1349,#1086,#1087);
#882=AXIS2_PLACEMENT_3D('',#1355,#1090,#1091);
#883=AXIS2_PLACEMENT_3D('',#1359,#1093,#1094);
#884=AXIS2_PLACEMENT_3D('',#1360,#1095,#1096);
#885=AXIS2_PLACEMENT_3D('',#1366,#1100,#1101);
#886=AXIS2_PLACEMENT_3D('',#1367,#1102,#1103);
#887=AXIS2_PLACEMENT_3D('',#1370,#1105,#1106);
#888=AXIS2_PLACEMENT_3D('',#1374,#1108,#1109);
#889=AXIS2_PLACEMENT_3D('',#1375,#1110,#1111);
#890=AXIS2_PLACEMENT_3D('',#1378,#1114,#1115);
#891=AXIS2_PLACEMENT_3D('',#1379,#1116,#1117);
#892=AXIS2_PLACEMENT_3D('',#1380,#1118,#1119);
#893=AXIS2_PLACEMENT_3D('',#1381,#1120,#1121);
#894=AXIS2_PLACEMENT_3D('',#1382,#1122,#1123);
#895=AXIS2_PLACEMENT_3D('',#1383,#1124,#1125);
#896=AXIS2_PLACEMENT_3D('',#1384,#1126,#1127);
#897=AXIS2_PLACEMENT_3D('',#1385,#1128,#1129);
#898=AXIS2_PLACEMENT_3D('',#1386,#1130,#1131);
#899=AXIS2_PLACEMENT_3D('',#1387,#1132,#1133);
#900=AXIS2_PLACEMENT_3D('',#1388,#1134,#1135);
#901=AXIS2_PLACEMENT_3D('',#1389,#1136,#1137);
#902=AXIS2_PLACEMENT_3D('',#1390,#1138,#1139);
#903=AXIS2_PLACEMENT_3D('',#1391,#1140,#1141);
#904=AXIS2_PLACEMENT_3D('',#1392,#1142,#1143);
#905=AXIS2_PLACEMENT_3D('',#1393,#1144,#1145);
#906=AXIS2_PLACEMENT_3D('',#1394,#1146,#1147);
#907=AXIS2_PLACEMENT_3D('',#1395,#1148,#1149);
#908=AXIS2_PLACEMENT_3D('',#1396,#1150,#1151);
#909=AXIS2_PLACEMENT_3D('',#1397,#1152,#1153);
#910=AXIS2_PLACEMENT_3D('',#1398,#1154,#1155);
#911=AXIS2_PLACEMENT_3D('',#1399,#1156,#1157);
#912=AXIS2_PLACEMENT_3D('',#1400,#1158,#1159);
#913=AXIS2_PLACEMENT_3D('',#1401,#1160,#1161);
#914=DIRECTION('',(0.,0.,1.));
#915=DIRECTION('',(1.,0.,0.));
#916=DIRECTION('',(0.,0.,1.));
#917=DIRECTION('',(1.,0.,0.));
#918=DIRECTION('',(0.,0.,1.));
#919=DIRECTION('',(0.,-1.,0.));
#920=DIRECTION('',(1.17993758708962E-16,-1.,0.));
#921=DIRECTION('',(0.,0.,1.));
#922=DIRECTION('',(1.,0.,0.));
#923=DIRECTION('',(0.,0.,1.));
#924=DIRECTION('',(1.,0.,0.));
#925=DIRECTION('',(1.31657108681335E-15,-1.,0.));
#926=DIRECTION('',(-0.766044443118978,-0.64278760968654,0.));
#927=DIRECTION('',(-0.64278760968654,0.766044443118978,0.));
#928=DIRECTION('',(0.,0.,1.));
#929=DIRECTION('',(1.,0.,0.));
#930=DIRECTION('',(-0.121404647975309,0.992603098650206,0.));
#931=DIRECTION('',(0.,0.,1.));
#932=DIRECTION('',(1.,0.,0.));
#933=DIRECTION('',(0.,0.,1.));
#934=DIRECTION('',(1.,0.,0.));
#935=DIRECTION('',(0.,0.,1.));
#936=DIRECTION('',(1.,0.,0.));
#937=DIRECTION('',(0.,0.,1.));
#938=DIRECTION('',(1.,0.,0.));
#939=DIRECTION('',(0.,1.,0.));
#940=DIRECTION('',(0.,0.,1.));
#941=DIRECTION('',(1.,0.,0.));
#942=DIRECTION('',(1.,0.,0.));
#943=DIRECTION('',(0.64278760968654,-0.766044443118978,0.));
#944=DIRECTION('',(-0.766044443118978,-0.64278760968654,0.));
#945=DIRECTION('',(0.64278760968654,-0.766044443118978,0.));
#946=DIRECTION('',(-0.766044443118978,-0.642787609686539,0.));
#947=DIRECTION('',(1.,0.,0.));
#948=DIRECTION('',(0.,0.,1.));
#949=DIRECTION('',(1.,0.,0.));
#950=DIRECTION('',(0.953554534178185,-0.301220434811824,0.));
#951=DIRECTION('',(0.,0.,1.));
#952=DIRECTION('',(1.,0.,0.));
#953=DIRECTION('',(-0.766044443118978,-0.64278760968654,0.));
#954=DIRECTION('',(-0.64278760968654,0.766044443118978,0.));
#955=DIRECTION('',(1.31657108681335E-15,-1.,0.));
#956=DIRECTION('',(0.,0.,1.));
#957=DIRECTION('',(0.,-1.,0.));
#958=DIRECTION('',(0.,0.,1.));
#959=DIRECTION('',(0.,-1.,0.));
#960=DIRECTION('',(0.,0.,-1.));
#961=DIRECTION('',(-1.,0.,0.));
#962=DIRECTION('',(0.,0.,1.));
#963=DIRECTION('',(1.,0.,0.));
#964=DIRECTION('',(0.,0.,-1.));
#965=DIRECTION('',(0.,0.,-1.));
#966=DIRECTION('',(-0.992603098650206,-0.121404647975309,0.));
#967=DIRECTION('',(0.121404647975309,-0.992603098650206,0.));
#968=DIRECTION('',(-0.121404647975309,0.992603098650206,0.));
#969=DIRECTION('',(0.,0.,-1.));
#970=DIRECTION('',(0.,0.,-1.));
#971=DIRECTION('',(-1.,0.,0.));
#972=DIRECTION('',(0.,0.,1.));
#973=DIRECTION('',(1.,0.,0.));
#974=DIRECTION('',(0.,0.,-1.));
#975=DIRECTION('',(1.,1.17993758708962E-16,0.));
#976=DIRECTION('',(-1.17993758708963E-16,1.,0.));
#977=DIRECTION('',(1.17993758708962E-16,-1.,0.));
#978=DIRECTION('',(0.,0.,1.));
#979=DIRECTION('',(0.,0.,-1.));
#980=DIRECTION('',(-1.,0.,0.));
#981=DIRECTION('',(0.,0.,-1.));
#982=DIRECTION('',(0.,0.,1.));
#983=DIRECTION('',(1.,0.,0.));
#984=DIRECTION('',(0.,0.,-1.));
#985=DIRECTION('',(1.,1.31657108681335E-15,0.));
#986=DIRECTION('',(-1.31657108681335E-15,1.,0.));
#987=DIRECTION('',(1.31657108681335E-15,-1.,0.));
#988=DIRECTION('',(0.,0.,-1.));
#989=DIRECTION('',(1.,1.31657108681335E-15,0.));
#990=DIRECTION('',(1.31657108681335E-15,-1.,0.));
#991=DIRECTION('',(1.,1.31657108681335E-15,0.));
#992=DIRECTION('',(1.31657108681335E-15,-1.,0.));
#993=DIRECTION('',(0.,0.,-1.));
#994=DIRECTION('',(-1.,0.,0.));
#995=DIRECTION('',(0.,0.,1.));
#996=DIRECTION('',(1.,0.,0.));
#997=DIRECTION('',(0.,0.,-1.));
#998=DIRECTION('',(-1.,0.,0.));
#999=DIRECTION('',(0.,0.,1.));
#1000=DIRECTION('',(0.,0.,-1.));
#1001=DIRECTION('',(0.,1.,0.));
#1002=DIRECTION('',(0.,0.,-1.));
#1003=DIRECTION('',(0.,0.,-1.));
#1004=DIRECTION('',(-1.,0.,0.));
#1005=DIRECTION('',(0.,0.,1.));
#1006=DIRECTION('',(1.,0.,0.));
#1007=DIRECTION('',(0.,0.,-1.));
#1008=DIRECTION('',(0.,1.,0.));
#1009=DIRECTION('',(0.,0.,1.));
#1010=DIRECTION('',(1.,0.,0.));
#1011=DIRECTION('',(0.,0.,-1.));
#1012=DIRECTION('',(0.,1.,0.));
#1013=DIRECTION('',(1.,0.,0.));
#1014=DIRECTION('',(0.,1.,0.));
#1015=DIRECTION('',(1.,0.,0.));
#1016=DIRECTION('',(0.,0.,-1.));
#1017=DIRECTION('',(-1.,0.,0.));
#1018=DIRECTION('',(0.,0.,1.));
#1019=DIRECTION('',(1.,0.,0.));
#1020=DIRECTION('',(0.,0.,-1.));
#1021=DIRECTION('',(0.,0.,-1.));
#1022=DIRECTION('',(-1.,0.,0.));
#1023=DIRECTION('',(0.,0.,1.));
#1024=DIRECTION('',(0.,-1.,0.));
#1025=DIRECTION('',(0.,0.,-1.));
#1026=DIRECTION('',(-1.,0.,0.));
#1027=DIRECTION('',(0.,0.,1.));
#1028=DIRECTION('',(0.,-1.,0.));
#1029=DIRECTION('',(0.301220434811824,0.953554534178185,0.));
#1030=DIRECTION('',(-0.953554534178185,0.301220434811824,0.));
#1031=DIRECTION('',(0.953554534178185,-0.301220434811824,0.));
#1032=DIRECTION('',(0.,0.,-1.));
#1033=DIRECTION('',(-1.,0.,0.));
#1034=DIRECTION('',(0.,0.,1.));
#1035=DIRECTION('',(0.,-1.,0.));
#1036=DIRECTION('',(0.,0.,1.));
#1037=DIRECTION('',(1.,0.,0.));
#1038=DIRECTION('',(0.,0.,1.));
#1039=DIRECTION('',(1.,0.,0.));
#1040=DIRECTION('',(0.,0.,1.));
#1041=DIRECTION('',(1.,0.,0.));
#1042=DIRECTION('',(0.64278760968654,-0.766044443118978,0.));
#1043=DIRECTION('',(0.766044443118978,0.64278760968654,0.));
#1044=DIRECTION('',(0.64278760968654,-0.766044443118978,0.));
#1045=DIRECTION('',(0.766044443118978,0.64278760968654,0.));
#1046=DIRECTION('',(0.,0.,-1.));
#1047=DIRECTION('',(-0.766044443118978,-0.64278760968654,0.));
#1048=DIRECTION('',(0.,0.,-1.));
#1049=DIRECTION('',(0.64278760968654,-0.766044443118978,0.));
#1050=DIRECTION('',(0.766044443118978,0.64278760968654,0.));
#1051=DIRECTION('',(-0.766044443118978,-0.64278760968654,0.));
#1052=DIRECTION('',(0.64278760968654,-0.766044443118978,0.));
#1053=DIRECTION('',(0.766044443118978,0.64278760968654,0.));
#1054=DIRECTION('',(-0.766044443118978,-0.64278760968654,0.));
#1055=DIRECTION('',(0.64278760968654,-0.766044443118978,0.));
#1056=DIRECTION('',(0.,0.,-1.));
#1057=DIRECTION('',(-0.64278760968654,0.766044443118978,0.));
#1058=DIRECTION('',(-0.64278760968654,0.766044443118978,0.));
#1059=DIRECTION('',(0.64278760968654,-0.766044443118978,0.));
#1060=DIRECTION('',(0.766044443118978,0.64278760968654,0.));
#1061=DIRECTION('',(0.64278760968654,-0.766044443118978,0.));
#1062=DIRECTION('',(0.766044443118978,0.64278760968654,0.));
#1063=DIRECTION('',(-0.766044443118978,-0.64278760968654,0.));
#1064=DIRECTION('',(0.,0.,-1.));
#1065=DIRECTION('',(0.64278760968654,-0.766044443118978,0.));
#1066=DIRECTION('',(0.766044443118978,0.64278760968654,0.));
#1067=DIRECTION('',(-0.766044443118978,-0.64278760968654,0.));
#1068=DIRECTION('',(0.64278760968654,-0.766044443118978,0.));
#1069=DIRECTION('',(0.766044443118978,0.64278760968654,0.));
#1070=DIRECTION('',(-0.766044443118978,-0.64278760968654,0.));
#1071=DIRECTION('',(0.64278760968654,-0.766044443118978,0.));
#1072=DIRECTION('',(-0.64278760968654,0.766044443118978,0.));
#1073=DIRECTION('',(-0.64278760968654,0.766044443118978,0.));
#1074=DIRECTION('',(0.,0.,1.));
#1075=DIRECTION('',(1.,0.,0.));
#1076=DIRECTION('',(-0.64278760968654,0.766044443118978,0.));
#1077=DIRECTION('',(-0.64278760968654,0.766044443118978,0.));
#1078=DIRECTION('',(0.766044443118978,0.64278760968654,0.));
#1079=DIRECTION('',(-0.64278760968654,0.766044443118978,0.));
#1080=DIRECTION('',(0.,0.,-1.));
#1081=DIRECTION('',(0.64278760968654,-0.766044443118978,0.));
#1082=DIRECTION('',(0.,0.,-1.));
#1083=DIRECTION('',(0.64278760968654,-0.766044443118978,0.));
#1084=DIRECTION('',(0.64278760968654,-0.766044443118978,0.));
#1085=DIRECTION('',(0.766044443118978,0.64278760968654,0.));
#1086=DIRECTION('',(0.64278760968654,-0.766044443118978,0.));
#1087=DIRECTION('',(0.766044443118978,0.64278760968654,0.));
#1088=DIRECTION('',(-0.766044443118978,-0.64278760968654,0.));
#1089=DIRECTION('',(0.,0.,-1.));
#1090=DIRECTION('',(0.64278760968654,-0.766044443118978,0.));
#1091=DIRECTION('',(0.766044443118978,0.64278760968654,0.));
#1092=DIRECTION('',(-0.766044443118978,-0.64278760968654,0.));
#1093=DIRECTION('',(0.64278760968654,-0.766044443118978,0.));
#1094=DIRECTION('',(0.766044443118978,0.64278760968654,0.));
#1095=DIRECTION('',(0.766044443118978,0.64278760968654,0.));
#1096=DIRECTION('',(-0.64278760968654,0.766044443118978,0.));
#1097=DIRECTION('',(0.,0.,-1.));
#1098=DIRECTION('',(0.64278760968654,-0.766044443118978,0.));
#1099=DIRECTION('',(0.64278760968654,-0.766044443118978,0.));
#1100=DIRECTION('',(0.642787609686539,-0.766044443118978,0.));
#1101=DIRECTION('',(0.766044443118978,0.642787609686539,0.));
#1102=DIRECTION('',(0.642787609686539,-0.766044443118978,0.));
#1103=DIRECTION('',(0.766044443118978,0.642787609686539,0.));
#1104=DIRECTION('',(-0.766044443118978,-0.642787609686539,0.));
#1105=DIRECTION('',(0.642787609686539,-0.766044443118978,0.));
#1106=DIRECTION('',(0.766044443118978,0.642787609686539,0.));
#1107=DIRECTION('',(-0.766044443118978,-0.64278760968654,0.));
#1108=DIRECTION('',(0.642787609686539,-0.766044443118978,0.));
#1109=DIRECTION('',(0.766044443118978,0.642787609686539,0.));
#1110=DIRECTION('',(0.,0.,1.));
#1111=DIRECTION('',(1.,0.,0.));
#1112=DIRECTION('',(0.64278760968654,-0.766044443118978,0.));
#1113=DIRECTION('',(0.64278760968654,-0.766044443118978,0.));
#1114=DIRECTION('',(0.64278760968654,-0.766044443118978,0.));
#1115=DIRECTION('',(0.766044443118978,0.64278760968654,0.));
#1116=DIRECTION('',(0.64278760968654,-0.766044443118978,0.));
#1117=DIRECTION('',(0.766044443118978,0.64278760968654,0.));
#1118=DIRECTION('',(-0.766044443118978,-0.64278760968654,0.));
#1119=DIRECTION('',(0.64278760968654,-0.766044443118978,0.));
#1120=DIRECTION('',(-0.0871557427476578,-0.996194698091746,0.));
#1121=DIRECTION('',(0.996194698091745,-0.0871557427476579,0.));
#1122=DIRECTION('',(-0.996194698091745,0.0871557427476579,0.));
#1123=DIRECTION('',(0.0871557427476578,0.996194698091746,0.));
#1124=DIRECTION('',(-0.64278760968654,0.766044443118978,0.));
#1125=DIRECTION('',(-0.766044443118978,-0.64278760968654,0.));
#1126=DIRECTION('',(0.087155742747658,0.996194698091745,0.));
#1127=DIRECTION('',(-0.996194698091745,0.087155742747658,0.));
#1128=DIRECTION('',(0.64278760968654,-0.766044443118978,0.));
#1129=DIRECTION('',(0.766044443118978,0.64278760968654,0.));
#1130=DIRECTION('',(0.996194698091745,-0.087155742747658,0.));
#1131=DIRECTION('',(0.087155742747658,0.996194698091745,0.));
#1132=DIRECTION('',(0.766044443118978,0.642787609686539,0.));
#1133=DIRECTION('',(-0.642787609686539,0.766044443118978,0.));
#1134=DIRECTION('',(-0.766044443118978,-0.64278760968654,0.));
#1135=DIRECTION('',(0.64278760968654,-0.766044443118978,0.));
#1136=DIRECTION('',(-0.087155742747658,-0.996194698091745,0.));
#1137=DIRECTION('',(-0.996194698091745,0.0871557427476577,0.));
#1138=DIRECTION('',(-0.996194698091745,0.0871557427476577,0.));
#1139=DIRECTION('',(0.087155742747658,0.996194698091745,0.));
#1140=DIRECTION('',(-0.64278760968654,0.766044443118978,0.));
#1141=DIRECTION('',(-0.766044443118978,-0.64278760968654,0.));
#1142=DIRECTION('',(0.087155742747658,0.996194698091745,0.));
#1143=DIRECTION('',(0.996194698091745,-0.0871557427476579,0.));
#1144=DIRECTION('',(0.64278760968654,-0.766044443118978,0.));
#1145=DIRECTION('',(0.766044443118978,0.64278760968654,0.));
#1146=DIRECTION('',(0.996194698091745,-0.0871557427476579,0.));
#1147=DIRECTION('',(-0.087155742747658,-0.996194698091745,0.));
#1148=DIRECTION('',(0.766044443118978,0.64278760968654,0.));
#1149=DIRECTION('',(-0.64278760968654,0.766044443118978,0.));
#1150=DIRECTION('',(0.64278760968654,-0.766044443118978,0.));
#1151=DIRECTION('',(0.766044443118978,0.64278760968654,0.));
#1152=DIRECTION('',(-0.64278760968654,0.766044443118978,0.));
#1153=DIRECTION('',(-0.766044443118978,-0.64278760968654,0.));
#1154=DIRECTION('',(0.64278760968654,-0.766044443118978,0.));
#1155=DIRECTION('',(0.766044443118978,0.64278760968654,0.));
#1156=DIRECTION('',(-0.64278760968654,0.766044443118978,0.));
#1157=DIRECTION('',(-0.766044443118978,-0.64278760968654,0.));
#1158=DIRECTION('',(0.,0.,-1.));
#1159=DIRECTION('',(-1.,0.,0.));
#1160=DIRECTION('',(0.,0.,-1.));
#1161=DIRECTION('',(-1.,0.,0.));
#1162=CARTESIAN_POINT('',(0.,0.,0.));
#1163=CARTESIAN_POINT('',(-0.00317499999999995,0.034925,0.00635));
#1164=CARTESIAN_POINT('',(0.,0.06985,0.00635));
#1165=CARTESIAN_POINT('',(0.,0.066675,0.00635));
#1166=CARTESIAN_POINT('',(-0.005715,0.0624990879900877,0.00635));
#1167=CARTESIAN_POINT('',(-0.005715,0.06985,0.00635));
#1168=CARTESIAN_POINT('',(-0.005715,0.0558829150654902,0.00635));
#1169=CARTESIAN_POINT('',(-0.004445,0.0558829150654902,0.00635));
#1170=CARTESIAN_POINT('',(-0.00511748139715886,0.0548055716798998,0.00635));
#1171=CARTESIAN_POINT('',(-0.00999297152656061,0.0469948321343698,0.00635));
#1172=CARTESIAN_POINT('',(-0.000785471526560604,0.0469948321343698,0.00635));
#1173=CARTESIAN_POINT('',(-0.000785471526560591,0.0377304068688991,0.00635));
#1174=CARTESIAN_POINT('',(-0.00078547152656058,0.0300114553946246,0.00635));
#1175=CARTESIAN_POINT('',(0.000231744015344262,0.0308650005806648,0.00635));
#1176=CARTESIAN_POINT('',(0.00746843858247233,0.0369373083228846,0.00635));
#1177=CARTESIAN_POINT('',(0.00406169456712811,0.0409973077422199,0.00635));
#1178=CARTESIAN_POINT('',(0.0122810487959465,0.0312018628112211,0.00635));
#1179=CARTESIAN_POINT('',(0.0381,0.04445,0.00635));
#1180=CARTESIAN_POINT('',(0.00929515437872033,0.0409268978180805,0.00635));
#1181=CARTESIAN_POINT('',(0.00748394054375313,0.0557353626906297,0.00635));
#1182=CARTESIAN_POINT('',(0.00567272670878592,0.0705438275631789,0.00635));
#1183=CARTESIAN_POINT('',(5.20417042793042E-18,0.06985,0.00635));
#1184=CARTESIAN_POINT('',(-0.00317499999999995,0.034925,0.00635));
#1185=CARTESIAN_POINT('',(-0.0099929715265606,0.0284659816034283,0.00635));
#1186=CARTESIAN_POINT('',(-0.00511748139715886,0.0206552420578983,0.00635));
#1187=CARTESIAN_POINT('',(-0.000785471526560604,0.0284659816034283,0.00635));
#1188=CARTESIAN_POINT('',(-0.004445,0.0195778986723079,0.00635));
#1189=CARTESIAN_POINT('',(-0.005715,0.0195778986723079,0.00635));
#1190=CARTESIAN_POINT('',(-0.005715,0.0101563188788113,0.00635));
#1191=CARTESIAN_POINT('',(-0.005715,6.99885645712712E-19,0.00635));
#1192=CARTESIAN_POINT('',(1.82312660836563E-18,7.83623691850558E-19,0.00635));
#1193=CARTESIAN_POINT('',(-1.04982846856907E-18,-0.005715,0.00635));
#1194=CARTESIAN_POINT('',(0.0163854690257266,-0.005715,0.00635));
#1195=CARTESIAN_POINT('',(0.0283371694479965,-0.005715,0.00635));
#1196=CARTESIAN_POINT('',(-0.00469419341772181,0.0336502453635028,0.00635));
#1197=CARTESIAN_POINT('',(0.0232027585266796,0.000403952661334385,0.00635));
#1198=CARTESIAN_POINT('',(0.0247219519444014,0.00167870729783175,0.00635));
#1199=CARTESIAN_POINT('',(0.0319586465115295,0.00775101504005154,0.00635));
#1200=CARTESIAN_POINT('',(0.0368566880973409,0.00191375638348492,0.00635));
#1201=CARTESIAN_POINT('',(0.0376730283616429,0.000940879940723819,0.00635));
#1202=CARTESIAN_POINT('',(0.029890016819554,-0.00558984217369142,0.00635));
#1203=CARTESIAN_POINT('',(0.0297408595304095,-0.005715,0.00635));
#1204=CARTESIAN_POINT('',(0.0163854690257266,-0.005715,0.00635));
#1205=CARTESIAN_POINT('',(0.0635,-0.005715,0.00635));
#1206=CARTESIAN_POINT('',(0.0635,-1.0842021724855E-17,0.00635));
#1207=CARTESIAN_POINT('',(0.0652214747849496,0.00544956416282833,0.00635));
#1208=CARTESIAN_POINT('',(0.0310648358217156,0.016239379817245,0.00635));
#1209=CARTESIAN_POINT('',(0.0293587335919783,0.0167783241954161,0.00635));
#1210=CARTESIAN_POINT('',(0.0381,0.04445,0.00635));
#1211=CARTESIAN_POINT('',(0.0129656603604359,0.0299449542871096,0.00635));
#1212=CARTESIAN_POINT('',(0.00539980889049685,0.0235964511091416,0.00635));
#1213=CARTESIAN_POINT('',(0.00442693244773574,0.0227801108448397,0.00635));
#1214=CARTESIAN_POINT('',(-0.000471109138075691,0.0286173695014064,0.00635));
#1215=CARTESIAN_POINT('',(-0.000785471526560581,0.0289920120072597,0.00635));
#1216=CARTESIAN_POINT('',(-0.000785471526560591,0.0377304068688991,0.00635));
#1217=CARTESIAN_POINT('',(0.0635,0.,0.00635));
#1218=CARTESIAN_POINT('',(0.0635,-0.003175,0.00635));
#1219=CARTESIAN_POINT('',(0.,0.,0.00635));
#1220=CARTESIAN_POINT('',(0.,-0.003175,0.00635));
#1221=CARTESIAN_POINT('',(0.0381,0.04445,0.00635));
#1222=CARTESIAN_POINT('',(0.0381,0.04445,0.));
#1223=CARTESIAN_POINT('',(0.00929515437872033,0.0409268978180805,0.));
#1224=CARTESIAN_POINT('',(0.0293587335919783,0.0167783241954161,0.));
#1225=CARTESIAN_POINT('',(0.00929515437872033,0.0409268978180805,0.00635));
#1226=CARTESIAN_POINT('',(0.0122810487959465,0.0312018628112211,0.00635));
#1227=CARTESIAN_POINT('',(0.0124618411518578,0.0308495212745338,0.00635));
#1228=CARTESIAN_POINT('',(0.0126496867899775,0.0305011808261328,0.00635902283060935));
#1229=CARTESIAN_POINT('',(0.0128446094457792,0.0301567628507824,0.00637289579778512));
#1230=CARTESIAN_POINT('',(0.0128446094457792,0.0301567628507824,0.00637289579778512));
#1231=CARTESIAN_POINT('',(0.0128446094457792,0.0301567628507824,0.00637289579778512));
#1232=CARTESIAN_POINT('',(0.0128843105129255,0.0300866131746991,0.00635763897674745));
#1233=CARTESIAN_POINT('',(0.0129246552642559,0.0300160079076733,0.00635));
#1234=CARTESIAN_POINT('',(0.0129656603604359,0.0299449542871096,0.00635));
#1235=CARTESIAN_POINT('',(0.0293587335919783,0.0167783241954161,0.00635));
#1236=CARTESIAN_POINT('',(0.00748394054375313,0.0557353626906297,0.00635));
#1237=CARTESIAN_POINT('',(0.00748394054375313,0.0557353626906297,0.));
#1238=CARTESIAN_POINT('',(0.00567272670878592,0.0705438275631789,0.));
#1239=CARTESIAN_POINT('',(0.00567272670878592,0.0705438275631789,0.00635));
#1240=CARTESIAN_POINT('',(5.20417042793042E-18,0.06985,0.00635));
#1241=CARTESIAN_POINT('',(5.20417042793042E-18,0.06985,0.));
#1242=CARTESIAN_POINT('',(-0.005715,0.06985,0.));
#1243=CARTESIAN_POINT('',(-0.005715,0.06985,0.00635));
#1244=CARTESIAN_POINT('',(-0.005715,0.0624990879900877,0.00635));
#1245=CARTESIAN_POINT('',(-0.005715,0.0624990879900877,0.));
#1246=CARTESIAN_POINT('',(-0.005715,0.0558829150654902,0.));
#1247=CARTESIAN_POINT('',(-0.005715,0.0558829150654902,0.00635));
#1248=CARTESIAN_POINT('',(-0.00999297152656061,0.0469948321343698,0.00635));
#1249=CARTESIAN_POINT('',(-0.00511748139715886,0.0548055716798998,0.00635));
#1250=CARTESIAN_POINT('',(-0.00511748139715886,0.0548055716798998,0.));
#1251=CARTESIAN_POINT('',(-0.00999297152656061,0.0469948321343698,0.));
#1252=CARTESIAN_POINT('',(-0.000785471526560604,0.0469948321343698,0.));
#1253=CARTESIAN_POINT('',(-0.000785471526560604,0.0469948321343698,0.00635));
#1254=CARTESIAN_POINT('',(-0.000785471526560591,0.0377304068688991,0.00635));
#1255=CARTESIAN_POINT('',(-0.000785471526560591,0.0377304068688991,0.));
#1256=CARTESIAN_POINT('',(-0.000785471526560604,0.0284659816034283,0.));
#1257=CARTESIAN_POINT('',(-0.000785471526560604,0.0284659816034283,0.00635));
#1258=CARTESIAN_POINT('',(-0.00078547152656058,0.0289920120072597,0.00762));
#1259=CARTESIAN_POINT('',(-0.00078547152656058,0.0295463285706926,0.00640100667013775));
#1260=CARTESIAN_POINT('',(-0.000785471526560581,0.0300114553946246,0.00762));
#1261=CARTESIAN_POINT('',(-0.0099929715265606,0.0284659816034283,0.00635));
#1262=CARTESIAN_POINT('',(-0.0099929715265606,0.0284659816034283,0.));
#1263=CARTESIAN_POINT('',(-0.00511748139715886,0.0206552420578983,0.));
#1264=CARTESIAN_POINT('',(-0.00511748139715886,0.0206552420578983,0.00635));
#1265=CARTESIAN_POINT('',(-0.005715,0.0101563188788113,0.00635));
#1266=CARTESIAN_POINT('',(-0.005715,0.0195778986723079,0.00635));
#1267=CARTESIAN_POINT('',(-0.005715,0.0195778986723079,0.));
#1268=CARTESIAN_POINT('',(-0.005715,0.0101563188788113,0.));
#1269=CARTESIAN_POINT('',(-0.005715,6.99885645712712E-19,0.));
#1270=CARTESIAN_POINT('',(-0.005715,6.99885645712712E-19,0.00635));
#1271=CARTESIAN_POINT('',(1.82312660836563E-18,7.83623691850558E-19,0.00635));
#1272=CARTESIAN_POINT('',(1.82312660836563E-18,7.83623691850558E-19,0.));
#1273=CARTESIAN_POINT('',(-1.04982846856907E-18,-0.005715,0.));
#1274=CARTESIAN_POINT('',(-1.04982846856907E-18,-0.005715,0.00635));
#1275=CARTESIAN_POINT('',(0.0163854690257266,-0.005715,0.00635));
#1276=CARTESIAN_POINT('',(0.0163854690257266,-0.005715,0.));
#1277=CARTESIAN_POINT('',(0.0635,-0.005715,0.));
#1278=CARTESIAN_POINT('',(0.0635,-0.005715,0.00635));
#1279=CARTESIAN_POINT('',(0.0297408595304095,-0.005715,0.00762));
#1280=CARTESIAN_POINT('',(0.0289776110045456,-0.005715,0.0064485884283078));
#1281=CARTESIAN_POINT('',(0.0283371694479965,-0.005715,0.00762));
#1282=CARTESIAN_POINT('',(0.0635,-1.0842021724855E-17,0.00635));
#1283=CARTESIAN_POINT('',(0.0635,-1.0842021724855E-17,0.));
#1284=CARTESIAN_POINT('',(0.0652214747849496,0.00544956416282833,0.));
#1285=CARTESIAN_POINT('',(0.0652214747849496,0.00544956416282833,0.00635));
#1286=CARTESIAN_POINT('',(0.,0.,0.00635));
#1287=CARTESIAN_POINT('',(0.,0.,0.));
#1288=CARTESIAN_POINT('',(0.,-0.003175,0.));
#1289=CARTESIAN_POINT('',(0.0635,0.,0.00635));
#1290=CARTESIAN_POINT('',(0.0635,0.,0.));
#1291=CARTESIAN_POINT('',(0.0635,-0.003175,0.));
#1292=CARTESIAN_POINT('',(0.0310648358217156,0.016239379817245,0.00635));
#1293=CARTESIAN_POINT('',(0.0310648358217156,0.016239379817245,0.));
#1294=CARTESIAN_POINT('',(0.,0.06985,0.00635));
#1295=CARTESIAN_POINT('',(0.,0.06985,0.));
#1296=CARTESIAN_POINT('',(0.,0.066675,0.));
#1297=CARTESIAN_POINT('',(-0.00317499999999995,0.034925,0.));
#1298=CARTESIAN_POINT('',(-0.004445,0.0195778986723079,0.));
#1299=CARTESIAN_POINT('',(-0.004445,0.0558829150654902,0.));
#1300=CARTESIAN_POINT('',(0.0079885361758588,0.0274265184769594,0.01778));
#1301=CARTESIAN_POINT('',(0.00798853617585879,0.0274265184769594,0.0139573));
#1302=CARTESIAN_POINT('',(0.0099440178258086,0.0290673624082062,0.0139573));
#1303=CARTESIAN_POINT('',(0.00458346862619494,0.0245693275519028,0.01778));
#1304=CARTESIAN_POINT('',(0.00458346862619494,0.0245693275519028,0.01651));
#1305=CARTESIAN_POINT('',(0.00458346862619494,0.0245693275519028,0.00762));
#1306=CARTESIAN_POINT('',(0.0113936037255227,0.0302837094020161,0.00762));
#1307=CARTESIAN_POINT('',(0.0113936037255227,0.0302837094020161,0.00762));
#1308=CARTESIAN_POINT('',(0.0113936037255227,0.0302837094020161,0.01778));
#1309=CARTESIAN_POINT('',(0.0113936037255227,0.0302837094020161,0.01651));
#1310=CARTESIAN_POINT('',(0.0104207272827616,0.0294673691377142,0.01651));
#1311=CARTESIAN_POINT('',(0.0104207272827616,0.0294673691377142,0.01778));
#1312=CARTESIAN_POINT('',(0.0079885361758588,0.0274265184769594,0.01778));
#1313=CARTESIAN_POINT('',(0.00555634506895604,0.0253856678162046,0.01778));
#1314=CARTESIAN_POINT('',(0.00555634506895604,0.0253856678162046,0.01651));
#1315=CARTESIAN_POINT('',(0.00935275306476789,0.0327159005089189,0.01778));
#1316=CARTESIAN_POINT('',(0.00731190240401315,0.0351480916158216,0.01778));
#1317=CARTESIAN_POINT('',(0.00731190240401315,0.0351480916158216,0.01651));
#1318=CARTESIAN_POINT('',(0.00731190240401315,0.0351480916158216,0.00762));
#1319=CARTESIAN_POINT('',(0.0113936037255227,0.0302837094020161,0.01651));
#1320=CARTESIAN_POINT('',(0.00935275306476789,0.0327159005089189,0.00762));
#1321=CARTESIAN_POINT('',(0.00390683485434928,0.0322909006907649,0.01778));
#1322=CARTESIAN_POINT('',(0.00390683485434926,0.0322909006907649,0.0139573));
#1323=CARTESIAN_POINT('',(0.00586231650429908,0.0339317446220117,0.0139573));
#1324=CARTESIAN_POINT('',(0.00390683485434928,0.0322909006907649,0.00762));
#1325=CARTESIAN_POINT('',(0.000501767304685414,0.0294337097657083,0.00762));
#1326=CARTESIAN_POINT('',(0.000501767304685414,0.0294337097657083,0.01778));
#1327=CARTESIAN_POINT('',(0.000501767304685414,0.0294337097657083,0.01651));
#1328=CARTESIAN_POINT('',(0.00147464374744652,0.0302500500300102,0.01651));
#1329=CARTESIAN_POINT('',(0.00147464374744652,0.0302500500300102,0.01778));
#1330=CARTESIAN_POINT('',(0.00390683485434928,0.0322909006907649,0.01778));
#1331=CARTESIAN_POINT('',(0.00633902596125203,0.0343317513515197,0.01778));
#1332=CARTESIAN_POINT('',(0.00633902596125203,0.0343317513515197,0.01651));
#1333=CARTESIAN_POINT('',(0.00254261796544017,0.0270015186588055,0.01778));
#1334=CARTESIAN_POINT('',(0.00254261796544017,0.0270015186588055,0.01651));
#1335=CARTESIAN_POINT('',(0.00458346862619494,0.0245693275519028,0.00762));
#1336=CARTESIAN_POINT('',(0.03175,0.034925,0.01778));
#1337=CARTESIAN_POINT('',(0.00633902596125203,0.0343317513515197,0.01778));
#1338=CARTESIAN_POINT('',(0.0116817281652917,0.0180857205051308,0.01778));
#1339=CARTESIAN_POINT('',(0.0338429609938251,0.00352960722608578,0.01778));
#1340=CARTESIAN_POINT('',(0.0318021103330703,0.00596179833298853,0.01778));
#1341=CARTESIAN_POINT('',(0.0318021103330703,0.00596179833298853,0.01651));
#1342=CARTESIAN_POINT('',(0.0318021103330703,0.00596179833298853,0.00762));
#1343=CARTESIAN_POINT('',(0.0338429609938251,0.00352960722608578,0.01651));
#1344=CARTESIAN_POINT('',(0.0358838116545798,0.00109741611918302,0.01651));
#1345=CARTESIAN_POINT('',(0.0358838116545798,0.00109741611918302,0.01778));
#1346=CARTESIAN_POINT('',(0.0358838116545798,0.00109741611918302,0.00762));
#1347=CARTESIAN_POINT('',(0.0318021103330703,0.00596179833298853,0.00762));
#1348=CARTESIAN_POINT('',(0.0283970427834064,0.00310460740793186,0.01778));
#1349=CARTESIAN_POINT('',(0.0283970427834064,0.00310460740793184,0.0139573));
#1350=CARTESIAN_POINT('',(0.0303525244333562,0.00474545133917868,0.0139573));
#1351=CARTESIAN_POINT('',(0.0283970427834064,0.00310460740793186,0.00762));
#1352=CARTESIAN_POINT('',(0.0249919752337425,0.00024741648287519,0.00762));
#1353=CARTESIAN_POINT('',(0.0249919752337425,0.00024741648287519,0.01778));
#1354=CARTESIAN_POINT('',(0.0249919752337425,0.00024741648287519,0.01651));
#1355=CARTESIAN_POINT('',(0.0259648516765037,0.00106375674717709,0.01651));
#1356=CARTESIAN_POINT('',(0.0259648516765037,0.00106375674717709,0.01778));
#1357=CARTESIAN_POINT('',(0.0283970427834064,0.00310460740793186,0.01778));
#1358=CARTESIAN_POINT('',(0.0308292338903092,0.00514545806868663,0.01778));
#1359=CARTESIAN_POINT('',(0.0308292338903092,0.00514545806868663,0.01651));
#1360=CARTESIAN_POINT('',(0.0270328258944974,-0.00218477462402757,0.01778));
#1361=CARTESIAN_POINT('',(0.0290736765552521,-0.00461696573093032,0.01778));
#1362=CARTESIAN_POINT('',(0.0290736765552521,-0.00461696573093032,0.01651));
#1363=CARTESIAN_POINT('',(0.0290736765552521,-0.00461696573093032,0.00762));
#1364=CARTESIAN_POINT('',(0.0249919752337425,0.000247416482875188,0.01651));
#1365=CARTESIAN_POINT('',(0.0270328258944974,-0.00218477462402757,0.00762));
#1366=CARTESIAN_POINT('',(0.0324787441049159,-0.00175977480587365,0.01778));
#1367=CARTESIAN_POINT('',(0.0324787441049159,-0.00175977480587367,0.0139573));
#1368=CARTESIAN_POINT('',(0.0344342257548658,-0.000118930874626837,0.0139573));
#1369=CARTESIAN_POINT('',(0.0358838116545798,0.00109741611918302,0.00762));
#1370=CARTESIAN_POINT('',(0.0349109352118187,0.000281075854881113,0.01651));
#1371=CARTESIAN_POINT('',(0.0349109352118187,0.000281075854881115,0.01778));
#1372=CARTESIAN_POINT('',(0.0324787441049159,-0.00175977480587365,0.01778));
#1373=CARTESIAN_POINT('',(0.0300465529980132,-0.00380062546662842,0.01778));
#1374=CARTESIAN_POINT('',(0.0300465529980132,-0.00380062546662842,0.01651));
#1375=CARTESIAN_POINT('',(0.03175,0.034925,0.01778));
#1376=CARTESIAN_POINT('',(0.0165461103790972,0.0221674218266403,0.01778));
#1377=CARTESIAN_POINT('',(0.0300465529980132,-0.00380062546662842,0.01778));
#1378=CARTESIAN_POINT('',(0.0039055492791299,0.0322924327796511,0.0139573));
#1379=CARTESIAN_POINT('',(0.0039055492791299,0.0322924327796511,0.0139573));
#1380=CARTESIAN_POINT('',(0.0275807025191045,0.00407748385069296,0.00762));
#1381=CARTESIAN_POINT('',(0.0232027585266796,0.000403952661334386,0.00762));
#1382=CARTESIAN_POINT('',(0.0319586465115295,0.00775101504005154,0.00762));
#1383=CARTESIAN_POINT('',(0.00406169456712811,0.0409973077422199,0.00762));
#1384=CARTESIAN_POINT('',(0.0376730283616429,0.000940879940723818,0.00762));
#1385=CARTESIAN_POINT('',(0.0260599494517363,-0.00300111488832947,0.00762));
#1386=CARTESIAN_POINT('',(0.0289171403767929,-0.00640618243799333,0.00762));
#1387=CARTESIAN_POINT('',(0.0304363337945147,-0.00513142780149598,0.00762));
#1388=CARTESIAN_POINT('',(0.00309049459004737,0.033263777133526,0.00762));
#1389=CARTESIAN_POINT('',(-0.0012874494023776,0.0295902459441675,0.00762));
#1390=CARTESIAN_POINT('',(0.00746843858247233,0.0369373083228846,0.00762));
#1391=CARTESIAN_POINT('',(0.010325629507529,0.0335322407732207,0.00762));
#1392=CARTESIAN_POINT('',(0.0131828204325857,0.0301271732235569,0.00762));
#1393=CARTESIAN_POINT('',(-0.00469419341772181,0.0336502453635028,0.00762));
#1394=CARTESIAN_POINT('',(0.00442693244773574,0.0227801108448397,0.00762));
#1395=CARTESIAN_POINT('',(0.0059461258654576,0.0240548654813371,0.00762));
#1396=CARTESIAN_POINT('',(0.032870084551064,0.00271326696178387,0.01651));
#1397=CARTESIAN_POINT('',(0.0116817281652917,0.0180857205051308,0.01651));
#1398=CARTESIAN_POINT('',(0.0165461103790971,0.0221674218266403,0.01651));
#1399=CARTESIAN_POINT('',(0.00351549440820128,0.0278178589231074,0.01651));
#1400=CARTESIAN_POINT('',(-0.004445,0.0195778986723079,0.00635));
#1401=CARTESIAN_POINT('',(-0.004445,0.0558829150654902,0.00635));
#1402=MECHANICAL_DESIGN_GEOMETRIC_PRESENTATION_REPRESENTATION('',(#811),#1403);
#1403=(
GEOMETRIC_REPRESENTATION_CONTEXT(3)
GLOBAL_UNCERTAINTY_ASSIGNED_CONTEXT((#1404))
GLOBAL_UNIT_ASSIGNED_CONTEXT((#1407,#1406,#1405))
REPRESENTATION_CONTEXT('Swerve Camera Mount Base A','TOP_LEVEL_ASSEMBLY_PART')
);
#1404=UNCERTAINTY_MEASURE_WITH_UNIT(LENGTH_MEASURE(2.E-05),#1407,'DISTANCE_ACCURACY_VALUE','Maximum Tolerance applied to model');
#1405=(
NAMED_UNIT(*)
SI_UNIT($,.STERADIAN.)
SOLID_ANGLE_UNIT()
);
#1406=(
NAMED_UNIT(*)
PLANE_ANGLE_UNIT()
SI_UNIT($,.RADIAN.)
);
#1407=(
LENGTH_UNIT()
NAMED_UNIT(*)
SI_UNIT($,.METRE.)
);
#1408=PRODUCT_DEFINITION_SHAPE('','',#1409);
#1409=PRODUCT_DEFINITION('','',#1411,#1410);
#1410=PRODUCT_DEFINITION_CONTEXT('',#1417,'design');
#1411=PRODUCT_DEFINITION_FORMATION_WITH_SPECIFIED_SOURCE('','',#1413,.NOT_KNOWN.);
#1412=PRODUCT_RELATED_PRODUCT_CATEGORY('','',(#1413));
#1413=PRODUCT('Swerve Camera Mount Base A','Swerve Camera Mount Base A','Swerve Camera Mount Base A',(#1415));
#1414=PRODUCT_CATEGORY('','');
#1415=PRODUCT_CONTEXT('',#1417,'mechanical');
#1416=APPLICATION_PROTOCOL_DEFINITION('international standard','ap242_managed_model_based_3d_engineering',2020,#1417);
#1417=APPLICATION_CONTEXT('managed model based 3d engineering');
ENDSEC;
END-ISO-10303-21;
