ISO-10303-21;
HEADER;
/*Generated by software containing ST-Developer
 * from STEP Tools, Inc. (www.steptools.com) 
 */
/*OPTION: using custom renumber hook */
/*description */
/*implementation_level */
FILE_DESCRIPTION(('STEP AP242 Edition 2','STEP AP242 Edition 2''CAx-IF Rec.Pracs.---Representation and Presentation of Product Manufa
cturing Information (PMI)---4.0---2014-10-13','STEP AP242 Edition 2''CAx-IF Rec.Pracs.---Representation and Presentation of Product Manufa
cturing Information (PMI)---4.0---2014-10-13''CAx-IF Rec.Pracs.---3D Tessellated Geometry---0.4---2014-09-14','STEP AP242 Edition 2''CAx-IF Rec.Pracs.---Representation and Presentation of Product Manufa
cturing Information (PMI)---4.0---2014-10-13''CAx-IF Rec.Pracs.---3D Tessellated Geometry---0.4---2014-09-14''2;1','STEP AP242 Edition 2''CAx-IF Rec.Pracs.---Representation and Presentation of Product Manufa
cturing Information (PMI)---4.0---2014-10-13''CAx-IF Rec.Pracs.---3D Tessellated Geometry---0.4---2014-09-14''2;1''CAx-IF Rec.Pracs.---User Defined Attributes---1.5---2016-08-15'),'2;1');
/*name */
/*time_stamp */
/*author */
/*organization */
/*preprocessor_version */
/*originating_system */
/*authorisation */
FILE_NAME('/vol/tmp/translate-9040711422373567463/Camera Mount Leg - Camera Mount Leg.step','2026-03-05T01:57:13',(''),(''),'ST-DEVELOPER v20','ONSHAPE BY PTC INC, 1.211','  ');
FILE_SCHEMA(('AP242_MANAGED_MODEL_BASED_3D_ENGINEERING_MIM_LF { 1 0 10303 442 3 1 4 }'));
ENDSEC;
DATA;
#10=SHAPE_REPRESENTATION_RELATIONSHIP('','',#389,#11);
#11=ADVANCED_BREP_SHAPE_REPRESENTATION('',(#387),#659);
#12=ELLIPSE('',#421,0.00127717017295659,0.00127);
#13=ELLIPSE('',#422,0.00127717017295659,0.00127);
#14=ELLIPSE('',#425,0.00127717017295659,0.00127);
#15=ELLIPSE('',#426,0.00127717017295659,0.00127);
#16=CYLINDRICAL_SURFACE('',#418,0.0025527);
#17=CYLINDRICAL_SURFACE('',#419,0.0025527);
#18=CYLINDRICAL_SURFACE('',#423,0.0039497);
#19=CYLINDRICAL_SURFACE('',#427,0.00127);
#20=CYLINDRICAL_SURFACE('',#428,0.00127);
#21=CYLINDRICAL_SURFACE('',#429,0.00127);
#22=CYLINDRICAL_SURFACE('',#430,0.00127);
#23=CYLINDRICAL_SURFACE('',#431,0.00127);
#24=CYLINDRICAL_SURFACE('',#432,0.00127);
#25=CIRCLE('',#392,0.0039497);
#26=CIRCLE('',#393,0.0025527);
#27=CIRCLE('',#396,0.0025527);
#28=CIRCLE('',#399,0.0025527);
#29=CIRCLE('',#402,0.0039497);
#30=CIRCLE('',#403,0.0025527);
#31=CIRCLE('',#405,0.00127);
#32=CIRCLE('',#406,0.00127);
#33=CIRCLE('',#407,0.00127);
#34=CIRCLE('',#408,0.00127);
#35=CIRCLE('',#409,0.00127);
#36=CIRCLE('',#410,0.00127);
#37=CIRCLE('',#412,0.00127);
#38=CIRCLE('',#413,0.00127);
#39=CIRCLE('',#414,0.00127);
#40=CIRCLE('',#415,0.00127);
#41=CIRCLE('',#416,0.00127);
#42=CIRCLE('',#417,0.00127);
#43=ORIENTED_EDGE('',*,*,#147,.T.);
#44=ORIENTED_EDGE('',*,*,#148,.T.);
#45=ORIENTED_EDGE('',*,*,#149,.F.);
#46=ORIENTED_EDGE('',*,*,#150,.F.);
#47=ORIENTED_EDGE('',*,*,#151,.T.);
#48=ORIENTED_EDGE('',*,*,#152,.F.);
#49=ORIENTED_EDGE('',*,*,#153,.T.);
#50=ORIENTED_EDGE('',*,*,#154,.T.);
#51=ORIENTED_EDGE('',*,*,#155,.T.);
#52=ORIENTED_EDGE('',*,*,#156,.F.);
#53=ORIENTED_EDGE('',*,*,#157,.T.);
#54=ORIENTED_EDGE('',*,*,#158,.T.);
#55=ORIENTED_EDGE('',*,*,#159,.F.);
#56=ORIENTED_EDGE('',*,*,#160,.T.);
#57=ORIENTED_EDGE('',*,*,#161,.F.);
#58=ORIENTED_EDGE('',*,*,#162,.T.);
#59=ORIENTED_EDGE('',*,*,#163,.T.);
#60=ORIENTED_EDGE('',*,*,#164,.T.);
#61=ORIENTED_EDGE('',*,*,#165,.F.);
#62=ORIENTED_EDGE('',*,*,#166,.F.);
#63=ORIENTED_EDGE('',*,*,#167,.T.);
#64=ORIENTED_EDGE('',*,*,#168,.T.);
#65=ORIENTED_EDGE('',*,*,#169,.T.);
#66=ORIENTED_EDGE('',*,*,#170,.F.);
#67=ORIENTED_EDGE('',*,*,#171,.T.);
#68=ORIENTED_EDGE('',*,*,#172,.T.);
#69=ORIENTED_EDGE('',*,*,#173,.T.);
#70=ORIENTED_EDGE('',*,*,#174,.T.);
#71=ORIENTED_EDGE('',*,*,#175,.T.);
#72=ORIENTED_EDGE('',*,*,#176,.F.);
#73=ORIENTED_EDGE('',*,*,#177,.T.);
#74=ORIENTED_EDGE('',*,*,#178,.F.);
#75=ORIENTED_EDGE('',*,*,#179,.F.);
#76=ORIENTED_EDGE('',*,*,#180,.T.);
#77=ORIENTED_EDGE('',*,*,#152,.T.);
#78=ORIENTED_EDGE('',*,*,#181,.T.);
#79=ORIENTED_EDGE('',*,*,#157,.F.);
#80=ORIENTED_EDGE('',*,*,#182,.T.);
#81=ORIENTED_EDGE('',*,*,#161,.T.);
#82=ORIENTED_EDGE('',*,*,#183,.T.);
#83=ORIENTED_EDGE('',*,*,#166,.T.);
#84=ORIENTED_EDGE('',*,*,#184,.T.);
#85=ORIENTED_EDGE('',*,*,#172,.F.);
#86=ORIENTED_EDGE('',*,*,#185,.T.);
#87=ORIENTED_EDGE('',*,*,#154,.F.);
#88=ORIENTED_EDGE('',*,*,#186,.T.);
#89=ORIENTED_EDGE('',*,*,#187,.T.);
#90=ORIENTED_EDGE('',*,*,#188,.T.);
#91=ORIENTED_EDGE('',*,*,#170,.T.);
#92=ORIENTED_EDGE('',*,*,#189,.T.);
#93=ORIENTED_EDGE('',*,*,#168,.F.);
#94=ORIENTED_EDGE('',*,*,#190,.T.);
#95=ORIENTED_EDGE('',*,*,#163,.F.);
#96=ORIENTED_EDGE('',*,*,#191,.T.);
#97=ORIENTED_EDGE('',*,*,#159,.T.);
#98=ORIENTED_EDGE('',*,*,#192,.T.);
#99=ORIENTED_EDGE('',*,*,#178,.T.);
#100=ORIENTED_EDGE('',*,*,#151,.F.);
#101=ORIENTED_EDGE('',*,*,#165,.T.);
#102=ORIENTED_EDGE('',*,*,#156,.T.);
#103=ORIENTED_EDGE('',*,*,#149,.T.);
#104=ORIENTED_EDGE('',*,*,#193,.T.);
#105=ORIENTED_EDGE('',*,*,#179,.T.);
#106=ORIENTED_EDGE('',*,*,#194,.T.);
#107=ORIENTED_EDGE('',*,*,#174,.F.);
#108=ORIENTED_EDGE('',*,*,#195,.F.);
#109=ORIENTED_EDGE('',*,*,#150,.T.);
#110=ORIENTED_EDGE('',*,*,#195,.T.);
#111=ORIENTED_EDGE('',*,*,#177,.F.);
#112=ORIENTED_EDGE('',*,*,#196,.F.);
#113=ORIENTED_EDGE('',*,*,#187,.F.);
#114=ORIENTED_EDGE('',*,*,#197,.T.);
#115=ORIENTED_EDGE('',*,*,#147,.F.);
#116=ORIENTED_EDGE('',*,*,#196,.T.);
#117=ORIENTED_EDGE('',*,*,#176,.T.);
#118=ORIENTED_EDGE('',*,*,#198,.T.);
#119=ORIENTED_EDGE('',*,*,#193,.F.);
#120=ORIENTED_EDGE('',*,*,#148,.F.);
#121=ORIENTED_EDGE('',*,*,#197,.F.);
#122=ORIENTED_EDGE('',*,*,#186,.F.);
#123=ORIENTED_EDGE('',*,*,#153,.F.);
#124=ORIENTED_EDGE('',*,*,#180,.F.);
#125=ORIENTED_EDGE('',*,*,#185,.F.);
#126=ORIENTED_EDGE('',*,*,#171,.F.);
#127=ORIENTED_EDGE('',*,*,#188,.F.);
#128=ORIENTED_EDGE('',*,*,#198,.F.);
#129=ORIENTED_EDGE('',*,*,#175,.F.);
#130=ORIENTED_EDGE('',*,*,#194,.F.);
#131=ORIENTED_EDGE('',*,*,#181,.F.);
#132=ORIENTED_EDGE('',*,*,#155,.F.);
#133=ORIENTED_EDGE('',*,*,#192,.F.);
#134=ORIENTED_EDGE('',*,*,#158,.F.);
#135=ORIENTED_EDGE('',*,*,#182,.F.);
#136=ORIENTED_EDGE('',*,*,#160,.F.);
#137=ORIENTED_EDGE('',*,*,#191,.F.);
#138=ORIENTED_EDGE('',*,*,#162,.F.);
#139=ORIENTED_EDGE('',*,*,#183,.F.);
#140=ORIENTED_EDGE('',*,*,#164,.F.);
#141=ORIENTED_EDGE('',*,*,#190,.F.);
#142=ORIENTED_EDGE('',*,*,#167,.F.);
#143=ORIENTED_EDGE('',*,*,#184,.F.);
#144=ORIENTED_EDGE('',*,*,#169,.F.);
#145=ORIENTED_EDGE('',*,*,#189,.F.);
#146=ORIENTED_EDGE('',*,*,#173,.F.);
#147=EDGE_CURVE('',#199,#200,#235,.T.);
#148=EDGE_CURVE('',#200,#201,#236,.F.);
#149=EDGE_CURVE('',#202,#201,#237,.T.);
#150=EDGE_CURVE('',#199,#202,#25,.F.);
#151=EDGE_CURVE('',#203,#203,#26,.F.);
#152=EDGE_CURVE('',#204,#205,#238,.T.);
#153=EDGE_CURVE('',#204,#206,#239,.T.);
#154=EDGE_CURVE('',#206,#207,#240,.T.);
#155=EDGE_CURVE('',#207,#205,#241,.F.);
#156=EDGE_CURVE('',#208,#208,#27,.T.);
#157=EDGE_CURVE('',#209,#210,#242,.T.);
#158=EDGE_CURVE('',#210,#211,#243,.T.);
#159=EDGE_CURVE('',#212,#211,#244,.T.);
#160=EDGE_CURVE('',#212,#209,#245,.F.);
#161=EDGE_CURVE('',#213,#214,#246,.T.);
#162=EDGE_CURVE('',#213,#215,#247,.T.);
#163=EDGE_CURVE('',#215,#216,#248,.T.);
#164=EDGE_CURVE('',#216,#214,#249,.F.);
#165=EDGE_CURVE('',#217,#217,#28,.F.);
#166=EDGE_CURVE('',#218,#219,#250,.T.);
#167=EDGE_CURVE('',#218,#220,#251,.T.);
#168=EDGE_CURVE('',#220,#221,#252,.T.);
#169=EDGE_CURVE('',#221,#219,#253,.F.);
#170=EDGE_CURVE('',#222,#223,#254,.T.);
#171=EDGE_CURVE('',#222,#224,#255,.F.);
#172=EDGE_CURVE('',#224,#225,#256,.T.);
#173=EDGE_CURVE('',#225,#223,#257,.T.);
#174=EDGE_CURVE('',#226,#227,#258,.T.);
#175=EDGE_CURVE('',#227,#228,#259,.T.);
#176=EDGE_CURVE('',#229,#228,#260,.T.);
#177=EDGE_CURVE('',#229,#226,#29,.T.);
#178=EDGE_CURVE('',#230,#230,#30,.T.);
#179=EDGE_CURVE('',#231,#232,#261,.T.);
#180=EDGE_CURVE('',#231,#204,#31,.T.);
#181=EDGE_CURVE('',#205,#210,#32,.T.);
#182=EDGE_CURVE('',#209,#213,#33,.T.);
#183=EDGE_CURVE('',#214,#218,#34,.T.);
#184=EDGE_CURVE('',#219,#225,#35,.F.);
#185=EDGE_CURVE('',#224,#232,#36,.F.);
#186=EDGE_CURVE('',#206,#233,#37,.F.);
#187=EDGE_CURVE('',#233,#234,#262,.T.);
#188=EDGE_CURVE('',#234,#222,#38,.T.);
#189=EDGE_CURVE('',#223,#221,#39,.T.);
#190=EDGE_CURVE('',#220,#216,#40,.F.);
#191=EDGE_CURVE('',#215,#212,#41,.F.);
#192=EDGE_CURVE('',#211,#207,#42,.F.);
#193=EDGE_CURVE('',#201,#231,#12,.T.);
#194=EDGE_CURVE('',#232,#227,#13,.F.);
#195=EDGE_CURVE('',#202,#226,#263,.T.);
#196=EDGE_CURVE('',#199,#229,#264,.T.);
#197=EDGE_CURVE('',#233,#200,#14,.F.);
#198=EDGE_CURVE('',#228,#234,#15,.T.);
#199=VERTEX_POINT('',#552);
#200=VERTEX_POINT('',#553);
#201=VERTEX_POINT('',#555);
#202=VERTEX_POINT('',#557);
#203=VERTEX_POINT('',#560);
#204=VERTEX_POINT('',#563);
#205=VERTEX_POINT('',#564);
#206=VERTEX_POINT('',#566);
#207=VERTEX_POINT('',#568);
#208=VERTEX_POINT('',#572);
#209=VERTEX_POINT('',#574);
#210=VERTEX_POINT('',#575);
#211=VERTEX_POINT('',#577);
#212=VERTEX_POINT('',#579);
#213=VERTEX_POINT('',#583);
#214=VERTEX_POINT('',#584);
#215=VERTEX_POINT('',#586);
#216=VERTEX_POINT('',#588);
#217=VERTEX_POINT('',#592);
#218=VERTEX_POINT('',#594);
#219=VERTEX_POINT('',#595);
#220=VERTEX_POINT('',#597);
#221=VERTEX_POINT('',#599);
#222=VERTEX_POINT('',#603);
#223=VERTEX_POINT('',#604);
#224=VERTEX_POINT('',#606);
#225=VERTEX_POINT('',#608);
#226=VERTEX_POINT('',#612);
#227=VERTEX_POINT('',#613);
#228=VERTEX_POINT('',#615);
#229=VERTEX_POINT('',#617);
#230=VERTEX_POINT('',#620);
#231=VERTEX_POINT('',#623);
#232=VERTEX_POINT('',#624);
#233=VERTEX_POINT('',#633);
#234=VERTEX_POINT('',#635);
#235=LINE('',#551,#265);
#236=LINE('',#554,#266);
#237=LINE('',#556,#267);
#238=LINE('',#562,#268);
#239=LINE('',#565,#269);
#240=LINE('',#567,#270);
#241=LINE('',#569,#271);
#242=LINE('',#573,#272);
#243=LINE('',#576,#273);
#244=LINE('',#578,#274);
#245=LINE('',#580,#275);
#246=LINE('',#582,#276);
#247=LINE('',#585,#277);
#248=LINE('',#587,#278);
#249=LINE('',#589,#279);
#250=LINE('',#593,#280);
#251=LINE('',#596,#281);
#252=LINE('',#598,#282);
#253=LINE('',#600,#283);
#254=LINE('',#602,#284);
#255=LINE('',#605,#285);
#256=LINE('',#607,#286);
#257=LINE('',#609,#287);
#258=LINE('',#611,#288);
#259=LINE('',#614,#289);
#260=LINE('',#616,#290);
#261=LINE('',#622,#291);
#262=LINE('',#634,#292);
#263=LINE('',#646,#293);
#264=LINE('',#648,#294);
#265=VECTOR('',#437,1.);
#266=VECTOR('',#438,1.);
#267=VECTOR('',#439,1.);
#268=VECTOR('',#446,1.);
#269=VECTOR('',#447,1.);
#270=VECTOR('',#448,1.);
#271=VECTOR('',#449,1.);
#272=VECTOR('',#454,1.);
#273=VECTOR('',#455,1.);
#274=VECTOR('',#456,1.);
#275=VECTOR('',#457,1.);
#276=VECTOR('',#460,1.);
#277=VECTOR('',#461,1.);
#278=VECTOR('',#462,1.);
#279=VECTOR('',#463,1.);
#280=VECTOR('',#468,1.);
#281=VECTOR('',#469,1.);
#282=VECTOR('',#470,1.);
#283=VECTOR('',#471,1.);
#284=VECTOR('',#474,1.);
#285=VECTOR('',#475,1.);
#286=VECTOR('',#476,1.);
#287=VECTOR('',#477,1.);
#288=VECTOR('',#480,1.);
#289=VECTOR('',#481,1.);
#290=VECTOR('',#482,1.);
#291=VECTOR('',#489,1.);
#292=VECTOR('',#506,1.);
#293=VECTOR('',#527,1.);
#294=VECTOR('',#530,1.);
#295=EDGE_LOOP('',(#43,#44,#45,#46));
#296=EDGE_LOOP('',(#47));
#297=EDGE_LOOP('',(#48,#49,#50,#51));
#298=EDGE_LOOP('',(#52));
#299=EDGE_LOOP('',(#53,#54,#55,#56));
#300=EDGE_LOOP('',(#57,#58,#59,#60));
#301=EDGE_LOOP('',(#61));
#302=EDGE_LOOP('',(#62,#63,#64,#65));
#303=EDGE_LOOP('',(#66,#67,#68,#69));
#304=EDGE_LOOP('',(#70,#71,#72,#73));
#305=EDGE_LOOP('',(#74));
#306=EDGE_LOOP('',(#75,#76,#77,#78,#79,#80,#81,#82,#83,#84,#85,#86));
#307=EDGE_LOOP('',(#87,#88,#89,#90,#91,#92,#93,#94,#95,#96,#97,#98));
#308=EDGE_LOOP('',(#99));
#309=EDGE_LOOP('',(#100));
#310=EDGE_LOOP('',(#101));
#311=EDGE_LOOP('',(#102));
#312=EDGE_LOOP('',(#103,#104,#105,#106,#107,#108));
#313=EDGE_LOOP('',(#109,#110,#111,#112));
#314=EDGE_LOOP('',(#113,#114,#115,#116,#117,#118));
#315=EDGE_LOOP('',(#119,#120,#121,#122,#123,#124));
#316=EDGE_LOOP('',(#125,#126,#127,#128,#129,#130));
#317=EDGE_LOOP('',(#131,#132,#133,#134));
#318=EDGE_LOOP('',(#135,#136,#137,#138));
#319=EDGE_LOOP('',(#139,#140,#141,#142));
#320=EDGE_LOOP('',(#143,#144,#145,#146));
#321=FACE_BOUND('',#295,.T.);
#322=FACE_BOUND('',#296,.T.);
#323=FACE_BOUND('',#297,.T.);
#324=FACE_BOUND('',#298,.T.);
#325=FACE_BOUND('',#299,.T.);
#326=FACE_BOUND('',#300,.T.);
#327=FACE_BOUND('',#301,.T.);
#328=FACE_BOUND('',#302,.T.);
#329=FACE_BOUND('',#303,.T.);
#330=FACE_BOUND('',#304,.T.);
#331=FACE_BOUND('',#305,.T.);
#332=FACE_BOUND('',#306,.T.);
#333=FACE_BOUND('',#307,.T.);
#334=FACE_BOUND('',#308,.T.);
#335=FACE_BOUND('',#309,.T.);
#336=FACE_BOUND('',#310,.T.);
#337=FACE_BOUND('',#311,.T.);
#338=FACE_BOUND('',#312,.T.);
#339=FACE_BOUND('',#313,.T.);
#340=FACE_BOUND('',#314,.T.);
#341=FACE_BOUND('',#315,.T.);
#342=FACE_BOUND('',#316,.T.);
#343=FACE_BOUND('',#317,.T.);
#344=FACE_BOUND('',#318,.T.);
#345=FACE_BOUND('',#319,.T.);
#346=FACE_BOUND('',#320,.T.);
#347=PLANE('',#391);
#348=PLANE('',#394);
#349=PLANE('',#395);
#350=PLANE('',#397);
#351=PLANE('',#398);
#352=PLANE('',#400);
#353=PLANE('',#401);
#354=PLANE('',#404);
#355=PLANE('',#411);
#356=PLANE('',#420);
#357=PLANE('',#424);
#358=ADVANCED_FACE('',(#321,#322),#347,.T.);
#359=ADVANCED_FACE('',(#323),#348,.F.);
#360=ADVANCED_FACE('',(#324,#325),#349,.T.);
#361=ADVANCED_FACE('',(#326),#350,.F.);
#362=ADVANCED_FACE('',(#327,#328),#351,.F.);
#363=ADVANCED_FACE('',(#329),#352,.T.);
#364=ADVANCED_FACE('',(#330,#331),#353,.F.);
#365=ADVANCED_FACE('',(#332),#354,.T.);
#366=ADVANCED_FACE('',(#333),#355,.F.);
#367=ADVANCED_FACE('',(#334,#335),#16,.F.);
#368=ADVANCED_FACE('',(#336,#337),#17,.F.);
#369=ADVANCED_FACE('',(#338),#356,.T.);
#370=ADVANCED_FACE('',(#339),#18,.T.);
#371=ADVANCED_FACE('',(#340),#357,.F.);
#372=ADVANCED_FACE('',(#341),#19,.T.);
#373=ADVANCED_FACE('',(#342),#20,.F.);
#374=ADVANCED_FACE('',(#343),#21,.T.);
#375=ADVANCED_FACE('',(#344),#22,.T.);
#376=ADVANCED_FACE('',(#345),#23,.T.);
#377=ADVANCED_FACE('',(#346),#24,.F.);
#378=CLOSED_SHELL('',(#358,#359,#360,#361,#362,#363,#364,#365,#366,#367,#368,#369,#370,#371,#372,#373,#374,#375,#376,#377));
#379=STYLED_ITEM('',(#380),#387);
#380=PRESENTATION_STYLE_ASSIGNMENT((#381));
#381=SURFACE_STYLE_USAGE(.BOTH.,#382);
#382=SURFACE_SIDE_STYLE('',(#383));
#383=SURFACE_STYLE_FILL_AREA(#384);
#384=FILL_AREA_STYLE('',(#385));
#385=FILL_AREA_STYLE_COLOUR('',#386);
#386=COLOUR_RGB('',0.615686274509804,0.811764705882353,0.929411764705882);
#387=MANIFOLD_SOLID_BREP('Camera Mount Leg',#378);
#388=SHAPE_DEFINITION_REPRESENTATION(#664,#389);
#389=SHAPE_REPRESENTATION('Camera Mount Leg',(#390),#659);
#390=AXIS2_PLACEMENT_3D('',#549,#433,#434);
#391=AXIS2_PLACEMENT_3D('',#550,#435,#436);
#392=AXIS2_PLACEMENT_3D('',#558,#440,#441);
#393=AXIS2_PLACEMENT_3D('',#559,#442,#443);
#394=AXIS2_PLACEMENT_3D('',#561,#444,#445);
#395=AXIS2_PLACEMENT_3D('',#570,#450,#451);
#396=AXIS2_PLACEMENT_3D('',#571,#452,#453);
#397=AXIS2_PLACEMENT_3D('',#581,#458,#459);
#398=AXIS2_PLACEMENT_3D('',#590,#464,#465);
#399=AXIS2_PLACEMENT_3D('',#591,#466,#467);
#400=AXIS2_PLACEMENT_3D('',#601,#472,#473);
#401=AXIS2_PLACEMENT_3D('',#610,#478,#479);
#402=AXIS2_PLACEMENT_3D('',#618,#483,#484);
#403=AXIS2_PLACEMENT_3D('',#619,#485,#486);
#404=AXIS2_PLACEMENT_3D('',#621,#487,#488);
#405=AXIS2_PLACEMENT_3D('',#625,#490,#491);
#406=AXIS2_PLACEMENT_3D('',#626,#492,#493);
#407=AXIS2_PLACEMENT_3D('',#627,#494,#495);
#408=AXIS2_PLACEMENT_3D('',#628,#496,#497);
#409=AXIS2_PLACEMENT_3D('',#629,#498,#499);
#410=AXIS2_PLACEMENT_3D('',#630,#500,#501);
#411=AXIS2_PLACEMENT_3D('',#631,#502,#503);
#412=AXIS2_PLACEMENT_3D('',#632,#504,#505);
#413=AXIS2_PLACEMENT_3D('',#636,#507,#508);
#414=AXIS2_PLACEMENT_3D('',#637,#509,#510);
#415=AXIS2_PLACEMENT_3D('',#638,#511,#512);
#416=AXIS2_PLACEMENT_3D('',#639,#513,#514);
#417=AXIS2_PLACEMENT_3D('',#640,#515,#516);
#418=AXIS2_PLACEMENT_3D('',#641,#517,#518);
#419=AXIS2_PLACEMENT_3D('',#642,#519,#520);
#420=AXIS2_PLACEMENT_3D('',#643,#521,#522);
#421=AXIS2_PLACEMENT_3D('',#644,#523,#524);
#422=AXIS2_PLACEMENT_3D('',#645,#525,#526);
#423=AXIS2_PLACEMENT_3D('',#647,#528,#529);
#424=AXIS2_PLACEMENT_3D('',#649,#531,#532);
#425=AXIS2_PLACEMENT_3D('',#650,#533,#534);
#426=AXIS2_PLACEMENT_3D('',#651,#535,#536);
#427=AXIS2_PLACEMENT_3D('',#652,#537,#538);
#428=AXIS2_PLACEMENT_3D('',#653,#539,#540);
#429=AXIS2_PLACEMENT_3D('',#654,#541,#542);
#430=AXIS2_PLACEMENT_3D('',#655,#543,#544);
#431=AXIS2_PLACEMENT_3D('',#656,#545,#546);
#432=AXIS2_PLACEMENT_3D('',#657,#547,#548);
#433=DIRECTION('',(0.,0.,1.));
#434=DIRECTION('',(1.,0.,0.));
#435=DIRECTION('',(4.39046998981756E-16,-1.,0.));
#436=DIRECTION('',(1.,4.39046998981756E-16,0.));
#437=DIRECTION('',(0.99438589069146,4.36582141137886E-16,-0.105814462120032));
#438=DIRECTION('',(0.,0.,-1.));
#439=DIRECTION('',(0.99438589069146,4.36582141137886E-16,0.105814462120031));
#440=DIRECTION('',(4.39046998981756E-16,-1.,0.));
#441=DIRECTION('',(1.,4.39046998981756E-16,0.));
#442=DIRECTION('',(4.39046998981756E-16,-1.,0.));
#443=DIRECTION('',(1.,4.39046998981756E-16,0.));
#444=DIRECTION('',(-0.607226280673053,0.794528944759076,0.));
#445=DIRECTION('',(-0.794528944759076,-0.607226280673053,0.));
#446=DIRECTION('',(0.794528944759076,0.607226280673053,0.));
#447=DIRECTION('',(0.,0.,-1.));
#448=DIRECTION('',(0.794528944759076,0.607226280673053,0.));
#449=DIRECTION('',(0.,0.,-1.));
#450=DIRECTION('',(0.866025403784439,0.5,0.));
#451=DIRECTION('',(-0.5,0.866025403784439,0.));
#452=DIRECTION('',(0.866025403784439,0.5,0.));
#453=DIRECTION('',(-0.5,0.866025403784439,0.));
#454=DIRECTION('',(0.5,-0.866025403784439,0.));
#455=DIRECTION('',(0.,0.,-1.));
#456=DIRECTION('',(0.5,-0.866025403784439,0.));
#457=DIRECTION('',(0.,0.,-1.));
#458=DIRECTION('',(0.5,-0.866025403784439,0.));
#459=DIRECTION('',(0.866025403784439,0.5,0.));
#460=DIRECTION('',(-0.866025403784439,-0.5,0.));
#461=DIRECTION('',(0.,0.,-1.));
#462=DIRECTION('',(-0.866025403784439,-0.5,0.));
#463=DIRECTION('',(0.,0.,-1.));
#464=DIRECTION('',(0.866025403784439,0.5,0.));
#465=DIRECTION('',(-0.5,0.866025403784439,0.));
#466=DIRECTION('',(0.866025403784439,0.5,0.));
#467=DIRECTION('',(-0.5,0.866025403784439,0.));
#468=DIRECTION('',(0.5,-0.866025403784439,0.));
#469=DIRECTION('',(0.,0.,-1.));
#470=DIRECTION('',(0.5,-0.866025403784439,0.));
#471=DIRECTION('',(0.,0.,-1.));
#472=DIRECTION('',(-0.607226280673053,0.794528944759076,0.));
#473=DIRECTION('',(-0.794528944759076,-0.607226280673053,0.));
#474=DIRECTION('',(0.794528944759076,0.607226280673053,0.));
#475=DIRECTION('',(0.,0.,-1.));
#476=DIRECTION('',(0.794528944759076,0.607226280673053,0.));
#477=DIRECTION('',(0.,0.,-1.));
#478=DIRECTION('',(4.39046998981756E-16,-1.,0.));
#479=DIRECTION('',(1.,4.39046998981756E-16,0.));
#480=DIRECTION('',(0.99438589069146,4.36582141137886E-16,0.105814462120031));
#481=DIRECTION('',(0.,0.,-1.));
#482=DIRECTION('',(0.99438589069146,4.36582141137886E-16,-0.105814462120032));
#483=DIRECTION('',(-4.39046998981756E-16,1.,0.));
#484=DIRECTION('',(-1.,-4.39046998981756E-16,0.));
#485=DIRECTION('',(-4.39046998981756E-16,1.,0.));
#486=DIRECTION('',(-1.,-4.39046998981756E-16,0.));
#487=DIRECTION('',(0.,0.,1.));
#488=DIRECTION('',(1.,0.,0.));
#489=DIRECTION('',(-4.39046998981756E-16,1.,0.));
#490=DIRECTION('',(0.,0.,1.));
#491=DIRECTION('',(1.,0.,0.));
#492=DIRECTION('',(0.,0.,1.));
#493=DIRECTION('',(1.,0.,0.));
#494=DIRECTION('',(0.,0.,1.));
#495=DIRECTION('',(1.,0.,0.));
#496=DIRECTION('',(0.,0.,1.));
#497=DIRECTION('',(1.,0.,0.));
#498=DIRECTION('',(0.,0.,1.));
#499=DIRECTION('',(1.,0.,0.));
#500=DIRECTION('',(0.,0.,1.));
#501=DIRECTION('',(1.,0.,0.));
#502=DIRECTION('',(0.,0.,1.));
#503=DIRECTION('',(1.,0.,0.));
#504=DIRECTION('',(0.,0.,1.));
#505=DIRECTION('',(1.,0.,0.));
#506=DIRECTION('',(-4.39046998981756E-16,1.,0.));
#507=DIRECTION('',(0.,0.,1.));
#508=DIRECTION('',(1.,0.,0.));
#509=DIRECTION('',(0.,0.,1.));
#510=DIRECTION('',(1.,0.,0.));
#511=DIRECTION('',(0.,0.,1.));
#512=DIRECTION('',(1.,0.,0.));
#513=DIRECTION('',(0.,0.,1.));
#514=DIRECTION('',(1.,0.,0.));
#515=DIRECTION('',(0.,0.,1.));
#516=DIRECTION('',(1.,0.,0.));
#517=DIRECTION('',(-4.39046998981756E-16,1.,0.));
#518=DIRECTION('',(-1.,-4.39046998981756E-16,0.));
#519=DIRECTION('',(0.866025403784439,0.5,0.));
#520=DIRECTION('',(-0.5,0.866025403784439,0.));
#521=DIRECTION('',(-0.105814462120031,-4.64575220426685E-17,0.99438589069146));
#522=DIRECTION('',(0.99438589069146,0.,0.105814462120031));
#523=DIRECTION('',(-0.105814462120031,-4.64575220426685E-17,0.99438589069146));
#524=DIRECTION('',(0.99438589069146,4.36582141137886E-16,0.105814462120031));
#525=DIRECTION('',(-0.105814462120031,-4.64575220426685E-17,0.99438589069146));
#526=DIRECTION('',(-0.99438589069146,-4.36582141137886E-16,-0.105814462120031));
#527=DIRECTION('',(-4.39046998981756E-16,1.,0.));
#528=DIRECTION('',(-4.39046998981756E-16,1.,0.));
#529=DIRECTION('',(-1.,-4.39046998981756E-16,0.));
#530=DIRECTION('',(-4.39046998981756E-16,1.,0.));
#531=DIRECTION('',(0.105814462120032,4.64575220426686E-17,0.99438589069146));
#532=DIRECTION('',(0.99438589069146,0.,-0.105814462120032));
#533=DIRECTION('',(0.105814462120032,4.64575220426686E-17,0.99438589069146));
#534=DIRECTION('',(-0.99438589069146,-4.36582141137886E-16,0.105814462120032));
#535=DIRECTION('',(0.105814462120032,4.64575220426686E-17,0.99438589069146));
#536=DIRECTION('',(0.99438589069146,4.36582141137886E-16,-0.105814462120032));
#537=DIRECTION('',(0.,0.,1.));
#538=DIRECTION('',(1.,0.,0.));
#539=DIRECTION('',(0.,0.,-1.));
#540=DIRECTION('',(-1.,0.,0.));
#541=DIRECTION('',(0.,0.,1.));
#542=DIRECTION('',(1.,0.,0.));
#543=DIRECTION('',(0.,0.,1.));
#544=DIRECTION('',(1.,0.,0.));
#545=DIRECTION('',(0.,0.,-1.));
#546=DIRECTION('',(-1.,0.,0.));
#547=DIRECTION('',(0.,0.,-1.));
#548=DIRECTION('',(-1.,0.,0.));
#549=CARTESIAN_POINT('',(0.,0.,0.));
#550=CARTESIAN_POINT('',(4.33680868994202E-19,-0.0025781,0.004445));
#551=CARTESIAN_POINT('',(0.00201353230948226,-0.0025781,-0.00418626297623203));
#552=CARTESIAN_POINT('',(-0.000417935381035488,-0.0025781,-0.00392752595246406));
#553=CARTESIAN_POINT('',(0.00401526194606278,-0.0025781,-0.00439927077007473));
#554=CARTESIAN_POINT('',(0.00401526194606278,-0.0025781,0.004445));
#555=CARTESIAN_POINT('',(0.00401526194606278,-0.0025781,0.00439927077007473));
#556=CARTESIAN_POINT('',(0.00201353230948225,-0.0025781,0.00418626297623203));
#557=CARTESIAN_POINT('',(-0.000417935381035489,-0.0025781,0.00392752595246406));
#558=CARTESIAN_POINT('',(9.060832441486E-19,-0.0025781,-4.33680868994202E-18));
#559=CARTESIAN_POINT('',(9.60293352772875E-19,-0.0025781,1.56307794209173E-19));
#560=CARTESIAN_POINT('',(0.0025527,-0.0025781,1.56307794209173E-19));
#561=CARTESIAN_POINT('',(0.0108060628257165,0.00228340258749695,0.004445));
#562=CARTESIAN_POINT('',(0.0108060628257165,0.00228340258749695,0.004445));
#563=CARTESIAN_POINT('',(0.00478643932251756,-0.00231715175984402,0.004445));
#564=CARTESIAN_POINT('',(0.0162804837261878,0.00646728067546265,0.004445));
#565=CARTESIAN_POINT('',(0.00478643932251756,-0.00231715175984402,-0.004445));
#566=CARTESIAN_POINT('',(0.00478643932251756,-0.00231715175984402,-0.004445));
#567=CARTESIAN_POINT('',(0.0108060628257165,0.00228340258749695,-0.004445));
#568=CARTESIAN_POINT('',(0.0162804837261878,0.00646728067546265,-0.004445));
#569=CARTESIAN_POINT('',(0.0162804837261878,0.00646728067546265,0.004445));
#570=CARTESIAN_POINT('',(0.0166341252658056,0.00806808892335441,0.004445));
#571=CARTESIAN_POINT('',(0.0138786248801782,0.0128407555915368,1.56307794209173E-19));
#572=CARTESIAN_POINT('',(0.0126022748801782,0.0150514586397773,1.56307794209173E-19));
#573=CARTESIAN_POINT('',(0.0166341252658056,0.00806808892335441,0.004445));
#574=CARTESIAN_POINT('',(0.0122911248801782,0.0155903862485524,0.004445));
#575=CARTESIAN_POINT('',(0.0166091586125393,0.00811133243530668,0.004445));
#576=CARTESIAN_POINT('',(0.0166091586125393,0.00811133243530668,-0.004445));
#577=CARTESIAN_POINT('',(0.0166091586125393,0.00811133243530668,-0.004445));
#578=CARTESIAN_POINT('',(0.0166341252658056,0.00806808892335441,-0.004445));
#579=CARTESIAN_POINT('',(0.0122911248801782,0.0155903862485524,-0.004445));
#580=CARTESIAN_POINT('',(0.0122911248801782,0.0155903862485524,0.004445));
#581=CARTESIAN_POINT('',(0.0102813095516704,0.0158964885113586,0.004445));
#582=CARTESIAN_POINT('',(0.0102813095516704,0.0158964885113586,0.004445));
#583=CARTESIAN_POINT('',(0.0105562726173719,0.0160552385113586,0.004445));
#584=CARTESIAN_POINT('',(0.0100063464859688,0.0157377385113586,0.004445));
#585=CARTESIAN_POINT('',(0.0105562726173719,0.0160552385113586,-0.004445));
#586=CARTESIAN_POINT('',(0.0105562726173719,0.0160552385113586,-0.004445));
#587=CARTESIAN_POINT('',(0.0102813095516704,0.0158964885113586,-0.004445));
#588=CARTESIAN_POINT('',(0.0100063464859688,0.0157377385113586,-0.004445));
#589=CARTESIAN_POINT('',(0.0100063464859688,0.0157377385113586,0.004445));
#590=CARTESIAN_POINT('',(0.0111289942231626,0.0112532555915368,0.004445));
#591=CARTESIAN_POINT('',(0.0111289942231626,0.0112532555915368,1.56307794209173E-19));
#592=CARTESIAN_POINT('',(0.0098526442231626,0.0134639586397773,1.56307794209173E-19));
#593=CARTESIAN_POINT('',(0.0111289942231626,0.0112532555915368,0.004445));
#594=CARTESIAN_POINT('',(0.00954149422316259,0.0140028862485524,0.004445));
#595=CARTESIAN_POINT('',(0.0127935271842688,0.00837019993202771,0.004445));
#596=CARTESIAN_POINT('',(0.00954149422316259,0.0140028862485524,0.004445));
#597=CARTESIAN_POINT('',(0.00954149422316259,0.0140028862485524,-0.004445));
#598=CARTESIAN_POINT('',(0.0111289942231626,0.0112532555915368,-0.004445));
#599=CARTESIAN_POINT('',(0.0127935271842688,0.00837019993202771,-0.004445));
#600=CARTESIAN_POINT('',(0.0127935271842688,0.00837019993202771,0.004445));
#601=CARTESIAN_POINT('',(0.00889824711158129,0.00400033633585747,0.004445));
#602=CARTESIAN_POINT('',(0.00889824711158129,0.00400033633585747,-0.004445));
#603=CARTESIAN_POINT('',(0.00478643932251755,0.000857848240155975,-0.004445));
#604=CARTESIAN_POINT('',(0.0124648522979173,0.00672614817218369,-0.004445));
#605=CARTESIAN_POINT('',(0.00478643932251755,0.000857848240155975,0.004445));
#606=CARTESIAN_POINT('',(0.00478643932251755,0.000857848240155975,0.004445));
#607=CARTESIAN_POINT('',(0.00889824711158129,0.00400033633585747,0.004445));
#608=CARTESIAN_POINT('',(0.0124648522979173,0.00672614817218369,0.004445));
#609=CARTESIAN_POINT('',(0.0124648522979173,0.00672614817218369,0.004445));
#610=CARTESIAN_POINT('',(-1.7347234759768E-18,0.0005969,0.004445));
#611=CARTESIAN_POINT('',(0.00201353230948225,0.0005969,0.00418626297623203));
#612=CARTESIAN_POINT('',(-0.00041793538103549,0.0005969,0.00392752595246405));
#613=CARTESIAN_POINT('',(0.00401526194606277,0.0005969,0.00439927077007473));
#614=CARTESIAN_POINT('',(0.00401526194606277,0.0005969,0.004445));
#615=CARTESIAN_POINT('',(0.00401526194606277,0.0005969,-0.00439927077007473));
#616=CARTESIAN_POINT('',(0.00201353230948225,0.0005969,-0.00418626297623203));
#617=CARTESIAN_POINT('',(-0.00041793538103549,0.0005969,-0.00392752595246406));
#618=CARTESIAN_POINT('',(-4.87890977618477E-19,0.0005969,-4.33680868994202E-18));
#619=CARTESIAN_POINT('',(-4.33680868994202E-19,0.0005969,1.56307794209173E-19));
#620=CARTESIAN_POINT('',(-0.0025527,0.000596899999999999,1.56307794209173E-19));
#621=CARTESIAN_POINT('',(0.0153093039,0.0050939192556793,0.004445));
#622=CARTESIAN_POINT('',(0.004445,-0.0025801,0.004445));
#623=CARTESIAN_POINT('',(0.004445,-0.00250318376484589,0.004445));
#624=CARTESIAN_POINT('',(0.004445,0.000671816235154105,0.004445));
#625=CARTESIAN_POINT('',(0.00401526194606278,-0.0013081,0.004445));
#626=CARTESIAN_POINT('',(0.0155093063497331,0.00747633243530668,0.004445));
#627=CARTESIAN_POINT('',(0.0111912726173719,0.0149553862485524,0.004445));
#628=CARTESIAN_POINT('',(0.0106413464859688,0.0146378862485524,0.004445));
#629=CARTESIAN_POINT('',(0.0116936749214626,0.00773519993202771,0.004445));
#630=CARTESIAN_POINT('',(0.00401526194606277,0.0018669,0.004445));
#631=CARTESIAN_POINT('',(0.0153093039,0.0050939192556793,-0.004445));
#632=CARTESIAN_POINT('',(0.00401526194606278,-0.0013081,-0.004445));
#633=CARTESIAN_POINT('',(0.004445,-0.0025031837648459,-0.004445));
#634=CARTESIAN_POINT('',(0.004445,-0.0025801,-0.004445));
#635=CARTESIAN_POINT('',(0.004445,0.000671816235154103,-0.004445));
#636=CARTESIAN_POINT('',(0.00401526194606277,0.0018669,-0.004445));
#637=CARTESIAN_POINT('',(0.0116936749214626,0.00773519993202771,-0.004445));
#638=CARTESIAN_POINT('',(0.0106413464859688,0.0146378862485524,-0.004445));
#639=CARTESIAN_POINT('',(0.0111912726173719,0.0149553862485524,-0.004445));
#640=CARTESIAN_POINT('',(0.0155093063497331,0.00747633243530668,-0.004445));
#641=CARTESIAN_POINT('',(9.61171446770839E-19,-0.0025801,1.56307794209173E-19));
#642=CARTESIAN_POINT('',(0.011127262172355,0.0112522555915368,1.56307794209173E-19));
#643=CARTESIAN_POINT('',(0.00201353230948225,-0.0025801,0.00418626297623203));
#644=CARTESIAN_POINT('',(0.00401526194606278,-0.0013081,0.00439927077007473));
#645=CARTESIAN_POINT('',(0.00401526194606277,0.0018669,0.00439927077007473));
#646=CARTESIAN_POINT('',(-0.000417935381035489,-0.0025801,0.00392752595246406));
#647=CARTESIAN_POINT('',(9.06961338146564E-19,-0.0025801,-4.33680868994202E-18));
#648=CARTESIAN_POINT('',(-0.000417935381035488,-0.0025801,-0.00392752595246406));
#649=CARTESIAN_POINT('',(0.00201353230948226,-0.0025801,-0.00418626297623203));
#650=CARTESIAN_POINT('',(0.00401526194606278,-0.0013081,-0.00439927077007473));
#651=CARTESIAN_POINT('',(0.00401526194606277,0.0018669,-0.00439927077007473));
#652=CARTESIAN_POINT('',(0.00401526194606278,-0.0013081,0.004445));
#653=CARTESIAN_POINT('',(0.00401526194606277,0.0018669,0.004445));
#654=CARTESIAN_POINT('',(0.0155093063497331,0.00747633243530668,0.004445));
#655=CARTESIAN_POINT('',(0.0111912726173719,0.0149553862485524,0.004445));
#656=CARTESIAN_POINT('',(0.0106413464859688,0.0146378862485524,0.004445));
#657=CARTESIAN_POINT('',(0.0116936749214626,0.00773519993202771,0.004445));
#658=MECHANICAL_DESIGN_GEOMETRIC_PRESENTATION_REPRESENTATION('',(#379),#659);
#659=(
GEOMETRIC_REPRESENTATION_CONTEXT(3)
GLOBAL_UNCERTAINTY_ASSIGNED_CONTEXT((#660))
GLOBAL_UNIT_ASSIGNED_CONTEXT((#663,#662,#661))
REPRESENTATION_CONTEXT('Camera Mount Leg','TOP_LEVEL_ASSEMBLY_PART')
);
#660=UNCERTAINTY_MEASURE_WITH_UNIT(LENGTH_MEASURE(1.E-08),#663,'DISTANCE_ACCURACY_VALUE','Maximum Tolerance applied to model');
#661=(
NAMED_UNIT(*)
SI_UNIT($,.STERADIAN.)
SOLID_ANGLE_UNIT()
);
#662=(
NAMED_UNIT(*)
PLANE_ANGLE_UNIT()
SI_UNIT($,.RADIAN.)
);
#663=(
LENGTH_UNIT()
NAMED_UNIT(*)
SI_UNIT($,.METRE.)
);
#664=PRODUCT_DEFINITION_SHAPE('','',#665);
#665=PRODUCT_DEFINITION('','',#667,#666);
#666=PRODUCT_DEFINITION_CONTEXT('',#673,'design');
#667=PRODUCT_DEFINITION_FORMATION_WITH_SPECIFIED_SOURCE('','',#669,.NOT_KNOWN.);
#668=PRODUCT_RELATED_PRODUCT_CATEGORY('','',(#669));
#669=PRODUCT('Camera Mount Leg','Camera Mount Leg','Camera Mount Leg',(#671));
#670=PRODUCT_CATEGORY('','');
#671=PRODUCT_CONTEXT('',#673,'mechanical');
#672=APPLICATION_PROTOCOL_DEFINITION('international standard','ap242_managed_model_based_3d_engineering',2020,#673);
#673=APPLICATION_CONTEXT('managed model based 3d engineering');
ENDSEC;
END-ISO-10303-21;
